<?xml version="1.0" encoding="us-ascii" standalone="no"?><svg xmlns="http://www.w3.org/2000/svg" xmlns:xlink="http://www.w3.org/1999/xlink" contentStyleType="text/css" height="826px" preserveAspectRatio="none" style="width:2690px;height:826px;background:#FFFFFF;" version="1.1" viewBox="0 0 2690 826" width="2690px" zoomAndPan="magnify"><defs/><g><!--class ScreenDisplay--><g id="elem_ScreenDisplay"><rect codeLine="2" fill="#F1F1F1" height="65.6094" id="ScreenDisplay" rx="2.5" ry="2.5" style="stroke:#181818;stroke-width:0.5;" width="208" x="484.5" y="299.5"/><ellipse cx="538.75" cy="315.5" fill="#ADD1B2" rx="11" ry="11" style="stroke:#181818;stroke-width:1.0;"/><path d="M541.5156,311.375 Q541.6719,311.1563 541.8594,311.0469 Q542.0469,310.9375 542.2656,310.9375 Q542.6406,310.9375 542.875,311.1953 Q543.1094,311.4531 543.1094,312.0625 L543.1094,313.5156 Q543.1094,314.125 542.875,314.3906 Q542.6406,314.6563 542.2656,314.6563 Q541.9219,314.6563 541.7188,314.4531 Q541.5156,314.2656 541.4063,313.75 Q541.3594,313.3906 541.1719,313.2031 Q540.8438,312.8281 540.2344,312.6094 Q539.625,312.3906 539,312.3906 Q538.2344,312.3906 537.6016,312.7188 Q536.9688,313.0469 536.4766,313.7969 Q535.9844,314.5469 535.9844,315.5781 L535.9844,316.6719 Q535.9844,317.9063 536.875,318.7266 Q537.7656,319.5469 539.3594,319.5469 Q540.2969,319.5469 540.9531,319.2969 Q541.3438,319.1406 541.7656,318.7031 Q542.0313,318.4375 542.1797,318.3594 Q542.3281,318.2813 542.5313,318.2813 Q542.8594,318.2813 543.1172,318.5391 Q543.375,318.7969 543.375,319.1406 Q543.375,319.4844 543.0313,319.8906 Q542.5313,320.4688 541.7344,320.7969 Q540.6563,321.25 539.3594,321.25 Q537.8438,321.25 536.6406,320.625 Q535.6563,320.125 534.9688,319.0547 Q534.2813,317.9844 534.2813,316.7031 L534.2813,315.5469 Q534.2813,314.2188 534.8984,313.0703 Q535.5156,311.9219 536.6094,311.3047 Q537.7031,310.6875 538.9375,310.6875 Q539.6719,310.6875 540.3203,310.8516 Q540.9688,311.0156 541.5156,311.375 Z " fill="#000000"/><text fill="#000000" font-family="sans-serif" font-size="14" lengthAdjust="spacing" textLength="91" x="559.25" y="321.2285">ScreenDisplay</text><line style="stroke:#181818;stroke-width:0.5;" x1="485.5" x2="691.5" y1="331.5" y2="331.5"/><line style="stroke:#181818;stroke-width:0.5;" x1="485.5" x2="691.5" y1="339.5" y2="339.5"/><ellipse cx="495.5" cy="353.8047" fill="#84BE84" rx="3" ry="3" style="stroke:#038048;stroke-width:1.0;"/><text fill="#000000" font-family="sans-serif" font-size="14" lengthAdjust="spacing" textLength="182" x="504.5" y="358.0332">DisplayStartUpScreen(): void</text></g><!--class Customer--><g id="elem_Customer"><rect codeLine="6" fill="#F1F1F1" height="171.2656" id="Customer" rx="2.5" ry="2.5" style="stroke:#181818;stroke-width:0.5;" width="647" x="1777" y="7"/><ellipse cx="2065.75" cy="23" fill="#ADD1B2" rx="11" ry="11" style="stroke:#181818;stroke-width:1.0;"/><path d="M2068.5156,18.875 Q2068.6719,18.6563 2068.8594,18.5469 Q2069.0469,18.4375 2069.2656,18.4375 Q2069.6406,18.4375 2069.875,18.6953 Q2070.1094,18.9531 2070.1094,19.5625 L2070.1094,21.0156 Q2070.1094,21.625 2069.875,21.8906 Q2069.6406,22.1563 2069.2656,22.1563 Q2068.9219,22.1563 2068.7188,21.9531 Q2068.5156,21.7656 2068.4063,21.25 Q2068.3594,20.8906 2068.1719,20.7031 Q2067.8438,20.3281 2067.2344,20.1094 Q2066.625,19.8906 2066,19.8906 Q2065.2344,19.8906 2064.6016,20.2188 Q2063.9688,20.5469 2063.4766,21.2969 Q2062.9844,22.0469 2062.9844,23.0781 L2062.9844,24.1719 Q2062.9844,25.4063 2063.875,26.2266 Q2064.7656,27.0469 2066.3594,27.0469 Q2067.2969,27.0469 2067.9531,26.7969 Q2068.3438,26.6406 2068.7656,26.2031 Q2069.0313,25.9375 2069.1797,25.8594 Q2069.3281,25.7813 2069.5313,25.7813 Q2069.8594,25.7813 2070.1172,26.0391 Q2070.375,26.2969 2070.375,26.6406 Q2070.375,26.9844 2070.0313,27.3906 Q2069.5313,27.9688 2068.7344,28.2969 Q2067.6563,28.75 2066.3594,28.75 Q2064.8438,28.75 2063.6406,28.125 Q2062.6563,27.625 2061.9688,26.5547 Q2061.2813,25.4844 2061.2813,24.2031 L2061.2813,23.0469 Q2061.2813,21.7188 2061.8984,20.5703 Q2062.5156,19.4219 2063.6094,18.8047 Q2064.7031,18.1875 2065.9375,18.1875 Q2066.6719,18.1875 2067.3203,18.3516 Q2067.9688,18.5156 2068.5156,18.875 Z " fill="#000000"/><text fill="#000000" font-family="sans-serif" font-size="14" lengthAdjust="spacing" textLength="61" x="2086.25" y="28.7285">Customer</text><line style="stroke:#181818;stroke-width:0.5;" x1="1778" x2="2423" y1="39" y2="39"/><rect fill="none" height="6" style="stroke:#C82930;stroke-width:1.0;" width="6" x="1785" y="50.3047"/><text fill="#000000" font-family="sans-serif" font-size="14" lengthAdjust="spacing" textLength="107" x="1797" y="57.5332">FirstName: string</text><rect fill="none" height="6" style="stroke:#C82930;stroke-width:1.0;" width="6" x="1785" y="67.9141"/><text fill="#000000" font-family="sans-serif" font-size="14" lengthAdjust="spacing" textLength="106" x="1797" y="75.1426">LastName: string</text><rect fill="none" height="6" style="stroke:#C82930;stroke-width:1.0;" width="6" x="1785" y="85.5234"/><text fill="#000000" font-family="sans-serif" font-size="14" lengthAdjust="spacing" textLength="156" x="1797" y="92.752">NationalIDNumber: string</text><rect fill="none" height="6" style="stroke:#C82930;stroke-width:1.0;" width="6" x="1785" y="103.1328"/><text fill="#000000" font-family="sans-serif" font-size="14" lengthAdjust="spacing" textLength="133" x="1797" y="110.3613">PhoneNumber: string</text><rect fill="none" height="6" style="stroke:#C82930;stroke-width:1.0;" width="6" x="1785" y="120.7422"/><text fill="#000000" font-family="sans-serif" font-size="14" lengthAdjust="spacing" textLength="217" x="1797" y="127.9707">DateOfBirth: string = "1970-01-01"</text><line style="stroke:#181818;stroke-width:0.5;" x1="1778" x2="2423" y1="135.0469" y2="135.0469"/><ellipse cx="1788" cy="149.3516" fill="#84BE84" rx="3" ry="3" style="stroke:#038048;stroke-width:1.0;"/><text fill="#000000" font-family="sans-serif" font-size="14" lengthAdjust="spacing" textLength="621" x="1797" y="153.5801">Customer(firstName: string, lastName: string, NationalIDNumber: string, PhoneNumber: string): void</text><ellipse cx="1788" cy="166.9609" fill="#84BE84" rx="3" ry="3" style="stroke:#038048;stroke-width:1.0;"/><text fill="#000000" font-family="sans-serif" font-size="14" lengthAdjust="spacing" textLength="323" x="1797" y="171.1895">FullName(firstName: string, lastName: string): string</text></g><!--class ExternalCustomer--><g id="elem_ExternalCustomer"><rect codeLine="17" fill="#F1F1F1" height="136.0469" id="ExternalCustomer" rx="2.5" ry="2.5" style="stroke:#181818;stroke-width:0.5;" width="708" x="1422.5" y="264.5"/><ellipse cx="1716.25" cy="280.5" fill="#ADD1B2" rx="11" ry="11" style="stroke:#181818;stroke-width:1.0;"/><path d="M1719.0156,276.375 Q1719.1719,276.1563 1719.3594,276.0469 Q1719.5469,275.9375 1719.7656,275.9375 Q1720.1406,275.9375 1720.375,276.1953 Q1720.6094,276.4531 1720.6094,277.0625 L1720.6094,278.5156 Q1720.6094,279.125 1720.375,279.3906 Q1720.1406,279.6563 1719.7656,279.6563 Q1719.4219,279.6563 1719.2188,279.4531 Q1719.0156,279.2656 1718.9063,278.75 Q1718.8594,278.3906 1718.6719,278.2031 Q1718.3438,277.8281 1717.7344,277.6094 Q1717.125,277.3906 1716.5,277.3906 Q1715.7344,277.3906 1715.1016,277.7188 Q1714.4688,278.0469 1713.9766,278.7969 Q1713.4844,279.5469 1713.4844,280.5781 L1713.4844,281.6719 Q1713.4844,282.9063 1714.375,283.7266 Q1715.2656,284.5469 1716.8594,284.5469 Q1717.7969,284.5469 1718.4531,284.2969 Q1718.8438,284.1406 1719.2656,283.7031 Q1719.5313,283.4375 1719.6797,283.3594 Q1719.8281,283.2813 1720.0313,283.2813 Q1720.3594,283.2813 1720.6172,283.5391 Q1720.875,283.7969 1720.875,284.1406 Q1720.875,284.4844 1720.5313,284.8906 Q1720.0313,285.4688 1719.2344,285.7969 Q1718.1563,286.25 1716.8594,286.25 Q1715.3438,286.25 1714.1406,285.625 Q1713.1563,285.125 1712.4688,284.0547 Q1711.7813,282.9844 1711.7813,281.7031 L1711.7813,280.5469 Q1711.7813,279.2188 1712.3984,278.0703 Q1713.0156,276.9219 1714.1094,276.3047 Q1715.2031,275.6875 1716.4375,275.6875 Q1717.1719,275.6875 1717.8203,275.8516 Q1718.4688,276.0156 1719.0156,276.375 Z " fill="#000000"/><text fill="#000000" font-family="sans-serif" font-size="14" lengthAdjust="spacing" textLength="112" x="1736.75" y="286.2285">ExternalCustomer</text><line style="stroke:#181818;stroke-width:0.5;" x1="1423.5" x2="2129.5" y1="296.5" y2="296.5"/><rect fill="none" height="6" style="stroke:#C82930;stroke-width:1.0;" width="6" x="1430.5" y="307.8047"/><text fill="#000000" font-family="sans-serif" font-size="14" lengthAdjust="spacing" textLength="168" x="1442.5" y="315.0332">ExternalCustomerID: string</text><rect fill="none" height="6" style="stroke:#C82930;stroke-width:1.0;" width="6" x="1430.5" y="325.4141"/><text fill="#000000" font-family="sans-serif" font-size="14" lengthAdjust="spacing" textLength="162" x="1442.5" y="332.6426">ExternalBankName: string</text><rect fill="none" height="6" style="stroke:#C82930;stroke-width:1.0;" width="6" x="1430.5" y="343.0234"/><text fill="#000000" font-family="sans-serif" font-size="14" lengthAdjust="spacing" textLength="158" x="1442.5" y="350.252">ExternalAccountID: string</text><line style="stroke:#181818;stroke-width:0.5;" x1="1423.5" x2="2129.5" y1="357.3281" y2="357.3281"/><ellipse cx="1433.5" cy="371.6328" fill="#84BE84" rx="3" ry="3" style="stroke:#038048;stroke-width:1.0;"/><text fill="#000000" font-family="sans-serif" font-size="14" lengthAdjust="spacing" textLength="496" x="1442.5" y="375.8613">ExternalCustomer(firstName: string, lastName: string, NationalIDNumber: string,</text><text fill="#000000" font-family="sans-serif" font-size="14" lengthAdjust="spacing" textLength="682" x="1442.5" y="393.4707">PhoneNumber: string, externalCustomerID: string, externalBankName: string, ExternalAccountID: string): void</text></g><!--class InternalCustomer--><g id="elem_InternalCustomer"><rect codeLine="26" fill="#F1F1F1" height="188.875" id="InternalCustomer" rx="2.5" ry="2.5" style="stroke:#181818;stroke-width:0.5;" width="518" x="2165.5" y="238"/><ellipse cx="2366.25" cy="254" fill="#ADD1B2" rx="11" ry="11" style="stroke:#181818;stroke-width:1.0;"/><path d="M2369.0156,249.875 Q2369.1719,249.6563 2369.3594,249.5469 Q2369.5469,249.4375 2369.7656,249.4375 Q2370.1406,249.4375 2370.375,249.6953 Q2370.6094,249.9531 2370.6094,250.5625 L2370.6094,252.0156 Q2370.6094,252.625 2370.375,252.8906 Q2370.1406,253.1563 2369.7656,253.1563 Q2369.4219,253.1563 2369.2188,252.9531 Q2369.0156,252.7656 2368.9063,252.25 Q2368.8594,251.8906 2368.6719,251.7031 Q2368.3438,251.3281 2367.7344,251.1094 Q2367.125,250.8906 2366.5,250.8906 Q2365.7344,250.8906 2365.1016,251.2188 Q2364.4688,251.5469 2363.9766,252.2969 Q2363.4844,253.0469 2363.4844,254.0781 L2363.4844,255.1719 Q2363.4844,256.4063 2364.375,257.2266 Q2365.2656,258.0469 2366.8594,258.0469 Q2367.7969,258.0469 2368.4531,257.7969 Q2368.8438,257.6406 2369.2656,257.2031 Q2369.5313,256.9375 2369.6797,256.8594 Q2369.8281,256.7813 2370.0313,256.7813 Q2370.3594,256.7813 2370.6172,257.0391 Q2370.875,257.2969 2370.875,257.6406 Q2370.875,257.9844 2370.5313,258.3906 Q2370.0313,258.9688 2369.2344,259.2969 Q2368.1563,259.75 2366.8594,259.75 Q2365.3438,259.75 2364.1406,259.125 Q2363.1563,258.625 2362.4688,257.5547 Q2361.7813,256.4844 2361.7813,255.2031 L2361.7813,254.0469 Q2361.7813,252.7188 2362.3984,251.5703 Q2363.0156,250.4219 2364.1094,249.8047 Q2365.2031,249.1875 2366.4375,249.1875 Q2367.1719,249.1875 2367.8203,249.3516 Q2368.4688,249.5156 2369.0156,249.875 Z " fill="#000000"/><text fill="#000000" font-family="sans-serif" font-size="14" lengthAdjust="spacing" textLength="108" x="2386.75" y="259.7285">InternalCustomer</text><line style="stroke:#181818;stroke-width:0.5;" x1="2166.5" x2="2682.5" y1="270" y2="270"/><rect fill="none" height="6" style="stroke:#C82930;stroke-width:1.0;" width="6" x="2173.5" y="281.3047"/><text fill="#000000" font-family="sans-serif" font-size="14" lengthAdjust="spacing" textLength="164" x="2185.5" y="288.5332">InternalCustomerID: string</text><rect fill="none" height="6" style="stroke:#C82930;stroke-width:1.0;" width="6" x="2173.5" y="298.9141"/><text fill="#000000" font-family="sans-serif" font-size="14" lengthAdjust="spacing" textLength="131" x="2185.5" y="306.1426">Balance: decimal = 0</text><rect fill="none" height="6" style="stroke:#C82930;stroke-width:1.0;" width="6" x="2173.5" y="316.5234"/><text fill="#000000" font-family="sans-serif" font-size="14" lengthAdjust="spacing" textLength="153" x="2185.5" y="323.752">CardPIN: string = "0000"</text><rect fill="none" height="6" style="stroke:#C82930;stroke-width:1.0;" width="6" x="2173.5" y="334.1328"/><text fill="#000000" font-family="sans-serif" font-size="14" lengthAdjust="spacing" textLength="277" x="2185.5" y="341.3613">CardNumber: string = "0000000000000000"</text><rect fill="none" height="6" style="stroke:#C82930;stroke-width:1.0;" width="6" x="2173.5" y="351.7422"/><text fill="#000000" font-family="sans-serif" font-size="14" lengthAdjust="spacing" textLength="242" x="2185.5" y="358.9707">CardExpiryDate: string = "2034-01-01"</text><rect fill="none" height="6" style="stroke:#C82930;stroke-width:1.0;" width="6" x="2173.5" y="369.3516"/><text fill="#000000" font-family="sans-serif" font-size="14" lengthAdjust="spacing" textLength="189" x="2185.5" y="376.5801">CardStatus: string = "Passive"</text><line style="stroke:#181818;stroke-width:0.5;" x1="2166.5" x2="2682.5" y1="383.6563" y2="383.6563"/><ellipse cx="2176.5" cy="397.9609" fill="#84BE84" rx="3" ry="3" style="stroke:#038048;stroke-width:1.0;"/><text fill="#000000" font-family="sans-serif" font-size="14" lengthAdjust="spacing" textLength="492" x="2185.5" y="402.1895">InternalCustomer(firstName: string, lastName: string, NationalIDNumber: string,</text><text fill="#000000" font-family="sans-serif" font-size="14" lengthAdjust="spacing" textLength="344" x="2185.5" y="419.7988">PhoneNumber: string, internalCustomerID: string): void</text></g><!--class OptionHandler--><g id="elem_OptionHandler"><rect codeLine="38" fill="#F1F1F1" height="83.2188" id="OptionHandler" rx="2.5" ry="2.5" style="stroke:#181818;stroke-width:0.5;" width="731" x="577" y="51"/><ellipse cx="892.75" cy="67" fill="#ADD1B2" rx="11" ry="11" style="stroke:#181818;stroke-width:1.0;"/><path d="M895.5156,62.875 Q895.6719,62.6563 895.8594,62.5469 Q896.0469,62.4375 896.2656,62.4375 Q896.6406,62.4375 896.875,62.6953 Q897.1094,62.9531 897.1094,63.5625 L897.1094,65.0156 Q897.1094,65.625 896.875,65.8906 Q896.6406,66.1563 896.2656,66.1563 Q895.9219,66.1563 895.7188,65.9531 Q895.5156,65.7656 895.4063,65.25 Q895.3594,64.8906 895.1719,64.7031 Q894.8438,64.3281 894.2344,64.1094 Q893.625,63.8906 893,63.8906 Q892.2344,63.8906 891.6016,64.2188 Q890.9688,64.5469 890.4766,65.2969 Q889.9844,66.0469 889.9844,67.0781 L889.9844,68.1719 Q889.9844,69.4063 890.875,70.2266 Q891.7656,71.0469 893.3594,71.0469 Q894.2969,71.0469 894.9531,70.7969 Q895.3438,70.6406 895.7656,70.2031 Q896.0313,69.9375 896.1797,69.8594 Q896.3281,69.7813 896.5313,69.7813 Q896.8594,69.7813 897.1172,70.0391 Q897.375,70.2969 897.375,70.6406 Q897.375,70.9844 897.0313,71.3906 Q896.5313,71.9688 895.7344,72.2969 Q894.6563,72.75 893.3594,72.75 Q891.8438,72.75 890.6406,72.125 Q889.6563,71.625 888.9688,70.5547 Q888.2813,69.4844 888.2813,68.2031 L888.2813,67.0469 Q888.2813,65.7188 888.8984,64.5703 Q889.5156,63.4219 890.6094,62.8047 Q891.7031,62.1875 892.9375,62.1875 Q893.6719,62.1875 894.3203,62.3516 Q894.9688,62.5156 895.5156,62.875 Z " fill="#000000"/><text fill="#000000" font-family="sans-serif" font-size="14" lengthAdjust="spacing" textLength="91" x="913.25" y="72.7285">OptionHandler</text><line style="stroke:#181818;stroke-width:0.5;" x1="578" x2="1307" y1="83" y2="83"/><line style="stroke:#181818;stroke-width:0.5;" x1="578" x2="1307" y1="91" y2="91"/><ellipse cx="588" cy="105.3047" fill="#84BE84" rx="3" ry="3" style="stroke:#038048;stroke-width:1.0;"/><text fill="#000000" font-family="sans-serif" font-size="14" lengthAdjust="spacing" textLength="705" x="597" y="109.5332">GetMainScreenInput(externalCustomerHandler: ICustomerHandler, internalCustomerHandler: ICustomerHandler,</text><text fill="#000000" font-family="sans-serif" font-size="14" lengthAdjust="spacing" textLength="442" x="597" y="127.1426">exitATMHandler: ExitATMHandler, screenDisplay: ScreenDisplay): void</text></g><!--class ICustomerHandler--><g id="elem_ICustomerHandler"><rect codeLine="43" fill="#F1F1F1" height="65.6094" id="ICustomerHandler" rx="2.5" ry="2.5" style="stroke:#181818;stroke-width:0.5;" width="429" x="728" y="299.5"/><ellipse cx="880.75" cy="315.5" fill="#B4A7E5" rx="11" ry="11" style="stroke:#181818;stroke-width:1.0;"/><path d="M881.7031,312.1406 L881.7031,318.7969 L883.4219,318.7969 Q884.0313,318.7969 884.2969,319.0313 Q884.5625,319.2656 884.5625,319.6563 Q884.5625,320.0313 884.2969,320.2656 Q884.0313,320.5 883.4219,320.5 L878.2813,320.5 Q877.6719,320.5 877.4063,320.2656 Q877.1406,320.0313 877.1406,319.6406 Q877.1406,319.2656 877.4063,319.0313 Q877.6719,318.7969 878.2813,318.7969 L880,318.7969 L880,312.1406 L878.2813,312.1406 Q877.6719,312.1406 877.4063,311.9063 Q877.1406,311.6719 877.1406,311.2813 Q877.1406,310.9063 877.4063,310.6719 Q877.6719,310.4375 878.2813,310.4375 L883.4219,310.4375 Q884.0313,310.4375 884.2969,310.6719 Q884.5625,310.9063 884.5625,311.2813 Q884.5625,311.6719 884.2969,311.9063 Q884.0313,312.1406 883.4219,312.1406 L881.7031,312.1406 Z " fill="#000000"/><text fill="#000000" font-family="sans-serif" font-size="14" font-style="italic" lengthAdjust="spacing" textLength="115" x="901.25" y="321.2285">ICustomerHandler</text><line style="stroke:#181818;stroke-width:0.5;" x1="729" x2="1156" y1="331.5" y2="331.5"/><line style="stroke:#181818;stroke-width:0.5;" x1="729" x2="1156" y1="339.5" y2="339.5"/><ellipse cx="739" cy="353.8047" fill="#84BE84" rx="3" ry="3" style="stroke:#038048;stroke-width:1.0;"/><text fill="#000000" font-family="sans-serif" font-size="14" lengthAdjust="spacing" textLength="403" x="748" y="358.0332">DisplayCustomerScreen(exitATMHandler: ExitATMHandler): void</text></g><!--class ExternalCustomerHandler--><g id="elem_ExternalCustomerHandler"><rect codeLine="47" fill="#F1F1F1" height="65.6094" id="ExternalCustomerHandler" rx="2.5" ry="2.5" style="stroke:#181818;stroke-width:0.5;" width="429" x="887" y="522"/><ellipse cx="1016.75" cy="538" fill="#ADD1B2" rx="11" ry="11" style="stroke:#181818;stroke-width:1.0;"/><path d="M1019.5156,533.875 Q1019.6719,533.6563 1019.8594,533.5469 Q1020.0469,533.4375 1020.2656,533.4375 Q1020.6406,533.4375 1020.875,533.6953 Q1021.1094,533.9531 1021.1094,534.5625 L1021.1094,536.0156 Q1021.1094,536.625 1020.875,536.8906 Q1020.6406,537.1563 1020.2656,537.1563 Q1019.9219,537.1563 1019.7188,536.9531 Q1019.5156,536.7656 1019.4063,536.25 Q1019.3594,535.8906 1019.1719,535.7031 Q1018.8438,535.3281 1018.2344,535.1094 Q1017.625,534.8906 1017,534.8906 Q1016.2344,534.8906 1015.6016,535.2188 Q1014.9688,535.5469 1014.4766,536.2969 Q1013.9844,537.0469 1013.9844,538.0781 L1013.9844,539.1719 Q1013.9844,540.4063 1014.875,541.2266 Q1015.7656,542.0469 1017.3594,542.0469 Q1018.2969,542.0469 1018.9531,541.7969 Q1019.3438,541.6406 1019.7656,541.2031 Q1020.0313,540.9375 1020.1797,540.8594 Q1020.3281,540.7813 1020.5313,540.7813 Q1020.8594,540.7813 1021.1172,541.0391 Q1021.375,541.2969 1021.375,541.6406 Q1021.375,541.9844 1021.0313,542.3906 Q1020.5313,542.9688 1019.7344,543.2969 Q1018.6563,543.75 1017.3594,543.75 Q1015.8438,543.75 1014.6406,543.125 Q1013.6563,542.625 1012.9688,541.5547 Q1012.2813,540.4844 1012.2813,539.2031 L1012.2813,538.0469 Q1012.2813,536.7188 1012.8984,535.5703 Q1013.5156,534.4219 1014.6094,533.8047 Q1015.7031,533.1875 1016.9375,533.1875 Q1017.6719,533.1875 1018.3203,533.3516 Q1018.9688,533.5156 1019.5156,533.875 Z " fill="#000000"/><text fill="#000000" font-family="sans-serif" font-size="14" lengthAdjust="spacing" textLength="161" x="1037.25" y="543.7285">ExternalCustomerHandler</text><line style="stroke:#181818;stroke-width:0.5;" x1="888" x2="1315" y1="554" y2="554"/><line style="stroke:#181818;stroke-width:0.5;" x1="888" x2="1315" y1="562" y2="562"/><ellipse cx="898" cy="576.3047" fill="#84BE84" rx="3" ry="3" style="stroke:#038048;stroke-width:1.0;"/><text fill="#000000" font-family="sans-serif" font-size="14" lengthAdjust="spacing" textLength="403" x="907" y="580.5332">DisplayCustomerScreen(exitATMHandler: ExitATMHandler): void</text></g><!--class InternalCustomerHandler--><g id="elem_InternalCustomerHandler"><rect codeLine="51" fill="#F1F1F1" height="136.0469" id="InternalCustomerHandler" rx="2.5" ry="2.5" style="stroke:#181818;stroke-width:0.5;" width="773" x="7" y="487"/><ellipse cx="310.75" cy="503" fill="#ADD1B2" rx="11" ry="11" style="stroke:#181818;stroke-width:1.0;"/><path d="M313.5156,498.875 Q313.6719,498.6563 313.8594,498.5469 Q314.0469,498.4375 314.2656,498.4375 Q314.6406,498.4375 314.875,498.6953 Q315.1094,498.9531 315.1094,499.5625 L315.1094,501.0156 Q315.1094,501.625 314.875,501.8906 Q314.6406,502.1563 314.2656,502.1563 Q313.9219,502.1563 313.7188,501.9531 Q313.5156,501.7656 313.4063,501.25 Q313.3594,500.8906 313.1719,500.7031 Q312.8438,500.3281 312.2344,500.1094 Q311.625,499.8906 311,499.8906 Q310.2344,499.8906 309.6016,500.2188 Q308.9688,500.5469 308.4766,501.2969 Q307.9844,502.0469 307.9844,503.0781 L307.9844,504.1719 Q307.9844,505.4063 308.875,506.2266 Q309.7656,507.0469 311.3594,507.0469 Q312.2969,507.0469 312.9531,506.7969 Q313.3438,506.6406 313.7656,506.2031 Q314.0313,505.9375 314.1797,505.8594 Q314.3281,505.7813 314.5313,505.7813 Q314.8594,505.7813 315.1172,506.0391 Q315.375,506.2969 315.375,506.6406 Q315.375,506.9844 315.0313,507.3906 Q314.5313,507.9688 313.7344,508.2969 Q312.6563,508.75 311.3594,508.75 Q309.8438,508.75 308.6406,508.125 Q307.6563,507.625 306.9688,506.5547 Q306.2813,505.4844 306.2813,504.2031 L306.2813,503.0469 Q306.2813,501.7188 306.8984,500.5703 Q307.5156,499.4219 308.6094,498.8047 Q309.7031,498.1875 310.9375,498.1875 Q311.6719,498.1875 312.3203,498.3516 Q312.9688,498.5156 313.5156,498.875 Z " fill="#000000"/><text fill="#000000" font-family="sans-serif" font-size="14" lengthAdjust="spacing" textLength="157" x="331.25" y="508.7285">InternalCustomerHandler</text><line style="stroke:#181818;stroke-width:0.5;" x1="8" x2="779" y1="519" y2="519"/><line style="stroke:#181818;stroke-width:0.5;" x1="8" x2="779" y1="527" y2="527"/><ellipse cx="18" cy="541.3047" fill="#84BE84" rx="3" ry="3" style="stroke:#038048;stroke-width:1.0;"/><text fill="#000000" font-family="sans-serif" font-size="14" lengthAdjust="spacing" textLength="403" x="27" y="545.5332">DisplayCustomerScreen(exitATMHandler: ExitATMHandler): void</text><ellipse cx="18" cy="558.9141" fill="#84BE84" rx="3" ry="3" style="stroke:#038048;stroke-width:1.0;"/><text fill="#000000" font-family="sans-serif" font-size="14" lengthAdjust="spacing" textLength="170" x="27" y="563.1426">DisplayLoginScreen(): void</text><rect fill="#F24D5C" height="6" style="stroke:#C82930;stroke-width:1.0;" width="6" x="15" y="573.5234"/><text fill="#000000" font-family="sans-serif" font-size="14" lengthAdjust="spacing" textLength="366" x="27" y="580.752">GetCustomerInput(exitATMHandler: ExitATMHandler): void</text><rect fill="#F24D5C" height="6" style="stroke:#C82930;stroke-width:1.0;" width="6" x="15" y="591.1328"/><text fill="#000000" font-family="sans-serif" font-size="14" lengthAdjust="spacing" textLength="665" x="27" y="598.3613">LoginWithCardNumber(exitATMHandler: ExitATMHandler, customerRepository: CustomerRepository): void</text><rect fill="#F24D5C" height="6" style="stroke:#C82930;stroke-width:1.0;" width="6" x="15" y="608.7422"/><text fill="#000000" font-family="sans-serif" font-size="14" lengthAdjust="spacing" textLength="747" x="27" y="615.9707">AuthenticateCustomer(customerRepository: CustomerRepository, cardDetailsEntered: List&lt;string&gt;): InternalCustomer?</text></g><!--class CustomerRepository--><g id="elem_CustomerRepository"><rect codeLine="59" fill="#F1F1F1" height="136.0469" id="CustomerRepository" rx="2.5" ry="2.5" style="stroke:#181818;stroke-width:0.5;" width="270" x="258.5" y="683"/><ellipse cx="324.75" cy="699" fill="#ADD1B2" rx="11" ry="11" style="stroke:#181818;stroke-width:1.0;"/><path d="M327.5156,694.875 Q327.6719,694.6563 327.8594,694.5469 Q328.0469,694.4375 328.2656,694.4375 Q328.6406,694.4375 328.875,694.6953 Q329.1094,694.9531 329.1094,695.5625 L329.1094,697.0156 Q329.1094,697.625 328.875,697.8906 Q328.6406,698.1563 328.2656,698.1563 Q327.9219,698.1563 327.7188,697.9531 Q327.5156,697.7656 327.4063,697.25 Q327.3594,696.8906 327.1719,696.7031 Q326.8438,696.3281 326.2344,696.1094 Q325.625,695.8906 325,695.8906 Q324.2344,695.8906 323.6016,696.2188 Q322.9688,696.5469 322.4766,697.2969 Q321.9844,698.0469 321.9844,699.0781 L321.9844,700.1719 Q321.9844,701.4063 322.875,702.2266 Q323.7656,703.0469 325.3594,703.0469 Q326.2969,703.0469 326.9531,702.7969 Q327.3438,702.6406 327.7656,702.2031 Q328.0313,701.9375 328.1797,701.8594 Q328.3281,701.7813 328.5313,701.7813 Q328.8594,701.7813 329.1172,702.0391 Q329.375,702.2969 329.375,702.6406 Q329.375,702.9844 329.0313,703.3906 Q328.5313,703.9688 327.7344,704.2969 Q326.6563,704.75 325.3594,704.75 Q323.8438,704.75 322.6406,704.125 Q321.6563,703.625 320.9688,702.5547 Q320.2813,701.4844 320.2813,700.2031 L320.2813,699.0469 Q320.2813,697.7188 320.8984,696.5703 Q321.5156,695.4219 322.6094,694.8047 Q323.7031,694.1875 324.9375,694.1875 Q325.6719,694.1875 326.3203,694.3516 Q326.9688,694.5156 327.5156,694.875 Z " fill="#000000"/><text fill="#000000" font-family="sans-serif" font-size="14" lengthAdjust="spacing" textLength="129" x="345.25" y="704.7285">CustomerRepository</text><line style="stroke:#181818;stroke-width:0.5;" x1="259.5" x2="527.5" y1="715" y2="715"/><rect fill="none" height="6" style="stroke:#C82930;stroke-width:1.0;" width="6" x="266.5" y="726.3047"/><text fill="#000000" font-family="sans-serif" font-size="14" lengthAdjust="spacing" textLength="244" x="278.5" y="733.5332">_instance: CustomerRepository? = null</text><ellipse cx="269.5" cy="746.9141" fill="none" rx="3" ry="3" style="stroke:#038048;stroke-width:1.0;"/><text fill="#000000" font-family="sans-serif" font-size="14" lengthAdjust="spacing" textLength="190" x="278.5" y="751.1426">Instance: CustomerRepository</text><ellipse cx="269.5" cy="764.5234" fill="none" rx="3" ry="3" style="stroke:#038048;stroke-width:1.0;"/><text fill="#000000" font-family="sans-serif" font-size="14" lengthAdjust="spacing" textLength="172" x="278.5" y="768.752">customers: List&lt;Customer&gt;</text><ellipse cx="269.5" cy="782.1328" fill="none" rx="3" ry="3" style="stroke:#038048;stroke-width:1.0;"/><text fill="#000000" font-family="sans-serif" font-size="14" lengthAdjust="spacing" textLength="175" x="278.5" y="786.3613">Customers: List&lt;Customer&gt;</text><line style="stroke:#181818;stroke-width:0.5;" x1="259.5" x2="527.5" y1="793.4375" y2="793.4375"/><rect fill="#F24D5C" height="6" style="stroke:#C82930;stroke-width:1.0;" width="6" x="266.5" y="804.7422"/><text fill="#000000" font-family="sans-serif" font-size="14" lengthAdjust="spacing" textLength="139" x="278.5" y="811.9707">CustomerRepository()</text></g><!--class ExitATMHandler--><g id="elem_ExitATMHandler"><rect codeLine="68" fill="#F1F1F1" height="65.6094" id="ExitATMHandler" rx="2.5" ry="2.5" style="stroke:#181818;stroke-width:0.5;" width="132" x="901.5" y="718"/><ellipse cx="916.5" cy="734" fill="#ADD1B2" rx="11" ry="11" style="stroke:#181818;stroke-width:1.0;"/><path d="M919.2656,729.875 Q919.4219,729.6563 919.6094,729.5469 Q919.7969,729.4375 920.0156,729.4375 Q920.3906,729.4375 920.625,729.6953 Q920.8594,729.9531 920.8594,730.5625 L920.8594,732.0156 Q920.8594,732.625 920.625,732.8906 Q920.3906,733.1563 920.0156,733.1563 Q919.6719,733.1563 919.4688,732.9531 Q919.2656,732.7656 919.1563,732.25 Q919.1094,731.8906 918.9219,731.7031 Q918.5938,731.3281 917.9844,731.1094 Q917.375,730.8906 916.75,730.8906 Q915.9844,730.8906 915.3516,731.2188 Q914.7188,731.5469 914.2266,732.2969 Q913.7344,733.0469 913.7344,734.0781 L913.7344,735.1719 Q913.7344,736.4063 914.625,737.2266 Q915.5156,738.0469 917.1094,738.0469 Q918.0469,738.0469 918.7031,737.7969 Q919.0938,737.6406 919.5156,737.2031 Q919.7813,736.9375 919.9297,736.8594 Q920.0781,736.7813 920.2813,736.7813 Q920.6094,736.7813 920.8672,737.0391 Q921.125,737.2969 921.125,737.6406 Q921.125,737.9844 920.7813,738.3906 Q920.2813,738.9688 919.4844,739.2969 Q918.4063,739.75 917.1094,739.75 Q915.5938,739.75 914.3906,739.125 Q913.4063,738.625 912.7188,737.5547 Q912.0313,736.4844 912.0313,735.2031 L912.0313,734.0469 Q912.0313,732.7188 912.6484,731.5703 Q913.2656,730.4219 914.3594,729.8047 Q915.4531,729.1875 916.6875,729.1875 Q917.4219,729.1875 918.0703,729.3516 Q918.7188,729.5156 919.2656,729.875 Z " fill="#000000"/><text fill="#000000" font-family="sans-serif" font-size="14" lengthAdjust="spacing" textLength="100" x="930.5" y="739.7285">ExitATMHandler</text><line style="stroke:#181818;stroke-width:0.5;" x1="902.5" x2="1032.5" y1="750" y2="750"/><line style="stroke:#181818;stroke-width:0.5;" x1="902.5" x2="1032.5" y1="758" y2="758"/><ellipse cx="912.5" cy="772.3047" fill="#84BE84" rx="3" ry="3" style="stroke:#038048;stroke-width:1.0;"/><text fill="#000000" font-family="sans-serif" font-size="14" lengthAdjust="spacing" textLength="95" x="921.5" y="776.5332">ExitATM(): void</text></g><!--reverse link Customer to ExternalCustomer--><g id="link_Customer_ExternalCustomer"><path codeLine="72" d="M1970.8542,188.7374 C1932.2942,217.0674 1904.36,237.58 1867.87,264.38 " fill="none" id="Customer-backto-ExternalCustomer" style="stroke:#181818;stroke-width:1.0;"/><polygon fill="none" points="1985.36,178.08,1967.3017,183.9021,1974.4066,193.5727,1985.36,178.08" style="stroke:#181818;stroke-width:1.0;"/></g><!--reverse link Customer to InternalCustomer--><g id="link_Customer_InternalCustomer"><path codeLine="73" d="M2230.1488,188.7334 C2256.5288,208.1034 2270.2,218.16 2297.06,237.89 " fill="none" id="Customer-backto-InternalCustomer" style="stroke:#181818;stroke-width:1.0;"/><polygon fill="none" points="2215.64,178.08,2226.5977,193.5696,2233.6999,183.8971,2215.64,178.08" style="stroke:#181818;stroke-width:1.0;"/></g><!--reverse link ICustomerHandler to ExternalCustomerHandler--><g id="link_ICustomerHandler_ExternalCustomerHandler"><path codeLine="75" d="M976.1482,380.1599 C1006.2982,421.9699 1048.19,480.07 1078.35,521.9 " fill="none" id="ICustomerHandler-backto-ExternalCustomerHandler" style="stroke:#181818;stroke-width:1.0;"/><polygon fill="none" points="965.62,365.56,971.2816,383.6693,981.0149,376.6504,965.62,365.56" style="stroke:#181818;stroke-width:1.0;"/></g><!--reverse link ICustomerHandler to InternalCustomerHandler--><g id="link_ICustomerHandler_InternalCustomerHandler"><path codeLine="76" d="M845.9675,372.2702 C767.0875,403.9602 660.72,446.68 560.41,486.96 " fill="none" id="ICustomerHandler-backto-InternalCustomerHandler" style="stroke:#181818;stroke-width:1.0;"/><polygon fill="none" points="862.67,365.56,843.7308,366.7027,848.2043,377.8377,862.67,365.56" style="stroke:#181818;stroke-width:1.0;"/></g><!--link OptionHandler to ICustomerHandler--><g id="link_OptionHandler_ICustomerHandler"><path codeLine="78" d="M942.5,134.14 C942.5,180.88 942.5,250.63 942.5,293.42 " fill="none" id="OptionHandler-to-ICustomerHandler" style="stroke:#181818;stroke-width:1.0;stroke-dasharray:7.0,7.0;"/><polygon fill="#181818" points="942.5,299.42,946.5,290.42,942.5,294.42,938.5,290.42,942.5,299.42" style="stroke:#181818;stroke-width:1.0;"/></g><!--link OptionHandler to ScreenDisplay--><g id="link_OptionHandler_ScreenDisplay"><path codeLine="79" d="M873.62,134 C826.87,162.08 764.05,200.93 710.5,238 C682.41,257.44 656.6211,277.1045 633.1511,295.6145 " fill="none" id="OptionHandler-to-ScreenDisplay" style="stroke:#181818;stroke-width:1.0;stroke-dasharray:7.0,7.0;"/><polygon fill="#181818" points="628.44,299.33,637.9837,296.8975,632.366,296.2337,633.0297,290.616,628.44,299.33" style="stroke:#181818;stroke-width:1.0;"/></g><!--link ICustomerHandler to ExitATMHandler--><g id="link_ICustomerHandler_ExitATMHandler"><path codeLine="81" d="M921.91,365.78 C904.05,395.82 879.54,442.53 869.5,487 C856.19,545.96 849.99,565.79 869.5,623 C882.04,659.77 905.8436,689.8624 928.7136,713.5624 " fill="none" id="ICustomerHandler-to-ExitATMHandler" style="stroke:#181818;stroke-width:1.0;stroke-dasharray:7.0,7.0;"/><polygon fill="#181818" points="932.88,717.88,929.5088,708.6261,929.408,714.282,923.7521,714.1812,932.88,717.88" style="stroke:#181818;stroke-width:1.0;"/></g><!--link ExternalCustomerHandler to ExitATMHandler--><g id="link_ExternalCustomerHandler_ExitATMHandler"><path codeLine="82" d="M1079.37,588.04 C1054.54,623.98 1017.9095,677.0128 993.0695,712.9828 " fill="none" id="ExternalCustomerHandler-to-ExitATMHandler" style="stroke:#181818;stroke-width:1.0;stroke-dasharray:7.0,7.0;"/><polygon fill="#181818" points="989.66,717.92,998.0656,712.7873,992.5012,713.8057,991.4828,708.2413,989.66,717.92" style="stroke:#181818;stroke-width:1.0;"/></g><!--link InternalCustomerHandler to ExitATMHandler--><g id="link_InternalCustomerHandler_ExitATMHandler"><path codeLine="83" d="M591.84,623.04 C699.75,659.51 820.516,700.3186 895.746,725.7486 " fill="none" id="InternalCustomerHandler-to-ExitATMHandler" style="stroke:#181818;stroke-width:1.0;stroke-dasharray:7.0,7.0;"/><polygon fill="#181818" points="901.43,727.67,894.1849,720.9986,896.6933,726.0689,891.623,728.5773,901.43,727.67" style="stroke:#181818;stroke-width:1.0;"/></g><!--link OptionHandler to ExitATMHandler--><g id="link_OptionHandler_ExitATMHandler"><path codeLine="84" d="M1026.66,134.02 C1073.76,159.45 1131.48,195.46 1174.5,238 C1267.87,330.32 1296.69,360.96 1333.5,487 C1350.44,545.02 1368.54,573.75 1333.5,623 C1265.26,718.9 1125.2769,742.6432 1039.7269,748.3132 " fill="none" id="OptionHandler-to-ExitATMHandler" style="stroke:#181818;stroke-width:1.0;stroke-dasharray:7.0,7.0;"/><polygon fill="#181818" points="1033.74,748.71,1042.9848,752.1061,1038.7291,748.3793,1042.4558,744.1236,1033.74,748.71" style="stroke:#181818;stroke-width:1.0;"/></g><!--link InternalCustomerHandler to CustomerRepository--><g id="link_InternalCustomerHandler_CustomerRepository"><path codeLine="86" d="M393.5,623.04 C393.5,642.42 393.5,657.58 393.5,676.96 " fill="none" id="InternalCustomerHandler-to-CustomerRepository" style="stroke:#181818;stroke-width:1.0;stroke-dasharray:7.0,7.0;"/><polygon fill="#181818" points="393.5,682.96,397.5,673.96,393.5,677.96,389.5,673.96,393.5,682.96" style="stroke:#181818;stroke-width:1.0;"/></g><!--SRC=[jLPRRzCm57xFhx3wb6hDr04IeXgTUXj4shgAWNX49dLNYzI9x9Ef4_3VSHCxTNmPbM1HN-Bp-NpdVEUIPZaM0jrdd10sfwBCyHFw6I7vdAdNUy0SlfGD9EwFq6D1rz7lAChggxDAGB4ZNDrAhYaNiCGxCa82E6KFpV4DzfqkCT22uJoTBwlTTyAxrjMsOCHdc6CWTvifvR3L1lGUzIxUlHqcmmlvwqLD2ZguU6D7DK0vjaz2qGoG9n8jHCrpNUNvmTSfFFqsbrR3nHu8byIsblPvEk_geErJp7wuuchh9CkAYe5nkGdQzlwF8jLEFK8D40ccSRJPAGnGC7od1LFcbyy-j-MRuXopJ5AkIKPtE9SzD6miCypNgtHfDjTGFhsZjPkZ1fYF0LxiIygV3brhNdWrVFr6jsiBbTC6bJ1XAvaYVIIwfUsaNgngDAYUKu2xyk3z8sRhl5N_x0E1MqnPipTILbOGsusWRenGQfsux65epKRs52QVRrlKelC-GC9SSAFklZFIgLatE2CEZRKKjLLjnUVf7RqMVXt-AqVANep3T71JFEWQnwOzaULlEqSL_rJVIUtqAuNjSTBYlrKuKsIVI5a82WMNPPuvPnsQIGLRme1cSZ3RSJhDZ-IJeSq9O9gBnK5giXwX6ohWifcHiMIoIt3bVZMF7lNIGjye4z3i9HTr9JS2an-RfWQI8GnL49sFKE5fu5ZPPq6xYiVr7FVDLZRBeBjBdPh_5jhbVFahIPm9iCosSb7apAFNZJ86q86HYABk_Ze_7plZxu5qTeWdm0EcgquKcdiFD3I-7gWRcWLurfcdSVu0]--></g></svg>