<?xml version="1.0" encoding="us-ascii" standalone="no"?><svg xmlns="http://www.w3.org/2000/svg" xmlns:xlink="http://www.w3.org/1999/xlink" contentStyleType="text/css" height="702px" preserveAspectRatio="none" style="width:2345px;height:702px;background:#FFFFFF;" version="1.1" viewBox="0 0 2345 702" width="2345px" zoomAndPan="magnify"><defs/><g><!--class ScreenDisplay--><g id="elem_ScreenDisplay"><rect codeLine="2" fill="#F1F1F1" height="65.6094" id="ScreenDisplay" rx="2.5" ry="2.5" style="stroke:#181818;stroke-width:0.5;" width="208" x="238.5" y="299.5"/><ellipse cx="292.75" cy="315.5" fill="#ADD1B2" rx="11" ry="11" style="stroke:#181818;stroke-width:1.0;"/><path d="M295.5156,311.375 Q295.6719,311.1563 295.8594,311.0469 Q296.0469,310.9375 296.2656,310.9375 Q296.6406,310.9375 296.875,311.1953 Q297.1094,311.4531 297.1094,312.0625 L297.1094,313.5156 Q297.1094,314.125 296.875,314.3906 Q296.6406,314.6563 296.2656,314.6563 Q295.9219,314.6563 295.7188,314.4531 Q295.5156,314.2656 295.4063,313.75 Q295.3594,313.3906 295.1719,313.2031 Q294.8438,312.8281 294.2344,312.6094 Q293.625,312.3906 293,312.3906 Q292.2344,312.3906 291.6016,312.7188 Q290.9688,313.0469 290.4766,313.7969 Q289.9844,314.5469 289.9844,315.5781 L289.9844,316.6719 Q289.9844,317.9063 290.875,318.7266 Q291.7656,319.5469 293.3594,319.5469 Q294.2969,319.5469 294.9531,319.2969 Q295.3438,319.1406 295.7656,318.7031 Q296.0313,318.4375 296.1797,318.3594 Q296.3281,318.2813 296.5313,318.2813 Q296.8594,318.2813 297.1172,318.5391 Q297.375,318.7969 297.375,319.1406 Q297.375,319.4844 297.0313,319.8906 Q296.5313,320.4688 295.7344,320.7969 Q294.6563,321.25 293.3594,321.25 Q291.8438,321.25 290.6406,320.625 Q289.6563,320.125 288.9688,319.0547 Q288.2813,317.9844 288.2813,316.7031 L288.2813,315.5469 Q288.2813,314.2188 288.8984,313.0703 Q289.5156,311.9219 290.6094,311.3047 Q291.7031,310.6875 292.9375,310.6875 Q293.6719,310.6875 294.3203,310.8516 Q294.9688,311.0156 295.5156,311.375 Z " fill="#000000"/><text fill="#000000" font-family="sans-serif" font-size="14" lengthAdjust="spacing" textLength="91" x="313.25" y="321.2285">ScreenDisplay</text><line style="stroke:#181818;stroke-width:0.5;" x1="239.5" x2="445.5" y1="331.5" y2="331.5"/><line style="stroke:#181818;stroke-width:0.5;" x1="239.5" x2="445.5" y1="339.5" y2="339.5"/><ellipse cx="249.5" cy="353.8047" fill="#84BE84" rx="3" ry="3" style="stroke:#038048;stroke-width:1.0;"/><text fill="#000000" font-family="sans-serif" font-size="14" lengthAdjust="spacing" textLength="182" x="258.5" y="358.0332">DisplayStartUpScreen(): void</text></g><!--class Customer--><g id="elem_Customer"><rect codeLine="6" fill="#F1F1F1" height="171.2656" id="Customer" rx="2.5" ry="2.5" style="stroke:#181818;stroke-width:0.5;" width="647" x="1432" y="7"/><ellipse cx="1720.75" cy="23" fill="#ADD1B2" rx="11" ry="11" style="stroke:#181818;stroke-width:1.0;"/><path d="M1723.5156,18.875 Q1723.6719,18.6563 1723.8594,18.5469 Q1724.0469,18.4375 1724.2656,18.4375 Q1724.6406,18.4375 1724.875,18.6953 Q1725.1094,18.9531 1725.1094,19.5625 L1725.1094,21.0156 Q1725.1094,21.625 1724.875,21.8906 Q1724.6406,22.1563 1724.2656,22.1563 Q1723.9219,22.1563 1723.7188,21.9531 Q1723.5156,21.7656 1723.4063,21.25 Q1723.3594,20.8906 1723.1719,20.7031 Q1722.8438,20.3281 1722.2344,20.1094 Q1721.625,19.8906 1721,19.8906 Q1720.2344,19.8906 1719.6016,20.2188 Q1718.9688,20.5469 1718.4766,21.2969 Q1717.9844,22.0469 1717.9844,23.0781 L1717.9844,24.1719 Q1717.9844,25.4063 1718.875,26.2266 Q1719.7656,27.0469 1721.3594,27.0469 Q1722.2969,27.0469 1722.9531,26.7969 Q1723.3438,26.6406 1723.7656,26.2031 Q1724.0313,25.9375 1724.1797,25.8594 Q1724.3281,25.7813 1724.5313,25.7813 Q1724.8594,25.7813 1725.1172,26.0391 Q1725.375,26.2969 1725.375,26.6406 Q1725.375,26.9844 1725.0313,27.3906 Q1724.5313,27.9688 1723.7344,28.2969 Q1722.6563,28.75 1721.3594,28.75 Q1719.8438,28.75 1718.6406,28.125 Q1717.6563,27.625 1716.9688,26.5547 Q1716.2813,25.4844 1716.2813,24.2031 L1716.2813,23.0469 Q1716.2813,21.7188 1716.8984,20.5703 Q1717.5156,19.4219 1718.6094,18.8047 Q1719.7031,18.1875 1720.9375,18.1875 Q1721.6719,18.1875 1722.3203,18.3516 Q1722.9688,18.5156 1723.5156,18.875 Z " fill="#000000"/><text fill="#000000" font-family="sans-serif" font-size="14" lengthAdjust="spacing" textLength="61" x="1741.25" y="28.7285">Customer</text><line style="stroke:#181818;stroke-width:0.5;" x1="1433" x2="2078" y1="39" y2="39"/><rect fill="none" height="6" style="stroke:#C82930;stroke-width:1.0;" width="6" x="1440" y="50.3047"/><text fill="#000000" font-family="sans-serif" font-size="14" lengthAdjust="spacing" textLength="107" x="1452" y="57.5332">FirstName: string</text><rect fill="none" height="6" style="stroke:#C82930;stroke-width:1.0;" width="6" x="1440" y="67.9141"/><text fill="#000000" font-family="sans-serif" font-size="14" lengthAdjust="spacing" textLength="106" x="1452" y="75.1426">LastName: string</text><rect fill="none" height="6" style="stroke:#C82930;stroke-width:1.0;" width="6" x="1440" y="85.5234"/><text fill="#000000" font-family="sans-serif" font-size="14" lengthAdjust="spacing" textLength="156" x="1452" y="92.752">NationalIDNumber: string</text><rect fill="none" height="6" style="stroke:#C82930;stroke-width:1.0;" width="6" x="1440" y="103.1328"/><text fill="#000000" font-family="sans-serif" font-size="14" lengthAdjust="spacing" textLength="133" x="1452" y="110.3613">PhoneNumber: string</text><rect fill="none" height="6" style="stroke:#C82930;stroke-width:1.0;" width="6" x="1440" y="120.7422"/><text fill="#000000" font-family="sans-serif" font-size="14" lengthAdjust="spacing" textLength="217" x="1452" y="127.9707">DateOfBirth: string = "1970-01-01"</text><line style="stroke:#181818;stroke-width:0.5;" x1="1433" x2="2078" y1="135.0469" y2="135.0469"/><ellipse cx="1443" cy="149.3516" fill="#84BE84" rx="3" ry="3" style="stroke:#038048;stroke-width:1.0;"/><text fill="#000000" font-family="sans-serif" font-size="14" lengthAdjust="spacing" textLength="621" x="1452" y="153.5801">Customer(firstName: string, lastName: string, NationalIDNumber: string, PhoneNumber: string): void</text><ellipse cx="1443" cy="166.9609" fill="#84BE84" rx="3" ry="3" style="stroke:#038048;stroke-width:1.0;"/><text fill="#000000" font-family="sans-serif" font-size="14" lengthAdjust="spacing" textLength="323" x="1452" y="171.1895">FullName(firstName: string, lastName: string): string</text></g><!--class ExternalCustomer--><g id="elem_ExternalCustomer"><rect codeLine="17" fill="#F1F1F1" height="136.0469" id="ExternalCustomer" rx="2.5" ry="2.5" style="stroke:#181818;stroke-width:0.5;" width="708" x="1077.5" y="264.5"/><ellipse cx="1371.25" cy="280.5" fill="#ADD1B2" rx="11" ry="11" style="stroke:#181818;stroke-width:1.0;"/><path d="M1374.0156,276.375 Q1374.1719,276.1563 1374.3594,276.0469 Q1374.5469,275.9375 1374.7656,275.9375 Q1375.1406,275.9375 1375.375,276.1953 Q1375.6094,276.4531 1375.6094,277.0625 L1375.6094,278.5156 Q1375.6094,279.125 1375.375,279.3906 Q1375.1406,279.6563 1374.7656,279.6563 Q1374.4219,279.6563 1374.2188,279.4531 Q1374.0156,279.2656 1373.9063,278.75 Q1373.8594,278.3906 1373.6719,278.2031 Q1373.3438,277.8281 1372.7344,277.6094 Q1372.125,277.3906 1371.5,277.3906 Q1370.7344,277.3906 1370.1016,277.7188 Q1369.4688,278.0469 1368.9766,278.7969 Q1368.4844,279.5469 1368.4844,280.5781 L1368.4844,281.6719 Q1368.4844,282.9063 1369.375,283.7266 Q1370.2656,284.5469 1371.8594,284.5469 Q1372.7969,284.5469 1373.4531,284.2969 Q1373.8438,284.1406 1374.2656,283.7031 Q1374.5313,283.4375 1374.6797,283.3594 Q1374.8281,283.2813 1375.0313,283.2813 Q1375.3594,283.2813 1375.6172,283.5391 Q1375.875,283.7969 1375.875,284.1406 Q1375.875,284.4844 1375.5313,284.8906 Q1375.0313,285.4688 1374.2344,285.7969 Q1373.1563,286.25 1371.8594,286.25 Q1370.3438,286.25 1369.1406,285.625 Q1368.1563,285.125 1367.4688,284.0547 Q1366.7813,282.9844 1366.7813,281.7031 L1366.7813,280.5469 Q1366.7813,279.2188 1367.3984,278.0703 Q1368.0156,276.9219 1369.1094,276.3047 Q1370.2031,275.6875 1371.4375,275.6875 Q1372.1719,275.6875 1372.8203,275.8516 Q1373.4688,276.0156 1374.0156,276.375 Z " fill="#000000"/><text fill="#000000" font-family="sans-serif" font-size="14" lengthAdjust="spacing" textLength="112" x="1391.75" y="286.2285">ExternalCustomer</text><line style="stroke:#181818;stroke-width:0.5;" x1="1078.5" x2="1784.5" y1="296.5" y2="296.5"/><rect fill="none" height="6" style="stroke:#C82930;stroke-width:1.0;" width="6" x="1085.5" y="307.8047"/><text fill="#000000" font-family="sans-serif" font-size="14" lengthAdjust="spacing" textLength="168" x="1097.5" y="315.0332">ExternalCustomerID: string</text><rect fill="none" height="6" style="stroke:#C82930;stroke-width:1.0;" width="6" x="1085.5" y="325.4141"/><text fill="#000000" font-family="sans-serif" font-size="14" lengthAdjust="spacing" textLength="162" x="1097.5" y="332.6426">ExternalBankName: string</text><rect fill="none" height="6" style="stroke:#C82930;stroke-width:1.0;" width="6" x="1085.5" y="343.0234"/><text fill="#000000" font-family="sans-serif" font-size="14" lengthAdjust="spacing" textLength="158" x="1097.5" y="350.252">ExternalAccountID: string</text><line style="stroke:#181818;stroke-width:0.5;" x1="1078.5" x2="1784.5" y1="357.3281" y2="357.3281"/><ellipse cx="1088.5" cy="371.6328" fill="#84BE84" rx="3" ry="3" style="stroke:#038048;stroke-width:1.0;"/><text fill="#000000" font-family="sans-serif" font-size="14" lengthAdjust="spacing" textLength="496" x="1097.5" y="375.8613">ExternalCustomer(firstName: string, lastName: string, NationalIDNumber: string,</text><text fill="#000000" font-family="sans-serif" font-size="14" lengthAdjust="spacing" textLength="682" x="1097.5" y="393.4707">PhoneNumber: string, externalCustomerID: string, externalBankName: string, ExternalAccountID: string): void</text></g><!--class InternalCustomer--><g id="elem_InternalCustomer"><rect codeLine="26" fill="#F1F1F1" height="188.875" id="InternalCustomer" rx="2.5" ry="2.5" style="stroke:#181818;stroke-width:0.5;" width="518" x="1820.5" y="238"/><ellipse cx="2021.25" cy="254" fill="#ADD1B2" rx="11" ry="11" style="stroke:#181818;stroke-width:1.0;"/><path d="M2024.0156,249.875 Q2024.1719,249.6563 2024.3594,249.5469 Q2024.5469,249.4375 2024.7656,249.4375 Q2025.1406,249.4375 2025.375,249.6953 Q2025.6094,249.9531 2025.6094,250.5625 L2025.6094,252.0156 Q2025.6094,252.625 2025.375,252.8906 Q2025.1406,253.1563 2024.7656,253.1563 Q2024.4219,253.1563 2024.2188,252.9531 Q2024.0156,252.7656 2023.9063,252.25 Q2023.8594,251.8906 2023.6719,251.7031 Q2023.3438,251.3281 2022.7344,251.1094 Q2022.125,250.8906 2021.5,250.8906 Q2020.7344,250.8906 2020.1016,251.2188 Q2019.4688,251.5469 2018.9766,252.2969 Q2018.4844,253.0469 2018.4844,254.0781 L2018.4844,255.1719 Q2018.4844,256.4063 2019.375,257.2266 Q2020.2656,258.0469 2021.8594,258.0469 Q2022.7969,258.0469 2023.4531,257.7969 Q2023.8438,257.6406 2024.2656,257.2031 Q2024.5313,256.9375 2024.6797,256.8594 Q2024.8281,256.7813 2025.0313,256.7813 Q2025.3594,256.7813 2025.6172,257.0391 Q2025.875,257.2969 2025.875,257.6406 Q2025.875,257.9844 2025.5313,258.3906 Q2025.0313,258.9688 2024.2344,259.2969 Q2023.1563,259.75 2021.8594,259.75 Q2020.3438,259.75 2019.1406,259.125 Q2018.1563,258.625 2017.4688,257.5547 Q2016.7813,256.4844 2016.7813,255.2031 L2016.7813,254.0469 Q2016.7813,252.7188 2017.3984,251.5703 Q2018.0156,250.4219 2019.1094,249.8047 Q2020.2031,249.1875 2021.4375,249.1875 Q2022.1719,249.1875 2022.8203,249.3516 Q2023.4688,249.5156 2024.0156,249.875 Z " fill="#000000"/><text fill="#000000" font-family="sans-serif" font-size="14" lengthAdjust="spacing" textLength="108" x="2041.75" y="259.7285">InternalCustomer</text><line style="stroke:#181818;stroke-width:0.5;" x1="1821.5" x2="2337.5" y1="270" y2="270"/><rect fill="none" height="6" style="stroke:#C82930;stroke-width:1.0;" width="6" x="1828.5" y="281.3047"/><text fill="#000000" font-family="sans-serif" font-size="14" lengthAdjust="spacing" textLength="164" x="1840.5" y="288.5332">InternalCustomerID: string</text><rect fill="none" height="6" style="stroke:#C82930;stroke-width:1.0;" width="6" x="1828.5" y="298.9141"/><text fill="#000000" font-family="sans-serif" font-size="14" lengthAdjust="spacing" textLength="131" x="1840.5" y="306.1426">Balance: decimal = 0</text><rect fill="none" height="6" style="stroke:#C82930;stroke-width:1.0;" width="6" x="1828.5" y="316.5234"/><text fill="#000000" font-family="sans-serif" font-size="14" lengthAdjust="spacing" textLength="153" x="1840.5" y="323.752">CardPIN: string = "0000"</text><rect fill="none" height="6" style="stroke:#C82930;stroke-width:1.0;" width="6" x="1828.5" y="334.1328"/><text fill="#000000" font-family="sans-serif" font-size="14" lengthAdjust="spacing" textLength="277" x="1840.5" y="341.3613">CardNumber: string = "0000000000000000"</text><rect fill="none" height="6" style="stroke:#C82930;stroke-width:1.0;" width="6" x="1828.5" y="351.7422"/><text fill="#000000" font-family="sans-serif" font-size="14" lengthAdjust="spacing" textLength="242" x="1840.5" y="358.9707">CardExpiryDate: string = "2034-01-01"</text><rect fill="none" height="6" style="stroke:#C82930;stroke-width:1.0;" width="6" x="1828.5" y="369.3516"/><text fill="#000000" font-family="sans-serif" font-size="14" lengthAdjust="spacing" textLength="189" x="1840.5" y="376.5801">CardStatus: string = "Passive"</text><line style="stroke:#181818;stroke-width:0.5;" x1="1821.5" x2="2337.5" y1="383.6563" y2="383.6563"/><ellipse cx="1831.5" cy="397.9609" fill="#84BE84" rx="3" ry="3" style="stroke:#038048;stroke-width:1.0;"/><text fill="#000000" font-family="sans-serif" font-size="14" lengthAdjust="spacing" textLength="492" x="1840.5" y="402.1895">InternalCustomer(firstName: string, lastName: string, NationalIDNumber: string,</text><text fill="#000000" font-family="sans-serif" font-size="14" lengthAdjust="spacing" textLength="344" x="1840.5" y="419.7988">PhoneNumber: string, internalCustomerID: string): void</text></g><!--class OptionHandler--><g id="elem_OptionHandler"><rect codeLine="38" fill="#F1F1F1" height="83.2188" id="OptionHandler" rx="2.5" ry="2.5" style="stroke:#181818;stroke-width:0.5;" width="731" x="331" y="51"/><ellipse cx="646.75" cy="67" fill="#ADD1B2" rx="11" ry="11" style="stroke:#181818;stroke-width:1.0;"/><path d="M649.5156,62.875 Q649.6719,62.6563 649.8594,62.5469 Q650.0469,62.4375 650.2656,62.4375 Q650.6406,62.4375 650.875,62.6953 Q651.1094,62.9531 651.1094,63.5625 L651.1094,65.0156 Q651.1094,65.625 650.875,65.8906 Q650.6406,66.1563 650.2656,66.1563 Q649.9219,66.1563 649.7188,65.9531 Q649.5156,65.7656 649.4063,65.25 Q649.3594,64.8906 649.1719,64.7031 Q648.8438,64.3281 648.2344,64.1094 Q647.625,63.8906 647,63.8906 Q646.2344,63.8906 645.6016,64.2188 Q644.9688,64.5469 644.4766,65.2969 Q643.9844,66.0469 643.9844,67.0781 L643.9844,68.1719 Q643.9844,69.4063 644.875,70.2266 Q645.7656,71.0469 647.3594,71.0469 Q648.2969,71.0469 648.9531,70.7969 Q649.3438,70.6406 649.7656,70.2031 Q650.0313,69.9375 650.1797,69.8594 Q650.3281,69.7813 650.5313,69.7813 Q650.8594,69.7813 651.1172,70.0391 Q651.375,70.2969 651.375,70.6406 Q651.375,70.9844 651.0313,71.3906 Q650.5313,71.9688 649.7344,72.2969 Q648.6563,72.75 647.3594,72.75 Q645.8438,72.75 644.6406,72.125 Q643.6563,71.625 642.9688,70.5547 Q642.2813,69.4844 642.2813,68.2031 L642.2813,67.0469 Q642.2813,65.7188 642.8984,64.5703 Q643.5156,63.4219 644.6094,62.8047 Q645.7031,62.1875 646.9375,62.1875 Q647.6719,62.1875 648.3203,62.3516 Q648.9688,62.5156 649.5156,62.875 Z " fill="#000000"/><text fill="#000000" font-family="sans-serif" font-size="14" lengthAdjust="spacing" textLength="91" x="667.25" y="72.7285">OptionHandler</text><line style="stroke:#181818;stroke-width:0.5;" x1="332" x2="1061" y1="83" y2="83"/><line style="stroke:#181818;stroke-width:0.5;" x1="332" x2="1061" y1="91" y2="91"/><ellipse cx="342" cy="105.3047" fill="#84BE84" rx="3" ry="3" style="stroke:#038048;stroke-width:1.0;"/><text fill="#000000" font-family="sans-serif" font-size="14" lengthAdjust="spacing" textLength="705" x="351" y="109.5332">GetMainScreenInput(externalCustomerHandler: ICustomerHandler, internalCustomerHandler: ICustomerHandler,</text><text fill="#000000" font-family="sans-serif" font-size="14" lengthAdjust="spacing" textLength="442" x="351" y="127.1426">exitATMHandler: ExitATMHandler, screenDisplay: ScreenDisplay): void</text></g><!--class ICustomerHandler--><g id="elem_ICustomerHandler"><rect codeLine="43" fill="#F1F1F1" height="65.6094" id="ICustomerHandler" rx="2.5" ry="2.5" style="stroke:#181818;stroke-width:0.5;" width="429" x="482" y="299.5"/><ellipse cx="634.75" cy="315.5" fill="#B4A7E5" rx="11" ry="11" style="stroke:#181818;stroke-width:1.0;"/><path d="M635.7031,312.1406 L635.7031,318.7969 L637.4219,318.7969 Q638.0313,318.7969 638.2969,319.0313 Q638.5625,319.2656 638.5625,319.6563 Q638.5625,320.0313 638.2969,320.2656 Q638.0313,320.5 637.4219,320.5 L632.2813,320.5 Q631.6719,320.5 631.4063,320.2656 Q631.1406,320.0313 631.1406,319.6406 Q631.1406,319.2656 631.4063,319.0313 Q631.6719,318.7969 632.2813,318.7969 L634,318.7969 L634,312.1406 L632.2813,312.1406 Q631.6719,312.1406 631.4063,311.9063 Q631.1406,311.6719 631.1406,311.2813 Q631.1406,310.9063 631.4063,310.6719 Q631.6719,310.4375 632.2813,310.4375 L637.4219,310.4375 Q638.0313,310.4375 638.2969,310.6719 Q638.5625,310.9063 638.5625,311.2813 Q638.5625,311.6719 638.2969,311.9063 Q638.0313,312.1406 637.4219,312.1406 L635.7031,312.1406 Z " fill="#000000"/><text fill="#000000" font-family="sans-serif" font-size="14" font-style="italic" lengthAdjust="spacing" textLength="115" x="655.25" y="321.2285">ICustomerHandler</text><line style="stroke:#181818;stroke-width:0.5;" x1="483" x2="910" y1="331.5" y2="331.5"/><line style="stroke:#181818;stroke-width:0.5;" x1="483" x2="910" y1="339.5" y2="339.5"/><ellipse cx="493" cy="353.8047" fill="#84BE84" rx="3" ry="3" style="stroke:#038048;stroke-width:1.0;"/><text fill="#000000" font-family="sans-serif" font-size="14" lengthAdjust="spacing" textLength="403" x="502" y="358.0332">DisplayCustomerScreen(exitATMHandler: ExitATMHandler): void</text></g><!--class ExternalCustomerHandler--><g id="elem_ExternalCustomerHandler"><rect codeLine="47" fill="#F1F1F1" height="65.6094" id="ExternalCustomerHandler" rx="2.5" ry="2.5" style="stroke:#181818;stroke-width:0.5;" width="429" x="7" y="495.5"/><ellipse cx="136.75" cy="511.5" fill="#ADD1B2" rx="11" ry="11" style="stroke:#181818;stroke-width:1.0;"/><path d="M139.5156,507.375 Q139.6719,507.1563 139.8594,507.0469 Q140.0469,506.9375 140.2656,506.9375 Q140.6406,506.9375 140.875,507.1953 Q141.1094,507.4531 141.1094,508.0625 L141.1094,509.5156 Q141.1094,510.125 140.875,510.3906 Q140.6406,510.6563 140.2656,510.6563 Q139.9219,510.6563 139.7188,510.4531 Q139.5156,510.2656 139.4063,509.75 Q139.3594,509.3906 139.1719,509.2031 Q138.8438,508.8281 138.2344,508.6094 Q137.625,508.3906 137,508.3906 Q136.2344,508.3906 135.6016,508.7188 Q134.9688,509.0469 134.4766,509.7969 Q133.9844,510.5469 133.9844,511.5781 L133.9844,512.6719 Q133.9844,513.9063 134.875,514.7266 Q135.7656,515.5469 137.3594,515.5469 Q138.2969,515.5469 138.9531,515.2969 Q139.3438,515.1406 139.7656,514.7031 Q140.0313,514.4375 140.1797,514.3594 Q140.3281,514.2813 140.5313,514.2813 Q140.8594,514.2813 141.1172,514.5391 Q141.375,514.7969 141.375,515.1406 Q141.375,515.4844 141.0313,515.8906 Q140.5313,516.4688 139.7344,516.7969 Q138.6563,517.25 137.3594,517.25 Q135.8438,517.25 134.6406,516.625 Q133.6563,516.125 132.9688,515.0547 Q132.2813,513.9844 132.2813,512.7031 L132.2813,511.5469 Q132.2813,510.2188 132.8984,509.0703 Q133.5156,507.9219 134.6094,507.3047 Q135.7031,506.6875 136.9375,506.6875 Q137.6719,506.6875 138.3203,506.8516 Q138.9688,507.0156 139.5156,507.375 Z " fill="#000000"/><text fill="#000000" font-family="sans-serif" font-size="14" lengthAdjust="spacing" textLength="161" x="157.25" y="517.2285">ExternalCustomerHandler</text><line style="stroke:#181818;stroke-width:0.5;" x1="8" x2="435" y1="527.5" y2="527.5"/><line style="stroke:#181818;stroke-width:0.5;" x1="8" x2="435" y1="535.5" y2="535.5"/><ellipse cx="18" cy="549.8047" fill="#84BE84" rx="3" ry="3" style="stroke:#038048;stroke-width:1.0;"/><text fill="#000000" font-family="sans-serif" font-size="14" lengthAdjust="spacing" textLength="403" x="27" y="554.0332">DisplayCustomerScreen(exitATMHandler: ExitATMHandler): void</text></g><!--class InternalCustomerHandler--><g id="elem_InternalCustomerHandler"><rect codeLine="51" fill="#F1F1F1" height="83.2188" id="InternalCustomerHandler" rx="2.5" ry="2.5" style="stroke:#181818;stroke-width:0.5;" width="429" x="471" y="487"/><ellipse cx="602.75" cy="503" fill="#ADD1B2" rx="11" ry="11" style="stroke:#181818;stroke-width:1.0;"/><path d="M605.5156,498.875 Q605.6719,498.6563 605.8594,498.5469 Q606.0469,498.4375 606.2656,498.4375 Q606.6406,498.4375 606.875,498.6953 Q607.1094,498.9531 607.1094,499.5625 L607.1094,501.0156 Q607.1094,501.625 606.875,501.8906 Q606.6406,502.1563 606.2656,502.1563 Q605.9219,502.1563 605.7188,501.9531 Q605.5156,501.7656 605.4063,501.25 Q605.3594,500.8906 605.1719,500.7031 Q604.8438,500.3281 604.2344,500.1094 Q603.625,499.8906 603,499.8906 Q602.2344,499.8906 601.6016,500.2188 Q600.9688,500.5469 600.4766,501.2969 Q599.9844,502.0469 599.9844,503.0781 L599.9844,504.1719 Q599.9844,505.4063 600.875,506.2266 Q601.7656,507.0469 603.3594,507.0469 Q604.2969,507.0469 604.9531,506.7969 Q605.3438,506.6406 605.7656,506.2031 Q606.0313,505.9375 606.1797,505.8594 Q606.3281,505.7813 606.5313,505.7813 Q606.8594,505.7813 607.1172,506.0391 Q607.375,506.2969 607.375,506.6406 Q607.375,506.9844 607.0313,507.3906 Q606.5313,507.9688 605.7344,508.2969 Q604.6563,508.75 603.3594,508.75 Q601.8438,508.75 600.6406,508.125 Q599.6563,507.625 598.9688,506.5547 Q598.2813,505.4844 598.2813,504.2031 L598.2813,503.0469 Q598.2813,501.7188 598.8984,500.5703 Q599.5156,499.4219 600.6094,498.8047 Q601.7031,498.1875 602.9375,498.1875 Q603.6719,498.1875 604.3203,498.3516 Q604.9688,498.5156 605.5156,498.875 Z " fill="#000000"/><text fill="#000000" font-family="sans-serif" font-size="14" lengthAdjust="spacing" textLength="157" x="623.25" y="508.7285">InternalCustomerHandler</text><line style="stroke:#181818;stroke-width:0.5;" x1="472" x2="899" y1="519" y2="519"/><line style="stroke:#181818;stroke-width:0.5;" x1="472" x2="899" y1="527" y2="527"/><ellipse cx="482" cy="541.3047" fill="#84BE84" rx="3" ry="3" style="stroke:#038048;stroke-width:1.0;"/><text fill="#000000" font-family="sans-serif" font-size="14" lengthAdjust="spacing" textLength="403" x="491" y="545.5332">DisplayCustomerScreen(exitATMHandler: ExitATMHandler): void</text><rect fill="#F24D5C" height="6" style="stroke:#C82930;stroke-width:1.0;" width="6" x="479" y="555.9141"/><text fill="#000000" font-family="sans-serif" font-size="14" lengthAdjust="spacing" textLength="366" x="491" y="563.1426">GetCustomerInput(exitATMHandler: ExitATMHandler): void</text></g><!--class ExitATMHandler--><g id="elem_ExitATMHandler"><rect codeLine="56" fill="#F1F1F1" height="65.6094" id="ExitATMHandler" rx="2.5" ry="2.5" style="stroke:#181818;stroke-width:0.5;" width="132" x="753.5" y="630"/><ellipse cx="768.5" cy="646" fill="#ADD1B2" rx="11" ry="11" style="stroke:#181818;stroke-width:1.0;"/><path d="M771.2656,641.875 Q771.4219,641.6563 771.6094,641.5469 Q771.7969,641.4375 772.0156,641.4375 Q772.3906,641.4375 772.625,641.6953 Q772.8594,641.9531 772.8594,642.5625 L772.8594,644.0156 Q772.8594,644.625 772.625,644.8906 Q772.3906,645.1563 772.0156,645.1563 Q771.6719,645.1563 771.4688,644.9531 Q771.2656,644.7656 771.1563,644.25 Q771.1094,643.8906 770.9219,643.7031 Q770.5938,643.3281 769.9844,643.1094 Q769.375,642.8906 768.75,642.8906 Q767.9844,642.8906 767.3516,643.2188 Q766.7188,643.5469 766.2266,644.2969 Q765.7344,645.0469 765.7344,646.0781 L765.7344,647.1719 Q765.7344,648.4063 766.625,649.2266 Q767.5156,650.0469 769.1094,650.0469 Q770.0469,650.0469 770.7031,649.7969 Q771.0938,649.6406 771.5156,649.2031 Q771.7813,648.9375 771.9297,648.8594 Q772.0781,648.7813 772.2813,648.7813 Q772.6094,648.7813 772.8672,649.0391 Q773.125,649.2969 773.125,649.6406 Q773.125,649.9844 772.7813,650.3906 Q772.2813,650.9688 771.4844,651.2969 Q770.4063,651.75 769.1094,651.75 Q767.5938,651.75 766.3906,651.125 Q765.4063,650.625 764.7188,649.5547 Q764.0313,648.4844 764.0313,647.2031 L764.0313,646.0469 Q764.0313,644.7188 764.6484,643.5703 Q765.2656,642.4219 766.3594,641.8047 Q767.4531,641.1875 768.6875,641.1875 Q769.4219,641.1875 770.0703,641.3516 Q770.7188,641.5156 771.2656,641.875 Z " fill="#000000"/><text fill="#000000" font-family="sans-serif" font-size="14" lengthAdjust="spacing" textLength="100" x="782.5" y="651.7285">ExitATMHandler</text><line style="stroke:#181818;stroke-width:0.5;" x1="754.5" x2="884.5" y1="662" y2="662"/><line style="stroke:#181818;stroke-width:0.5;" x1="754.5" x2="884.5" y1="670" y2="670"/><ellipse cx="764.5" cy="684.3047" fill="#84BE84" rx="3" ry="3" style="stroke:#038048;stroke-width:1.0;"/><text fill="#000000" font-family="sans-serif" font-size="14" lengthAdjust="spacing" textLength="95" x="773.5" y="688.5332">ExitATM(): void</text></g><!--reverse link Customer to ExternalCustomer--><g id="link_Customer_ExternalCustomer"><path codeLine="60" d="M1625.8542,188.7374 C1587.2942,217.0674 1559.36,237.58 1522.87,264.38 " fill="none" id="Customer-backto-ExternalCustomer" style="stroke:#181818;stroke-width:1.0;"/><polygon fill="none" points="1640.36,178.08,1622.3017,183.9021,1629.4066,193.5727,1640.36,178.08" style="stroke:#181818;stroke-width:1.0;"/></g><!--reverse link Customer to InternalCustomer--><g id="link_Customer_InternalCustomer"><path codeLine="61" d="M1885.1488,188.7334 C1911.5288,208.1034 1925.2,218.16 1952.06,237.89 " fill="none" id="Customer-backto-InternalCustomer" style="stroke:#181818;stroke-width:1.0;"/><polygon fill="none" points="1870.64,178.08,1881.5977,193.5696,1888.6999,183.8971,1870.64,178.08" style="stroke:#181818;stroke-width:1.0;"/></g><!--reverse link ICustomerHandler to ExternalCustomerHandler--><g id="link_ICustomerHandler_ExternalCustomerHandler"><path codeLine="63" d="M601.3959,372.345 C513.3859,408.285 388.11,459.45 300.05,495.42 " fill="none" id="ICustomerHandler-backto-ExternalCustomerHandler" style="stroke:#181818;stroke-width:1.0;"/><polygon fill="none" points="618.06,365.54,599.1276,366.7903,603.6642,377.8997,618.06,365.54" style="stroke:#181818;stroke-width:1.0;"/></g><!--reverse link ICustomerHandler to InternalCustomerHandler--><g id="link_ICustomerHandler_InternalCustomerHandler"><path codeLine="64" d="M693.6639,383.5113 C691.7839,416.7613 689.84,450.9 687.8,486.99 " fill="none" id="ICustomerHandler-backto-InternalCustomerHandler" style="stroke:#181818;stroke-width:1.0;"/><polygon fill="none" points="694.68,365.54,687.6734,383.1726,699.6543,383.85,694.68,365.54" style="stroke:#181818;stroke-width:1.0;"/></g><!--link OptionHandler to ICustomerHandler--><g id="link_OptionHandler_ICustomerHandler"><path codeLine="66" d="M696.5,134.14 C696.5,180.88 696.5,250.63 696.5,293.42 " fill="none" id="OptionHandler-to-ICustomerHandler" style="stroke:#181818;stroke-width:1.0;"/><polygon fill="#181818" points="696.5,299.42,700.5,290.42,696.5,294.42,692.5,290.42,696.5,299.42" style="stroke:#181818;stroke-width:1.0;"/></g><!--link OptionHandler to ScreenDisplay--><g id="link_OptionHandler_ScreenDisplay"><path codeLine="67" d="M627.62,134 C580.87,162.08 518.05,200.93 464.5,238 C436.41,257.44 410.6211,277.1045 387.1511,295.6145 " fill="none" id="OptionHandler-to-ScreenDisplay" style="stroke:#181818;stroke-width:1.0;"/><polygon fill="#181818" points="382.44,299.33,391.9837,296.8975,386.366,296.2337,387.0297,290.616,382.44,299.33" style="stroke:#181818;stroke-width:1.0;"/></g><!--link ICustomerHandler to ExitATMHandler--><g id="link_ICustomerHandler_ExitATMHandler"><path codeLine="69" d="M776.42,365.54 C826.86,390.46 887.89,430.39 917.5,487 C934.6,519.69 932.15,536.15 917.5,570 C907.16,593.88 891.9002,610.6308 872.7002,626.2008 " fill="none" id="ICustomerHandler-to-ExitATMHandler" style="stroke:#181818;stroke-width:1.0;"/><polygon fill="#181818" points="868.04,629.98,877.5498,627.4181,871.9235,626.8307,872.5109,621.2044,868.04,629.98" style="stroke:#181818;stroke-width:1.0;"/></g><!--link ExternalCustomerHandler to ExitATMHandler--><g id="link_ExternalCustomerHandler_ExitATMHandler"><path codeLine="70" d="M366.26,561.57 C489.32,588.84 654.5122,625.4417 747.3222,646.0117 " fill="none" id="ExternalCustomerHandler-to-ExitATMHandler" style="stroke:#181818;stroke-width:1.0;"/><polygon fill="#181818" points="753.18,647.31,745.2588,641.4573,748.2985,646.2281,743.5277,649.2678,753.18,647.31" style="stroke:#181818;stroke-width:1.0;"/></g><!--link InternalCustomerHandler to ExitATMHandler--><g id="link_InternalCustomerHandler_ExitATMHandler"><path codeLine="71" d="M726.8,570.34 C746.18,589.5 764.675,607.7798 782.785,625.6998 " fill="none" id="InternalCustomerHandler-to-ExitATMHandler" style="stroke:#181818;stroke-width:1.0;"/><polygon fill="#181818" points="787.05,629.92,783.466,620.7464,783.4959,626.4032,777.8391,626.433,787.05,629.92" style="stroke:#181818;stroke-width:1.0;"/></g><!--link OptionHandler to ExitATMHandler--><g id="link_OptionHandler_ExitATMHandler"><path codeLine="72" d="M803.6,134.05 C849.89,157.27 899.9,191.25 928.5,238 C1005.65,364.13 1017.44,438.68 949.5,570 C935.71,596.64 915.4022,614.1384 890.6522,629.0184 " fill="none" id="OptionHandler-to-ExitATMHandler" style="stroke:#181818;stroke-width:1.0;"/><polygon fill="#181818" points="885.51,632.11,895.2843,630.9008,889.7952,629.5337,891.1623,624.0445,885.51,632.11" style="stroke:#181818;stroke-width:1.0;"/></g><!--SRC=[jLLTIyCm57tFhmXxcjX2_G1ngE3Sr89k0_K7NBjCWrbQqbGcwdytQvkQ9kbGTA4llUSazzvpJzE4GPxZkqGGmaSqpnYyuNU4rTgjN-ya2FcGLPJ-pW2_fdIEFX5AogqNHIxJ9H7rhl2IYbnEO4a6E9U2ygSgV0E-w0GaJJcmU3Gfbez4jD7PSyg93nY19DF5a0hvh05yYdjxnqTH6EsffuUg5dHn_OLTLO0Ps96kQWBigKGBKUQvB1XRd_MJF3jDBus6uvKaGYMsjRJZyQYjWyQ7m5zSSJLwdYHfmQMnkIhQFlsF8fM7UeGACEbiunkpMmXmP_cE1MFkby-Es_8DWG5FLCevIUWIcF9GL24N8EQpU6AQArAhzussUzG4SndayIgZuctjMdF3VdHmgEtQKDNN9elSfCrKY_ILQ4lRJMrjQhHJFMS0qsnz-ZNmEMlKtxqYyXOeh-wDc6U5xDj6g7SCS6n5tEmRg6KwigBo_FwseOrRxm7EpHjkqBxmZ7xAj0j8Y9F7kXKrMb-BczCxWetzGlnhZfXlBKVfLZNVnXhrT7-fWGdhikge-PzfFkkJZp1qfBDWksk4d45wZwd13dQ7bWYrdH-6PuvlF9IM-Jm5hZbjTL2NOJpKhhbxg6vf5k4B]--></g></svg>