<?xml version="1.0" encoding="us-ascii" standalone="no"?><svg xmlns="http://www.w3.org/2000/svg" xmlns:xlink="http://www.w3.org/1999/xlink" contentStyleType="text/css" height="826px" preserveAspectRatio="none" style="width:2707px;height:826px;background:#FFFFFF;" version="1.1" viewBox="0 0 2707 826" width="2707px" zoomAndPan="magnify"><defs/><g><!--class ScreenDisplay--><g id="elem_ScreenDisplay"><rect codeLine="2" fill="#F1F1F1" height="65.6094" id="ScreenDisplay" rx="2.5" ry="2.5" style="stroke:#181818;stroke-width:0.5;" width="208" x="111.5" y="150"/><ellipse cx="165.75" cy="166" fill="#ADD1B2" rx="11" ry="11" style="stroke:#181818;stroke-width:1.0;"/><path d="M168.5156,161.875 Q168.6719,161.6563 168.8594,161.5469 Q169.0469,161.4375 169.2656,161.4375 Q169.6406,161.4375 169.875,161.6953 Q170.1094,161.9531 170.1094,162.5625 L170.1094,164.0156 Q170.1094,164.625 169.875,164.8906 Q169.6406,165.1563 169.2656,165.1563 Q168.9219,165.1563 168.7188,164.9531 Q168.5156,164.7656 168.4063,164.25 Q168.3594,163.8906 168.1719,163.7031 Q167.8438,163.3281 167.2344,163.1094 Q166.625,162.8906 166,162.8906 Q165.2344,162.8906 164.6016,163.2188 Q163.9688,163.5469 163.4766,164.2969 Q162.9844,165.0469 162.9844,166.0781 L162.9844,167.1719 Q162.9844,168.4063 163.875,169.2266 Q164.7656,170.0469 166.3594,170.0469 Q167.2969,170.0469 167.9531,169.7969 Q168.3438,169.6406 168.7656,169.2031 Q169.0313,168.9375 169.1797,168.8594 Q169.3281,168.7813 169.5313,168.7813 Q169.8594,168.7813 170.1172,169.0391 Q170.375,169.2969 170.375,169.6406 Q170.375,169.9844 170.0313,170.3906 Q169.5313,170.9688 168.7344,171.2969 Q167.6563,171.75 166.3594,171.75 Q164.8438,171.75 163.6406,171.125 Q162.6563,170.625 161.9688,169.5547 Q161.2813,168.4844 161.2813,167.2031 L161.2813,166.0469 Q161.2813,164.7188 161.8984,163.5703 Q162.5156,162.4219 163.6094,161.8047 Q164.7031,161.1875 165.9375,161.1875 Q166.6719,161.1875 167.3203,161.3516 Q167.9688,161.5156 168.5156,161.875 Z " fill="#000000"/><text fill="#000000" font-family="sans-serif" font-size="14" lengthAdjust="spacing" textLength="91" x="186.25" y="171.7285">ScreenDisplay</text><line style="stroke:#181818;stroke-width:0.5;" x1="112.5" x2="318.5" y1="182" y2="182"/><line style="stroke:#181818;stroke-width:0.5;" x1="112.5" x2="318.5" y1="190" y2="190"/><ellipse cx="122.5" cy="204.3047" fill="#84BE84" rx="3" ry="3" style="stroke:#038048;stroke-width:1.0;"/><text fill="#000000" font-family="sans-serif" font-size="14" lengthAdjust="spacing" textLength="182" x="131.5" y="208.5332">DisplayStartUpScreen(): void</text></g><!--class Customer--><g id="elem_Customer"><rect codeLine="6" fill="#F1F1F1" height="171.2656" id="Customer" rx="2.5" ry="2.5" style="stroke:#181818;stroke-width:0.5;" width="647" x="1941" y="329"/><ellipse cx="2229.75" cy="345" fill="#ADD1B2" rx="11" ry="11" style="stroke:#181818;stroke-width:1.0;"/><path d="M2232.5156,340.875 Q2232.6719,340.6563 2232.8594,340.5469 Q2233.0469,340.4375 2233.2656,340.4375 Q2233.6406,340.4375 2233.875,340.6953 Q2234.1094,340.9531 2234.1094,341.5625 L2234.1094,343.0156 Q2234.1094,343.625 2233.875,343.8906 Q2233.6406,344.1563 2233.2656,344.1563 Q2232.9219,344.1563 2232.7188,343.9531 Q2232.5156,343.7656 2232.4063,343.25 Q2232.3594,342.8906 2232.1719,342.7031 Q2231.8438,342.3281 2231.2344,342.1094 Q2230.625,341.8906 2230,341.8906 Q2229.2344,341.8906 2228.6016,342.2188 Q2227.9688,342.5469 2227.4766,343.2969 Q2226.9844,344.0469 2226.9844,345.0781 L2226.9844,346.1719 Q2226.9844,347.4063 2227.875,348.2266 Q2228.7656,349.0469 2230.3594,349.0469 Q2231.2969,349.0469 2231.9531,348.7969 Q2232.3438,348.6406 2232.7656,348.2031 Q2233.0313,347.9375 2233.1797,347.8594 Q2233.3281,347.7813 2233.5313,347.7813 Q2233.8594,347.7813 2234.1172,348.0391 Q2234.375,348.2969 2234.375,348.6406 Q2234.375,348.9844 2234.0313,349.3906 Q2233.5313,349.9688 2232.7344,350.2969 Q2231.6563,350.75 2230.3594,350.75 Q2228.8438,350.75 2227.6406,350.125 Q2226.6563,349.625 2225.9688,348.5547 Q2225.2813,347.4844 2225.2813,346.2031 L2225.2813,345.0469 Q2225.2813,343.7188 2225.8984,342.5703 Q2226.5156,341.4219 2227.6094,340.8047 Q2228.7031,340.1875 2229.9375,340.1875 Q2230.6719,340.1875 2231.3203,340.3516 Q2231.9688,340.5156 2232.5156,340.875 Z " fill="#000000"/><text fill="#000000" font-family="sans-serif" font-size="14" lengthAdjust="spacing" textLength="61" x="2250.25" y="350.7285">Customer</text><line style="stroke:#181818;stroke-width:0.5;" x1="1942" x2="2587" y1="361" y2="361"/><rect fill="none" height="6" style="stroke:#C82930;stroke-width:1.0;" width="6" x="1949" y="372.3047"/><text fill="#000000" font-family="sans-serif" font-size="14" lengthAdjust="spacing" textLength="107" x="1961" y="379.5332">FirstName: string</text><rect fill="none" height="6" style="stroke:#C82930;stroke-width:1.0;" width="6" x="1949" y="389.9141"/><text fill="#000000" font-family="sans-serif" font-size="14" lengthAdjust="spacing" textLength="106" x="1961" y="397.1426">LastName: string</text><rect fill="none" height="6" style="stroke:#C82930;stroke-width:1.0;" width="6" x="1949" y="407.5234"/><text fill="#000000" font-family="sans-serif" font-size="14" lengthAdjust="spacing" textLength="156" x="1961" y="414.752">NationalIDNumber: string</text><rect fill="none" height="6" style="stroke:#C82930;stroke-width:1.0;" width="6" x="1949" y="425.1328"/><text fill="#000000" font-family="sans-serif" font-size="14" lengthAdjust="spacing" textLength="133" x="1961" y="432.3613">PhoneNumber: string</text><rect fill="none" height="6" style="stroke:#C82930;stroke-width:1.0;" width="6" x="1949" y="442.7422"/><text fill="#000000" font-family="sans-serif" font-size="14" lengthAdjust="spacing" textLength="217" x="1961" y="449.9707">DateOfBirth: string = "1970-01-01"</text><line style="stroke:#181818;stroke-width:0.5;" x1="1942" x2="2587" y1="457.0469" y2="457.0469"/><ellipse cx="1952" cy="471.3516" fill="#84BE84" rx="3" ry="3" style="stroke:#038048;stroke-width:1.0;"/><text fill="#000000" font-family="sans-serif" font-size="14" lengthAdjust="spacing" textLength="621" x="1961" y="475.5801">Customer(firstName: string, lastName: string, NationalIDNumber: string, PhoneNumber: string): void</text><ellipse cx="1952" cy="488.9609" fill="#84BE84" rx="3" ry="3" style="stroke:#038048;stroke-width:1.0;"/><text fill="#000000" font-family="sans-serif" font-size="14" lengthAdjust="spacing" textLength="323" x="1961" y="493.1895">FullName(firstName: string, lastName: string): string</text></g><!--class ExternalCustomer--><g id="elem_ExternalCustomer"><rect codeLine="17" fill="#F1F1F1" height="136.0469" id="ExternalCustomer" rx="2.5" ry="2.5" style="stroke:#181818;stroke-width:0.5;" width="708" x="1992.5" y="648"/><ellipse cx="2286.25" cy="664" fill="#ADD1B2" rx="11" ry="11" style="stroke:#181818;stroke-width:1.0;"/><path d="M2289.0156,659.875 Q2289.1719,659.6563 2289.3594,659.5469 Q2289.5469,659.4375 2289.7656,659.4375 Q2290.1406,659.4375 2290.375,659.6953 Q2290.6094,659.9531 2290.6094,660.5625 L2290.6094,662.0156 Q2290.6094,662.625 2290.375,662.8906 Q2290.1406,663.1563 2289.7656,663.1563 Q2289.4219,663.1563 2289.2188,662.9531 Q2289.0156,662.7656 2288.9063,662.25 Q2288.8594,661.8906 2288.6719,661.7031 Q2288.3438,661.3281 2287.7344,661.1094 Q2287.125,660.8906 2286.5,660.8906 Q2285.7344,660.8906 2285.1016,661.2188 Q2284.4688,661.5469 2283.9766,662.2969 Q2283.4844,663.0469 2283.4844,664.0781 L2283.4844,665.1719 Q2283.4844,666.4063 2284.375,667.2266 Q2285.2656,668.0469 2286.8594,668.0469 Q2287.7969,668.0469 2288.4531,667.7969 Q2288.8438,667.6406 2289.2656,667.2031 Q2289.5313,666.9375 2289.6797,666.8594 Q2289.8281,666.7813 2290.0313,666.7813 Q2290.3594,666.7813 2290.6172,667.0391 Q2290.875,667.2969 2290.875,667.6406 Q2290.875,667.9844 2290.5313,668.3906 Q2290.0313,668.9688 2289.2344,669.2969 Q2288.1563,669.75 2286.8594,669.75 Q2285.3438,669.75 2284.1406,669.125 Q2283.1563,668.625 2282.4688,667.5547 Q2281.7813,666.4844 2281.7813,665.2031 L2281.7813,664.0469 Q2281.7813,662.7188 2282.3984,661.5703 Q2283.0156,660.4219 2284.1094,659.8047 Q2285.2031,659.1875 2286.4375,659.1875 Q2287.1719,659.1875 2287.8203,659.3516 Q2288.4688,659.5156 2289.0156,659.875 Z " fill="#000000"/><text fill="#000000" font-family="sans-serif" font-size="14" lengthAdjust="spacing" textLength="112" x="2306.75" y="669.7285">ExternalCustomer</text><line style="stroke:#181818;stroke-width:0.5;" x1="1993.5" x2="2699.5" y1="680" y2="680"/><rect fill="none" height="6" style="stroke:#C82930;stroke-width:1.0;" width="6" x="2000.5" y="691.3047"/><text fill="#000000" font-family="sans-serif" font-size="14" lengthAdjust="spacing" textLength="168" x="2012.5" y="698.5332">ExternalCustomerID: string</text><rect fill="none" height="6" style="stroke:#C82930;stroke-width:1.0;" width="6" x="2000.5" y="708.9141"/><text fill="#000000" font-family="sans-serif" font-size="14" lengthAdjust="spacing" textLength="162" x="2012.5" y="716.1426">ExternalBankName: string</text><rect fill="none" height="6" style="stroke:#C82930;stroke-width:1.0;" width="6" x="2000.5" y="726.5234"/><text fill="#000000" font-family="sans-serif" font-size="14" lengthAdjust="spacing" textLength="158" x="2012.5" y="733.752">ExternalAccountID: string</text><line style="stroke:#181818;stroke-width:0.5;" x1="1993.5" x2="2699.5" y1="740.8281" y2="740.8281"/><ellipse cx="2003.5" cy="755.1328" fill="#84BE84" rx="3" ry="3" style="stroke:#038048;stroke-width:1.0;"/><text fill="#000000" font-family="sans-serif" font-size="14" lengthAdjust="spacing" textLength="496" x="2012.5" y="759.3613">ExternalCustomer(firstName: string, lastName: string, NationalIDNumber: string,</text><text fill="#000000" font-family="sans-serif" font-size="14" lengthAdjust="spacing" textLength="682" x="2012.5" y="776.9707">PhoneNumber: string, externalCustomerID: string, externalBankName: string, ExternalAccountID: string): void</text></g><!--class InternalCustomer--><g id="elem_InternalCustomer"><rect codeLine="26" fill="#F1F1F1" height="206.4844" id="InternalCustomer" rx="2.5" ry="2.5" style="stroke:#181818;stroke-width:0.5;" width="518" x="1439.5" y="613"/><ellipse cx="1640.25" cy="629" fill="#ADD1B2" rx="11" ry="11" style="stroke:#181818;stroke-width:1.0;"/><path d="M1643.0156,624.875 Q1643.1719,624.6563 1643.3594,624.5469 Q1643.5469,624.4375 1643.7656,624.4375 Q1644.1406,624.4375 1644.375,624.6953 Q1644.6094,624.9531 1644.6094,625.5625 L1644.6094,627.0156 Q1644.6094,627.625 1644.375,627.8906 Q1644.1406,628.1563 1643.7656,628.1563 Q1643.4219,628.1563 1643.2188,627.9531 Q1643.0156,627.7656 1642.9063,627.25 Q1642.8594,626.8906 1642.6719,626.7031 Q1642.3438,626.3281 1641.7344,626.1094 Q1641.125,625.8906 1640.5,625.8906 Q1639.7344,625.8906 1639.1016,626.2188 Q1638.4688,626.5469 1637.9766,627.2969 Q1637.4844,628.0469 1637.4844,629.0781 L1637.4844,630.1719 Q1637.4844,631.4063 1638.375,632.2266 Q1639.2656,633.0469 1640.8594,633.0469 Q1641.7969,633.0469 1642.4531,632.7969 Q1642.8438,632.6406 1643.2656,632.2031 Q1643.5313,631.9375 1643.6797,631.8594 Q1643.8281,631.7813 1644.0313,631.7813 Q1644.3594,631.7813 1644.6172,632.0391 Q1644.875,632.2969 1644.875,632.6406 Q1644.875,632.9844 1644.5313,633.3906 Q1644.0313,633.9688 1643.2344,634.2969 Q1642.1563,634.75 1640.8594,634.75 Q1639.3438,634.75 1638.1406,634.125 Q1637.1563,633.625 1636.4688,632.5547 Q1635.7813,631.4844 1635.7813,630.2031 L1635.7813,629.0469 Q1635.7813,627.7188 1636.3984,626.5703 Q1637.0156,625.4219 1638.1094,624.8047 Q1639.2031,624.1875 1640.4375,624.1875 Q1641.1719,624.1875 1641.8203,624.3516 Q1642.4688,624.5156 1643.0156,624.875 Z " fill="#000000"/><text fill="#000000" font-family="sans-serif" font-size="14" lengthAdjust="spacing" textLength="108" x="1660.75" y="634.7285">InternalCustomer</text><line style="stroke:#181818;stroke-width:0.5;" x1="1440.5" x2="1956.5" y1="645" y2="645"/><rect fill="none" height="6" style="stroke:#C82930;stroke-width:1.0;" width="6" x="1447.5" y="656.3047"/><text fill="#000000" font-family="sans-serif" font-size="14" lengthAdjust="spacing" textLength="164" x="1459.5" y="663.5332">InternalCustomerID: string</text><rect fill="none" height="6" style="stroke:#C82930;stroke-width:1.0;" width="6" x="1447.5" y="673.9141"/><text fill="#000000" font-family="sans-serif" font-size="14" lengthAdjust="spacing" textLength="131" x="1459.5" y="681.1426">Balance: decimal = 0</text><rect fill="none" height="6" style="stroke:#C82930;stroke-width:1.0;" width="6" x="1447.5" y="691.5234"/><text fill="#000000" font-family="sans-serif" font-size="14" lengthAdjust="spacing" textLength="153" x="1459.5" y="698.752">CardPIN: string = "0000"</text><rect fill="none" height="6" style="stroke:#C82930;stroke-width:1.0;" width="6" x="1447.5" y="709.1328"/><text fill="#000000" font-family="sans-serif" font-size="14" lengthAdjust="spacing" textLength="277" x="1459.5" y="716.3613">CardNumber: string = "0000000000000000"</text><rect fill="none" height="6" style="stroke:#C82930;stroke-width:1.0;" width="6" x="1447.5" y="726.7422"/><text fill="#000000" font-family="sans-serif" font-size="14" lengthAdjust="spacing" textLength="242" x="1459.5" y="733.9707">CardExpiryDate: string = "2034-01-01"</text><rect fill="none" height="6" style="stroke:#C82930;stroke-width:1.0;" width="6" x="1447.5" y="744.3516"/><text fill="#000000" font-family="sans-serif" font-size="14" lengthAdjust="spacing" textLength="189" x="1459.5" y="751.5801">CardStatus: string = "Passive"</text><line style="stroke:#181818;stroke-width:0.5;" x1="1440.5" x2="1956.5" y1="758.6563" y2="758.6563"/><ellipse cx="1450.5" cy="772.9609" fill="#84BE84" rx="3" ry="3" style="stroke:#038048;stroke-width:1.0;"/><text fill="#000000" font-family="sans-serif" font-size="14" lengthAdjust="spacing" textLength="492" x="1459.5" y="777.1895">InternalCustomer(firstName: string, lastName: string, NationalIDNumber: string,</text><text fill="#000000" font-family="sans-serif" font-size="14" lengthAdjust="spacing" textLength="344" x="1459.5" y="794.7988">PhoneNumber: string, internalCustomerID: string): void</text><ellipse cx="1450.5" cy="808.1797" fill="#84BE84" rx="3" ry="3" style="stroke:#038048;stroke-width:1.0;"/><text fill="#000000" font-family="sans-serif" font-size="14" lengthAdjust="spacing" textLength="365" x="1459.5" y="812.4082">SetBalance(balance: decimal, [isWithdraw: boolean]): void</text></g><!--class OptionHandler--><g id="elem_OptionHandler"><rect codeLine="39" fill="#F1F1F1" height="83.2188" id="OptionHandler" rx="2.5" ry="2.5" style="stroke:#181818;stroke-width:0.5;" width="731" x="7" y="7"/><ellipse cx="322.75" cy="23" fill="#ADD1B2" rx="11" ry="11" style="stroke:#181818;stroke-width:1.0;"/><path d="M325.5156,18.875 Q325.6719,18.6563 325.8594,18.5469 Q326.0469,18.4375 326.2656,18.4375 Q326.6406,18.4375 326.875,18.6953 Q327.1094,18.9531 327.1094,19.5625 L327.1094,21.0156 Q327.1094,21.625 326.875,21.8906 Q326.6406,22.1563 326.2656,22.1563 Q325.9219,22.1563 325.7188,21.9531 Q325.5156,21.7656 325.4063,21.25 Q325.3594,20.8906 325.1719,20.7031 Q324.8438,20.3281 324.2344,20.1094 Q323.625,19.8906 323,19.8906 Q322.2344,19.8906 321.6016,20.2188 Q320.9688,20.5469 320.4766,21.2969 Q319.9844,22.0469 319.9844,23.0781 L319.9844,24.1719 Q319.9844,25.4063 320.875,26.2266 Q321.7656,27.0469 323.3594,27.0469 Q324.2969,27.0469 324.9531,26.7969 Q325.3438,26.6406 325.7656,26.2031 Q326.0313,25.9375 326.1797,25.8594 Q326.3281,25.7813 326.5313,25.7813 Q326.8594,25.7813 327.1172,26.0391 Q327.375,26.2969 327.375,26.6406 Q327.375,26.9844 327.0313,27.3906 Q326.5313,27.9688 325.7344,28.2969 Q324.6563,28.75 323.3594,28.75 Q321.8438,28.75 320.6406,28.125 Q319.6563,27.625 318.9688,26.5547 Q318.2813,25.4844 318.2813,24.2031 L318.2813,23.0469 Q318.2813,21.7188 318.8984,20.5703 Q319.5156,19.4219 320.6094,18.8047 Q321.7031,18.1875 322.9375,18.1875 Q323.6719,18.1875 324.3203,18.3516 Q324.9688,18.5156 325.5156,18.875 Z " fill="#000000"/><text fill="#000000" font-family="sans-serif" font-size="14" lengthAdjust="spacing" textLength="91" x="343.25" y="28.7285">OptionHandler</text><line style="stroke:#181818;stroke-width:0.5;" x1="8" x2="737" y1="39" y2="39"/><line style="stroke:#181818;stroke-width:0.5;" x1="8" x2="737" y1="47" y2="47"/><ellipse cx="18" cy="61.3047" fill="#84BE84" rx="3" ry="3" style="stroke:#038048;stroke-width:1.0;"/><text fill="#000000" font-family="sans-serif" font-size="14" lengthAdjust="spacing" textLength="705" x="27" y="65.5332">GetMainScreenInput(externalCustomerHandler: ICustomerHandler, internalCustomerHandler: ICustomerHandler,</text><text fill="#000000" font-family="sans-serif" font-size="14" lengthAdjust="spacing" textLength="442" x="27" y="83.1426">exitATMHandler: ExitATMHandler, screenDisplay: ScreenDisplay): void</text></g><!--class ICustomerHandler--><g id="elem_ICustomerHandler"><rect codeLine="44" fill="#F1F1F1" height="65.6094" id="ICustomerHandler" rx="2.5" ry="2.5" style="stroke:#181818;stroke-width:0.5;" width="429" x="461" y="150"/><ellipse cx="613.75" cy="166" fill="#B4A7E5" rx="11" ry="11" style="stroke:#181818;stroke-width:1.0;"/><path d="M614.7031,162.6406 L614.7031,169.2969 L616.4219,169.2969 Q617.0313,169.2969 617.2969,169.5313 Q617.5625,169.7656 617.5625,170.1563 Q617.5625,170.5313 617.2969,170.7656 Q617.0313,171 616.4219,171 L611.2813,171 Q610.6719,171 610.4063,170.7656 Q610.1406,170.5313 610.1406,170.1406 Q610.1406,169.7656 610.4063,169.5313 Q610.6719,169.2969 611.2813,169.2969 L613,169.2969 L613,162.6406 L611.2813,162.6406 Q610.6719,162.6406 610.4063,162.4063 Q610.1406,162.1719 610.1406,161.7813 Q610.1406,161.4063 610.4063,161.1719 Q610.6719,160.9375 611.2813,160.9375 L616.4219,160.9375 Q617.0313,160.9375 617.2969,161.1719 Q617.5625,161.4063 617.5625,161.7813 Q617.5625,162.1719 617.2969,162.4063 Q617.0313,162.6406 616.4219,162.6406 L614.7031,162.6406 Z " fill="#000000"/><text fill="#000000" font-family="sans-serif" font-size="14" font-style="italic" lengthAdjust="spacing" textLength="115" x="634.25" y="171.7285">ICustomerHandler</text><line style="stroke:#181818;stroke-width:0.5;" x1="462" x2="889" y1="182" y2="182"/><line style="stroke:#181818;stroke-width:0.5;" x1="462" x2="889" y1="190" y2="190"/><ellipse cx="472" cy="204.3047" fill="#84BE84" rx="3" ry="3" style="stroke:#038048;stroke-width:1.0;"/><text fill="#000000" font-family="sans-serif" font-size="14" lengthAdjust="spacing" textLength="403" x="481" y="208.5332">DisplayCustomerScreen(exitATMHandler: ExitATMHandler): void</text></g><!--class ExternalCustomerHandler--><g id="elem_ExternalCustomerHandler"><rect codeLine="48" fill="#F1F1F1" height="65.6094" id="ExternalCustomerHandler" rx="2.5" ry="2.5" style="stroke:#181818;stroke-width:0.5;" width="429" x="497" y="381.5"/><ellipse cx="626.75" cy="397.5" fill="#ADD1B2" rx="11" ry="11" style="stroke:#181818;stroke-width:1.0;"/><path d="M629.5156,393.375 Q629.6719,393.1563 629.8594,393.0469 Q630.0469,392.9375 630.2656,392.9375 Q630.6406,392.9375 630.875,393.1953 Q631.1094,393.4531 631.1094,394.0625 L631.1094,395.5156 Q631.1094,396.125 630.875,396.3906 Q630.6406,396.6563 630.2656,396.6563 Q629.9219,396.6563 629.7188,396.4531 Q629.5156,396.2656 629.4063,395.75 Q629.3594,395.3906 629.1719,395.2031 Q628.8438,394.8281 628.2344,394.6094 Q627.625,394.3906 627,394.3906 Q626.2344,394.3906 625.6016,394.7188 Q624.9688,395.0469 624.4766,395.7969 Q623.9844,396.5469 623.9844,397.5781 L623.9844,398.6719 Q623.9844,399.9063 624.875,400.7266 Q625.7656,401.5469 627.3594,401.5469 Q628.2969,401.5469 628.9531,401.2969 Q629.3438,401.1406 629.7656,400.7031 Q630.0313,400.4375 630.1797,400.3594 Q630.3281,400.2813 630.5313,400.2813 Q630.8594,400.2813 631.1172,400.5391 Q631.375,400.7969 631.375,401.1406 Q631.375,401.4844 631.0313,401.8906 Q630.5313,402.4688 629.7344,402.7969 Q628.6563,403.25 627.3594,403.25 Q625.8438,403.25 624.6406,402.625 Q623.6563,402.125 622.9688,401.0547 Q622.2813,399.9844 622.2813,398.7031 L622.2813,397.5469 Q622.2813,396.2188 622.8984,395.0703 Q623.5156,393.9219 624.6094,393.3047 Q625.7031,392.6875 626.9375,392.6875 Q627.6719,392.6875 628.3203,392.8516 Q628.9688,393.0156 629.5156,393.375 Z " fill="#000000"/><text fill="#000000" font-family="sans-serif" font-size="14" lengthAdjust="spacing" textLength="161" x="647.25" y="403.2285">ExternalCustomerHandler</text><line style="stroke:#181818;stroke-width:0.5;" x1="498" x2="925" y1="413.5" y2="413.5"/><line style="stroke:#181818;stroke-width:0.5;" x1="498" x2="925" y1="421.5" y2="421.5"/><ellipse cx="508" cy="435.8047" fill="#84BE84" rx="3" ry="3" style="stroke:#038048;stroke-width:1.0;"/><text fill="#000000" font-family="sans-serif" font-size="14" lengthAdjust="spacing" textLength="403" x="517" y="440.0332">DisplayCustomerScreen(exitATMHandler: ExitATMHandler): void</text></g><!--class InternalCustomerHandler--><g id="elem_InternalCustomerHandler"><rect codeLine="52" fill="#F1F1F1" height="276.9219" id="InternalCustomerHandler" rx="2.5" ry="2.5" style="stroke:#181818;stroke-width:0.5;" width="780" x="961.5" y="276"/><ellipse cx="1268.75" cy="292" fill="#ADD1B2" rx="11" ry="11" style="stroke:#181818;stroke-width:1.0;"/><path d="M1271.5156,287.875 Q1271.6719,287.6563 1271.8594,287.5469 Q1272.0469,287.4375 1272.2656,287.4375 Q1272.6406,287.4375 1272.875,287.6953 Q1273.1094,287.9531 1273.1094,288.5625 L1273.1094,290.0156 Q1273.1094,290.625 1272.875,290.8906 Q1272.6406,291.1563 1272.2656,291.1563 Q1271.9219,291.1563 1271.7188,290.9531 Q1271.5156,290.7656 1271.4063,290.25 Q1271.3594,289.8906 1271.1719,289.7031 Q1270.8438,289.3281 1270.2344,289.1094 Q1269.625,288.8906 1269,288.8906 Q1268.2344,288.8906 1267.6016,289.2188 Q1266.9688,289.5469 1266.4766,290.2969 Q1265.9844,291.0469 1265.9844,292.0781 L1265.9844,293.1719 Q1265.9844,294.4063 1266.875,295.2266 Q1267.7656,296.0469 1269.3594,296.0469 Q1270.2969,296.0469 1270.9531,295.7969 Q1271.3438,295.6406 1271.7656,295.2031 Q1272.0313,294.9375 1272.1797,294.8594 Q1272.3281,294.7813 1272.5313,294.7813 Q1272.8594,294.7813 1273.1172,295.0391 Q1273.375,295.2969 1273.375,295.6406 Q1273.375,295.9844 1273.0313,296.3906 Q1272.5313,296.9688 1271.7344,297.2969 Q1270.6563,297.75 1269.3594,297.75 Q1267.8438,297.75 1266.6406,297.125 Q1265.6563,296.625 1264.9688,295.5547 Q1264.2813,294.4844 1264.2813,293.2031 L1264.2813,292.0469 Q1264.2813,290.7188 1264.8984,289.5703 Q1265.5156,288.4219 1266.6094,287.8047 Q1267.7031,287.1875 1268.9375,287.1875 Q1269.6719,287.1875 1270.3203,287.3516 Q1270.9688,287.5156 1271.5156,287.875 Z " fill="#000000"/><text fill="#000000" font-family="sans-serif" font-size="14" lengthAdjust="spacing" textLength="157" x="1289.25" y="297.7285">InternalCustomerHandler</text><line style="stroke:#181818;stroke-width:0.5;" x1="962.5" x2="1740.5" y1="308" y2="308"/><line style="stroke:#181818;stroke-width:0.5;" x1="962.5" x2="1740.5" y1="316" y2="316"/><ellipse cx="972.5" cy="330.3047" fill="#84BE84" rx="3" ry="3" style="stroke:#038048;stroke-width:1.0;"/><text fill="#000000" font-family="sans-serif" font-size="14" lengthAdjust="spacing" textLength="403" x="981.5" y="334.5332">DisplayCustomerScreen(exitATMHandler: ExitATMHandler): void</text><text fill="#000000" font-family="sans-serif" font-size="14" lengthAdjust="spacing" textLength="4" x="981.5" y="352.1426">&#160;</text><rect fill="#F24D5C" height="6" style="stroke:#C82930;stroke-width:1.0;" width="6" x="969.5" y="362.5234"/><text fill="#000000" font-family="sans-serif" font-size="14" lengthAdjust="spacing" textLength="170" x="981.5" y="369.752">DisplayLoginScreen(): void</text><rect fill="#F24D5C" height="6" style="stroke:#C82930;stroke-width:1.0;" width="6" x="969.5" y="380.1328"/><text fill="#000000" font-family="sans-serif" font-size="14" lengthAdjust="spacing" textLength="479" x="981.5" y="387.3613">DisplayLoggedInCustomerScreen(internalCustomer: InternalCustomer): void</text><rect fill="#F24D5C" height="6" style="stroke:#C82930;stroke-width:1.0;" width="6" x="969.5" y="397.7422"/><text fill="#000000" font-family="sans-serif" font-size="14" lengthAdjust="spacing" textLength="657" x="981.5" y="404.9707">GetLoggedInCustomerInput(exitATMHandler: ExitATMHandler, internalCustomer: InternalCustomer): void</text><rect fill="#F24D5C" height="6" style="stroke:#C82930;stroke-width:1.0;" width="6" x="969.5" y="415.3516"/><text fill="#000000" font-family="sans-serif" font-size="14" lengthAdjust="spacing" textLength="366" x="981.5" y="422.5801">GetCustomerInput(exitATMHandler: ExitATMHandler): void</text><rect fill="#F24D5C" height="6" style="stroke:#C82930;stroke-width:1.0;" width="6" x="969.5" y="432.9609"/><text fill="#000000" font-family="sans-serif" font-size="14" lengthAdjust="spacing" textLength="665" x="981.5" y="440.1895">LoginWithCardNumber(exitATMHandler: ExitATMHandler, customerRepository: CustomerRepository): void</text><rect fill="#F24D5C" height="6" style="stroke:#C82930;stroke-width:1.0;" width="6" x="969.5" y="450.5703"/><text fill="#000000" font-family="sans-serif" font-size="14" lengthAdjust="spacing" textLength="754" x="981.5" y="457.7988">AuthenticateCustomer(customerRepository: CustomerRepository, cardDetailsToCheck: List&lt;string&gt;): InternalCustomer?</text><rect fill="#F24D5C" height="6" style="stroke:#C82930;stroke-width:1.0;" width="6" x="969.5" y="468.1797"/><text fill="#000000" font-family="sans-serif" font-size="14" lengthAdjust="spacing" textLength="368" x="981.5" y="475.4082">WithdrawMoney(internalCustomer: InternalCustomer): void</text><rect fill="#F24D5C" height="6" style="stroke:#C82930;stroke-width:1.0;" width="6" x="969.5" y="485.7891"/><text fill="#000000" font-family="sans-serif" font-size="14" lengthAdjust="spacing" textLength="358" x="981.5" y="493.0176">DepositMoney(internalCustomer: InternalCustomer): void</text><rect fill="#F24D5C" height="6" style="stroke:#C82930;stroke-width:1.0;" width="6" x="969.5" y="503.3984"/><text fill="#000000" font-family="sans-serif" font-size="14" lengthAdjust="spacing" textLength="348" x="981.5" y="510.627">ViewBalance(internalCustomer: InternalCustomer): void</text><rect fill="#F24D5C" height="6" style="stroke:#C82930;stroke-width:1.0;" width="6" x="969.5" y="521.0078"/><text fill="#000000" font-family="sans-serif" font-size="14" lengthAdjust="spacing" textLength="635" x="981.5" y="528.2363">TransferMoney(internalCustomer: InternalCustomer, customerRepository: CustomerRepository): void</text><rect fill="#F24D5C" height="6" style="stroke:#C82930;stroke-width:1.0;" width="6" x="969.5" y="538.6172"/><text fill="#000000" font-family="sans-serif" font-size="14" lengthAdjust="spacing" textLength="586" x="981.5" y="545.8457">DoTransaction(sender: InternalCustomer, recipient: InternalCustomer, amount: decimal): void</text></g><!--class CustomerRepository--><g id="elem_CustomerRepository"><rect codeLine="68" fill="#F1F1F1" height="136.0469" id="CustomerRepository" rx="2.5" ry="2.5" style="stroke:#181818;stroke-width:0.5;" width="270" x="1134.5" y="648"/><ellipse cx="1200.75" cy="664" fill="#ADD1B2" rx="11" ry="11" style="stroke:#181818;stroke-width:1.0;"/><path d="M1203.5156,659.875 Q1203.6719,659.6563 1203.8594,659.5469 Q1204.0469,659.4375 1204.2656,659.4375 Q1204.6406,659.4375 1204.875,659.6953 Q1205.1094,659.9531 1205.1094,660.5625 L1205.1094,662.0156 Q1205.1094,662.625 1204.875,662.8906 Q1204.6406,663.1563 1204.2656,663.1563 Q1203.9219,663.1563 1203.7188,662.9531 Q1203.5156,662.7656 1203.4063,662.25 Q1203.3594,661.8906 1203.1719,661.7031 Q1202.8438,661.3281 1202.2344,661.1094 Q1201.625,660.8906 1201,660.8906 Q1200.2344,660.8906 1199.6016,661.2188 Q1198.9688,661.5469 1198.4766,662.2969 Q1197.9844,663.0469 1197.9844,664.0781 L1197.9844,665.1719 Q1197.9844,666.4063 1198.875,667.2266 Q1199.7656,668.0469 1201.3594,668.0469 Q1202.2969,668.0469 1202.9531,667.7969 Q1203.3438,667.6406 1203.7656,667.2031 Q1204.0313,666.9375 1204.1797,666.8594 Q1204.3281,666.7813 1204.5313,666.7813 Q1204.8594,666.7813 1205.1172,667.0391 Q1205.375,667.2969 1205.375,667.6406 Q1205.375,667.9844 1205.0313,668.3906 Q1204.5313,668.9688 1203.7344,669.2969 Q1202.6563,669.75 1201.3594,669.75 Q1199.8438,669.75 1198.6406,669.125 Q1197.6563,668.625 1196.9688,667.5547 Q1196.2813,666.4844 1196.2813,665.2031 L1196.2813,664.0469 Q1196.2813,662.7188 1196.8984,661.5703 Q1197.5156,660.4219 1198.6094,659.8047 Q1199.7031,659.1875 1200.9375,659.1875 Q1201.6719,659.1875 1202.3203,659.3516 Q1202.9688,659.5156 1203.5156,659.875 Z " fill="#000000"/><text fill="#000000" font-family="sans-serif" font-size="14" lengthAdjust="spacing" textLength="129" x="1221.25" y="669.7285">CustomerRepository</text><line style="stroke:#181818;stroke-width:0.5;" x1="1135.5" x2="1403.5" y1="680" y2="680"/><rect fill="none" height="6" style="stroke:#C82930;stroke-width:1.0;" width="6" x="1142.5" y="691.3047"/><text fill="#000000" font-family="sans-serif" font-size="14" lengthAdjust="spacing" textLength="244" x="1154.5" y="698.5332">_instance: CustomerRepository? = null</text><ellipse cx="1145.5" cy="711.9141" fill="none" rx="3" ry="3" style="stroke:#038048;stroke-width:1.0;"/><text fill="#000000" font-family="sans-serif" font-size="14" lengthAdjust="spacing" textLength="190" x="1154.5" y="716.1426">Instance: CustomerRepository</text><ellipse cx="1145.5" cy="729.5234" fill="none" rx="3" ry="3" style="stroke:#038048;stroke-width:1.0;"/><text fill="#000000" font-family="sans-serif" font-size="14" lengthAdjust="spacing" textLength="172" x="1154.5" y="733.752">customers: List&lt;Customer&gt;</text><ellipse cx="1145.5" cy="747.1328" fill="none" rx="3" ry="3" style="stroke:#038048;stroke-width:1.0;"/><text fill="#000000" font-family="sans-serif" font-size="14" lengthAdjust="spacing" textLength="175" x="1154.5" y="751.3613">Customers: List&lt;Customer&gt;</text><line style="stroke:#181818;stroke-width:0.5;" x1="1135.5" x2="1403.5" y1="758.4375" y2="758.4375"/><rect fill="#F24D5C" height="6" style="stroke:#C82930;stroke-width:1.0;" width="6" x="1142.5" y="769.7422"/><text fill="#000000" font-family="sans-serif" font-size="14" lengthAdjust="spacing" textLength="139" x="1154.5" y="776.9707">CustomerRepository()</text></g><!--class ExitATMHandler--><g id="elem_ExitATMHandler"><rect codeLine="77" fill="#F1F1F1" height="65.6094" id="ExitATMHandler" rx="2.5" ry="2.5" style="stroke:#181818;stroke-width:0.5;" width="132" x="511.5" y="683"/><ellipse cx="526.5" cy="699" fill="#ADD1B2" rx="11" ry="11" style="stroke:#181818;stroke-width:1.0;"/><path d="M529.2656,694.875 Q529.4219,694.6563 529.6094,694.5469 Q529.7969,694.4375 530.0156,694.4375 Q530.3906,694.4375 530.625,694.6953 Q530.8594,694.9531 530.8594,695.5625 L530.8594,697.0156 Q530.8594,697.625 530.625,697.8906 Q530.3906,698.1563 530.0156,698.1563 Q529.6719,698.1563 529.4688,697.9531 Q529.2656,697.7656 529.1563,697.25 Q529.1094,696.8906 528.9219,696.7031 Q528.5938,696.3281 527.9844,696.1094 Q527.375,695.8906 526.75,695.8906 Q525.9844,695.8906 525.3516,696.2188 Q524.7188,696.5469 524.2266,697.2969 Q523.7344,698.0469 523.7344,699.0781 L523.7344,700.1719 Q523.7344,701.4063 524.625,702.2266 Q525.5156,703.0469 527.1094,703.0469 Q528.0469,703.0469 528.7031,702.7969 Q529.0938,702.6406 529.5156,702.2031 Q529.7813,701.9375 529.9297,701.8594 Q530.0781,701.7813 530.2813,701.7813 Q530.6094,701.7813 530.8672,702.0391 Q531.125,702.2969 531.125,702.6406 Q531.125,702.9844 530.7813,703.3906 Q530.2813,703.9688 529.4844,704.2969 Q528.4063,704.75 527.1094,704.75 Q525.5938,704.75 524.3906,704.125 Q523.4063,703.625 522.7188,702.5547 Q522.0313,701.4844 522.0313,700.2031 L522.0313,699.0469 Q522.0313,697.7188 522.6484,696.5703 Q523.2656,695.4219 524.3594,694.8047 Q525.4531,694.1875 526.6875,694.1875 Q527.4219,694.1875 528.0703,694.3516 Q528.7188,694.5156 529.2656,694.875 Z " fill="#000000"/><text fill="#000000" font-family="sans-serif" font-size="14" lengthAdjust="spacing" textLength="100" x="540.5" y="704.7285">ExitATMHandler</text><line style="stroke:#181818;stroke-width:0.5;" x1="512.5" x2="642.5" y1="715" y2="715"/><line style="stroke:#181818;stroke-width:0.5;" x1="512.5" x2="642.5" y1="723" y2="723"/><ellipse cx="522.5" cy="737.3047" fill="#84BE84" rx="3" ry="3" style="stroke:#038048;stroke-width:1.0;"/><text fill="#000000" font-family="sans-serif" font-size="14" lengthAdjust="spacing" textLength="95" x="531.5" y="741.5332">ExitATM(): void</text></g><!--reverse link Customer to ExternalCustomer--><g id="link_Customer_ExternalCustomer"><path codeLine="81" d="M2292.4237,517.4809 C2305.2137,564.1909 2316.12,604.03 2328.07,647.67 " fill="none" id="Customer-backto-ExternalCustomer" style="stroke:#181818;stroke-width:1.0;"/><polygon fill="none" points="2287.67,500.12,2286.6367,519.0655,2298.2107,515.8964,2287.67,500.12" style="stroke:#181818;stroke-width:1.0;"/></g><!--reverse link Customer to InternalCustomer--><g id="link_Customer_InternalCustomer"><path codeLine="82" d="M2088.6709,508.5402 C2022.3909,543.6202 1960.83,576.19 1891.44,612.91 " fill="none" id="Customer-backto-InternalCustomer" style="stroke:#181818;stroke-width:1.0;"/><polygon fill="none" points="2104.58,500.12,2085.8641,503.2372,2091.4776,513.8433,2104.58,500.12" style="stroke:#181818;stroke-width:1.0;"/></g><!--reverse link ICustomerHandler to ExternalCustomerHandler--><g id="link_ICustomerHandler_ExternalCustomerHandler"><path codeLine="84" d="M683.369,234.1726 C690.229,277.9126 699.6,337.62 706.44,381.27 " fill="none" id="ICustomerHandler-backto-ExternalCustomerHandler" style="stroke:#181818;stroke-width:1.0;"/><polygon fill="none" points="680.58,216.39,677.4414,235.1023,689.2965,233.243,680.58,216.39" style="stroke:#181818;stroke-width:1.0;"/></g><!--reverse link ICustomerHandler to InternalCustomerHandler--><g id="link_ICustomerHandler_InternalCustomerHandler"><path codeLine="85" d="M786.8941,221.8177 C838.7241,239.4177 889.82,256.76 961.15,280.98 " fill="none" id="ICustomerHandler-backto-InternalCustomerHandler" style="stroke:#181818;stroke-width:1.0;"/><polygon fill="none" points="769.85,216.03,784.9649,227.4991,788.8234,216.1363,769.85,216.03" style="stroke:#181818;stroke-width:1.0;"/></g><!--link OptionHandler to ICustomerHandler--><g id="link_OptionHandler_ICustomerHandler"><path codeLine="87" d="M465.47,90.15 C509.31,109.33 555.3727,129.466 596.4427,147.426 " fill="none" id="OptionHandler-to-ICustomerHandler" style="stroke:#181818;stroke-width:1.0;stroke-dasharray:7.0,7.0;"/><polygon fill="#181818" points="601.94,149.83,595.2967,142.5591,597.3589,147.8267,592.0913,149.8889,601.94,149.83" style="stroke:#181818;stroke-width:1.0;"/></g><!--link OptionHandler to ScreenDisplay--><g id="link_OptionHandler_ScreenDisplay"><path codeLine="88" d="M324.11,90.34 C301.41,109.5 279.325,128.1299 258.095,146.0499 " fill="none" id="OptionHandler-to-ScreenDisplay" style="stroke:#181818;stroke-width:1.0;stroke-dasharray:7.0,7.0;"/><polygon fill="#181818" points="253.51,149.92,262.9676,147.1715,257.3308,146.6949,257.8074,141.0581,253.51,149.92" style="stroke:#181818;stroke-width:1.0;"/></g><!--link ICustomerHandler to ExitATMHandler--><g id="link_ICustomerHandler_ExitATMHandler"><path codeLine="90" d="M553.16,216.09 C524.16,229.72 496.68,248.95 479.5,276 C413.48,379.91 446.42,434.42 479.5,553 C493.28,602.39 522.9804,646.993 546.9604,678.013 " fill="none" id="ICustomerHandler-to-ExitATMHandler" style="stroke:#181818;stroke-width:1.0;stroke-dasharray:7.0,7.0;"/><polygon fill="#181818" points="550.63,682.76,548.2902,673.1931,547.572,678.8042,541.9609,678.086,550.63,682.76" style="stroke:#181818;stroke-width:1.0;"/></g><!--link ExternalCustomerHandler to ExitATMHandler--><g id="link_ExternalCustomerHandler_ExitATMHandler"><path codeLine="91" d="M697.16,447.55 C671.44,505.05 620.1906,619.5933 594.3906,677.2533 " fill="none" id="ExternalCustomerHandler-to-ExitATMHandler" style="stroke:#181818;stroke-width:1.0;stroke-dasharray:7.0,7.0;"/><polygon fill="#181818" points="591.94,682.73,599.267,676.1486,593.9821,678.166,591.9647,672.8812,591.94,682.73" style="stroke:#181818;stroke-width:1.0;"/></g><!--link InternalCustomerHandler to ExitATMHandler--><g id="link_InternalCustomerHandler_ExitATMHandler"><path codeLine="92" d="M995.93,553.09 C862.06,604.89 728.7355,656.4743 649.4155,687.1743 " fill="none" id="InternalCustomerHandler-to-ExitATMHandler" style="stroke:#181818;stroke-width:1.0;stroke-dasharray:7.0,7.0;"/><polygon fill="#181818" points="643.82,689.34,653.6571,689.8218,648.4829,687.5353,650.7695,682.3611,643.82,689.34" style="stroke:#181818;stroke-width:1.0;"/></g><!--link OptionHandler to ExitATMHandler--><g id="link_OptionHandler_ExitATMHandler"><path codeLine="93" d="M369.48,90.18 C364.55,178.7 361.66,393.66 433.5,553 C457.17,605.49 499.4784,649.1332 533.3184,678.9532 " fill="none" id="OptionHandler-to-ExitATMHandler" style="stroke:#181818;stroke-width:1.0;stroke-dasharray:7.0,7.0;"/><polygon fill="#181818" points="537.82,682.92,533.7122,673.9687,534.0687,679.6143,528.4231,679.9708,537.82,682.92" style="stroke:#181818;stroke-width:1.0;"/></g><!--link InternalCustomerHandler to CustomerRepository--><g id="link_InternalCustomerHandler_CustomerRepository"><path codeLine="95" d="M1313.74,553.42 C1304.75,586.27 1297.1252,614.1032 1289.4552,642.1032 " fill="none" id="InternalCustomerHandler-to-CustomerRepository" style="stroke:#181818;stroke-width:1.0;stroke-dasharray:7.0,7.0;"/><polygon fill="#181818" points="1287.87,647.89,1294.1056,640.2666,1289.191,643.0677,1286.3899,638.153,1287.87,647.89" style="stroke:#181818;stroke-width:1.0;"/></g><!--link InternalCustomerHandler to InternalCustomer--><g id="link_InternalCustomerHandler_InternalCustomer"><path codeLine="96" d="M1511.04,553.2 C1534.36,573.32 1553.4671,589.8305 1575.7671,609.0705 " fill="none" id="InternalCustomerHandler-to-InternalCustomer" style="stroke:#181818;stroke-width:1.0;stroke-dasharray:7.0,7.0;"/><polygon fill="#181818" points="1580.31,612.99,1576.1087,604.0822,1576.5243,609.7238,1570.8827,610.1393,1580.31,612.99" style="stroke:#181818;stroke-width:1.0;"/></g><!--SRC=[jLPTRzCm57tFhx3sb6hjr04I8XgTjgQ3I6itiG8F224tSLjhgHFPpZu4_7USn4uTsodhO55Vwdjyp_MvDyU9KyWOk8afGYJ4B4_X8_Zf0V4Sohyt75B-EQyXVYy0TnbElD-U5rTRnmNZsGPHkMjmWIdZCxX10M2SOhAgbo-XQtK6ESu8JADmLcmMYBQZr-kC85SWX1nTBSynvMiL0E_1mV6xjyF1y5Zy3hpw2AeuVsbMrGSfD5Uwgka3HoLAY8hdeaZJCjTJU7hDMHeD9mySKK5iQcckHs5R1nK_X-JM5bT5p-8uAmZNDjT5czd_KQGggKEeFa2TnzZ6p2FqGMVvrWX6n2sVkMxATmvJI691cQ0ORs0gPcXOHyQG9jVHJ1-keNWEjj7s6HL0VpJmv277zB6SMdt3g-7hDsfS6wXustZ1TDYrE2A-GsgapKEzMDTmftgjqRz1NEheBmmz- -0RPbynNoSKtWTWaMKfWkIxrR-hl2pk8oH9sZJly0FYKuX9RJiHoGlkctCaTmGWCbRiuhkX5HjwmFniFcrGazR_Fc2wFmPjkzIEKx4kOOmi6iDJLLIQwcvwIw-9MuV_oX6H5-EG7bvdkCnMgic-FbTQV8MIY1XCPdy3g-1MCZ5CPY8rKhiRlp_FFlbRUoibohTbQoz_BI-MP9zGdZ7CCog6SsojjMZE2hv6XEDOk57Z8K_B8_X4QI7Y4ATidetNABuDm2Lc_AGsXb7FrkUqfbKsC1LEyxXl-yAwX6Vj_OBHlJAeFRVEAIHiYUXJUP_LZp2hQ61SUg3F44dSgQdmr1oBphc2S5DUaOtnTdwaRMjGToJuWGdZjMtRg5Dn0H7nRLE_z8Au6oeXIW4c1qC1Hp8-xepBUkpCVa-tFlq5K6uaL_MFq-PRuEJNO60vfX4s1VKyox-TQMIm0zrXePxNlk-EZaRMTU60jEuSHu4bfgsErtLFEA1TTk-0sgKPW9t978Ep2svrvWy0]--></g></svg>