<?xml version="1.0" encoding="us-ascii" standalone="no"?><svg xmlns="http://www.w3.org/2000/svg" xmlns:xlink="http://www.w3.org/1999/xlink" contentStyleType="text/css" height="702px" preserveAspectRatio="none" style="width:2707px;height:702px;background:#FFFFFF;" version="1.1" viewBox="0 0 2707 702" width="2707px" zoomAndPan="magnify"><defs/><g><!--class ScreenDisplay--><g id="elem_ScreenDisplay"><rect codeLine="2" fill="#F1F1F1" height="65.6094" id="ScreenDisplay" rx="2.5" ry="2.5" style="stroke:#181818;stroke-width:0.5;" width="208" x="111.5" y="150"/><ellipse cx="165.75" cy="166" fill="#ADD1B2" rx="11" ry="11" style="stroke:#181818;stroke-width:1.0;"/><path d="M168.5156,161.875 Q168.6719,161.6563 168.8594,161.5469 Q169.0469,161.4375 169.2656,161.4375 Q169.6406,161.4375 169.875,161.6953 Q170.1094,161.9531 170.1094,162.5625 L170.1094,164.0156 Q170.1094,164.625 169.875,164.8906 Q169.6406,165.1563 169.2656,165.1563 Q168.9219,165.1563 168.7188,164.9531 Q168.5156,164.7656 168.4063,164.25 Q168.3594,163.8906 168.1719,163.7031 Q167.8438,163.3281 167.2344,163.1094 Q166.625,162.8906 166,162.8906 Q165.2344,162.8906 164.6016,163.2188 Q163.9688,163.5469 163.4766,164.2969 Q162.9844,165.0469 162.9844,166.0781 L162.9844,167.1719 Q162.9844,168.4063 163.875,169.2266 Q164.7656,170.0469 166.3594,170.0469 Q167.2969,170.0469 167.9531,169.7969 Q168.3438,169.6406 168.7656,169.2031 Q169.0313,168.9375 169.1797,168.8594 Q169.3281,168.7813 169.5313,168.7813 Q169.8594,168.7813 170.1172,169.0391 Q170.375,169.2969 170.375,169.6406 Q170.375,169.9844 170.0313,170.3906 Q169.5313,170.9688 168.7344,171.2969 Q167.6563,171.75 166.3594,171.75 Q164.8438,171.75 163.6406,171.125 Q162.6563,170.625 161.9688,169.5547 Q161.2813,168.4844 161.2813,167.2031 L161.2813,166.0469 Q161.2813,164.7188 161.8984,163.5703 Q162.5156,162.4219 163.6094,161.8047 Q164.7031,161.1875 165.9375,161.1875 Q166.6719,161.1875 167.3203,161.3516 Q167.9688,161.5156 168.5156,161.875 Z " fill="#000000"/><text fill="#000000" font-family="sans-serif" font-size="14" lengthAdjust="spacing" textLength="91" x="186.25" y="171.7285">ScreenDisplay</text><line style="stroke:#181818;stroke-width:0.5;" x1="112.5" x2="318.5" y1="182" y2="182"/><line style="stroke:#181818;stroke-width:0.5;" x1="112.5" x2="318.5" y1="190" y2="190"/><ellipse cx="122.5" cy="204.3047" fill="#84BE84" rx="3" ry="3" style="stroke:#038048;stroke-width:1.0;"/><text fill="#000000" font-family="sans-serif" font-size="14" lengthAdjust="spacing" textLength="182" x="131.5" y="208.5332">DisplayStartUpScreen(): void</text></g><!--class Customer--><g id="elem_Customer"><rect codeLine="6" fill="#F1F1F1" height="171.2656" id="Customer" rx="2.5" ry="2.5" style="stroke:#181818;stroke-width:0.5;" width="647" x="1941" y="276"/><ellipse cx="2229.75" cy="292" fill="#ADD1B2" rx="11" ry="11" style="stroke:#181818;stroke-width:1.0;"/><path d="M2232.5156,287.875 Q2232.6719,287.6563 2232.8594,287.5469 Q2233.0469,287.4375 2233.2656,287.4375 Q2233.6406,287.4375 2233.875,287.6953 Q2234.1094,287.9531 2234.1094,288.5625 L2234.1094,290.0156 Q2234.1094,290.625 2233.875,290.8906 Q2233.6406,291.1563 2233.2656,291.1563 Q2232.9219,291.1563 2232.7188,290.9531 Q2232.5156,290.7656 2232.4063,290.25 Q2232.3594,289.8906 2232.1719,289.7031 Q2231.8438,289.3281 2231.2344,289.1094 Q2230.625,288.8906 2230,288.8906 Q2229.2344,288.8906 2228.6016,289.2188 Q2227.9688,289.5469 2227.4766,290.2969 Q2226.9844,291.0469 2226.9844,292.0781 L2226.9844,293.1719 Q2226.9844,294.4063 2227.875,295.2266 Q2228.7656,296.0469 2230.3594,296.0469 Q2231.2969,296.0469 2231.9531,295.7969 Q2232.3438,295.6406 2232.7656,295.2031 Q2233.0313,294.9375 2233.1797,294.8594 Q2233.3281,294.7813 2233.5313,294.7813 Q2233.8594,294.7813 2234.1172,295.0391 Q2234.375,295.2969 2234.375,295.6406 Q2234.375,295.9844 2234.0313,296.3906 Q2233.5313,296.9688 2232.7344,297.2969 Q2231.6563,297.75 2230.3594,297.75 Q2228.8438,297.75 2227.6406,297.125 Q2226.6563,296.625 2225.9688,295.5547 Q2225.2813,294.4844 2225.2813,293.2031 L2225.2813,292.0469 Q2225.2813,290.7188 2225.8984,289.5703 Q2226.5156,288.4219 2227.6094,287.8047 Q2228.7031,287.1875 2229.9375,287.1875 Q2230.6719,287.1875 2231.3203,287.3516 Q2231.9688,287.5156 2232.5156,287.875 Z " fill="#000000"/><text fill="#000000" font-family="sans-serif" font-size="14" lengthAdjust="spacing" textLength="61" x="2250.25" y="297.7285">Customer</text><line style="stroke:#181818;stroke-width:0.5;" x1="1942" x2="2587" y1="308" y2="308"/><rect fill="none" height="6" style="stroke:#C82930;stroke-width:1.0;" width="6" x="1949" y="319.3047"/><text fill="#000000" font-family="sans-serif" font-size="14" lengthAdjust="spacing" textLength="107" x="1961" y="326.5332">FirstName: string</text><rect fill="none" height="6" style="stroke:#C82930;stroke-width:1.0;" width="6" x="1949" y="336.9141"/><text fill="#000000" font-family="sans-serif" font-size="14" lengthAdjust="spacing" textLength="106" x="1961" y="344.1426">LastName: string</text><rect fill="none" height="6" style="stroke:#C82930;stroke-width:1.0;" width="6" x="1949" y="354.5234"/><text fill="#000000" font-family="sans-serif" font-size="14" lengthAdjust="spacing" textLength="156" x="1961" y="361.752">NationalIDNumber: string</text><rect fill="none" height="6" style="stroke:#C82930;stroke-width:1.0;" width="6" x="1949" y="372.1328"/><text fill="#000000" font-family="sans-serif" font-size="14" lengthAdjust="spacing" textLength="133" x="1961" y="379.3613">PhoneNumber: string</text><rect fill="none" height="6" style="stroke:#C82930;stroke-width:1.0;" width="6" x="1949" y="389.7422"/><text fill="#000000" font-family="sans-serif" font-size="14" lengthAdjust="spacing" textLength="217" x="1961" y="396.9707">DateOfBirth: string = "1970-01-01"</text><line style="stroke:#181818;stroke-width:0.5;" x1="1942" x2="2587" y1="404.0469" y2="404.0469"/><ellipse cx="1952" cy="418.3516" fill="#84BE84" rx="3" ry="3" style="stroke:#038048;stroke-width:1.0;"/><text fill="#000000" font-family="sans-serif" font-size="14" lengthAdjust="spacing" textLength="621" x="1961" y="422.5801">Customer(firstName: string, lastName: string, NationalIDNumber: string, PhoneNumber: string): void</text><ellipse cx="1952" cy="435.9609" fill="#84BE84" rx="3" ry="3" style="stroke:#038048;stroke-width:1.0;"/><text fill="#000000" font-family="sans-serif" font-size="14" lengthAdjust="spacing" textLength="323" x="1961" y="440.1895">FullName(firstName: string, lastName: string): string</text></g><!--class ExternalCustomer--><g id="elem_ExternalCustomer"><rect codeLine="17" fill="#F1F1F1" height="136.0469" id="ExternalCustomer" rx="2.5" ry="2.5" style="stroke:#181818;stroke-width:0.5;" width="708" x="1992.5" y="533.5"/><ellipse cx="2286.25" cy="549.5" fill="#ADD1B2" rx="11" ry="11" style="stroke:#181818;stroke-width:1.0;"/><path d="M2289.0156,545.375 Q2289.1719,545.1563 2289.3594,545.0469 Q2289.5469,544.9375 2289.7656,544.9375 Q2290.1406,544.9375 2290.375,545.1953 Q2290.6094,545.4531 2290.6094,546.0625 L2290.6094,547.5156 Q2290.6094,548.125 2290.375,548.3906 Q2290.1406,548.6563 2289.7656,548.6563 Q2289.4219,548.6563 2289.2188,548.4531 Q2289.0156,548.2656 2288.9063,547.75 Q2288.8594,547.3906 2288.6719,547.2031 Q2288.3438,546.8281 2287.7344,546.6094 Q2287.125,546.3906 2286.5,546.3906 Q2285.7344,546.3906 2285.1016,546.7188 Q2284.4688,547.0469 2283.9766,547.7969 Q2283.4844,548.5469 2283.4844,549.5781 L2283.4844,550.6719 Q2283.4844,551.9063 2284.375,552.7266 Q2285.2656,553.5469 2286.8594,553.5469 Q2287.7969,553.5469 2288.4531,553.2969 Q2288.8438,553.1406 2289.2656,552.7031 Q2289.5313,552.4375 2289.6797,552.3594 Q2289.8281,552.2813 2290.0313,552.2813 Q2290.3594,552.2813 2290.6172,552.5391 Q2290.875,552.7969 2290.875,553.1406 Q2290.875,553.4844 2290.5313,553.8906 Q2290.0313,554.4688 2289.2344,554.7969 Q2288.1563,555.25 2286.8594,555.25 Q2285.3438,555.25 2284.1406,554.625 Q2283.1563,554.125 2282.4688,553.0547 Q2281.7813,551.9844 2281.7813,550.7031 L2281.7813,549.5469 Q2281.7813,548.2188 2282.3984,547.0703 Q2283.0156,545.9219 2284.1094,545.3047 Q2285.2031,544.6875 2286.4375,544.6875 Q2287.1719,544.6875 2287.8203,544.8516 Q2288.4688,545.0156 2289.0156,545.375 Z " fill="#000000"/><text fill="#000000" font-family="sans-serif" font-size="14" lengthAdjust="spacing" textLength="112" x="2306.75" y="555.2285">ExternalCustomer</text><line style="stroke:#181818;stroke-width:0.5;" x1="1993.5" x2="2699.5" y1="565.5" y2="565.5"/><rect fill="none" height="6" style="stroke:#C82930;stroke-width:1.0;" width="6" x="2000.5" y="576.8047"/><text fill="#000000" font-family="sans-serif" font-size="14" lengthAdjust="spacing" textLength="168" x="2012.5" y="584.0332">ExternalCustomerID: string</text><rect fill="none" height="6" style="stroke:#C82930;stroke-width:1.0;" width="6" x="2000.5" y="594.4141"/><text fill="#000000" font-family="sans-serif" font-size="14" lengthAdjust="spacing" textLength="162" x="2012.5" y="601.6426">ExternalBankName: string</text><rect fill="none" height="6" style="stroke:#C82930;stroke-width:1.0;" width="6" x="2000.5" y="612.0234"/><text fill="#000000" font-family="sans-serif" font-size="14" lengthAdjust="spacing" textLength="158" x="2012.5" y="619.252">ExternalAccountID: string</text><line style="stroke:#181818;stroke-width:0.5;" x1="1993.5" x2="2699.5" y1="626.3281" y2="626.3281"/><ellipse cx="2003.5" cy="640.6328" fill="#84BE84" rx="3" ry="3" style="stroke:#038048;stroke-width:1.0;"/><text fill="#000000" font-family="sans-serif" font-size="14" lengthAdjust="spacing" textLength="496" x="2012.5" y="644.8613">ExternalCustomer(firstName: string, lastName: string, NationalIDNumber: string,</text><text fill="#000000" font-family="sans-serif" font-size="14" lengthAdjust="spacing" textLength="682" x="2012.5" y="662.4707">PhoneNumber: string, externalCustomerID: string, externalBankName: string, ExternalAccountID: string): void</text></g><!--class InternalCustomer--><g id="elem_InternalCustomer"><rect codeLine="26" fill="#F1F1F1" height="188.875" id="InternalCustomer" rx="2.5" ry="2.5" style="stroke:#181818;stroke-width:0.5;" width="518" x="1439.5" y="507"/><ellipse cx="1640.25" cy="523" fill="#ADD1B2" rx="11" ry="11" style="stroke:#181818;stroke-width:1.0;"/><path d="M1643.0156,518.875 Q1643.1719,518.6563 1643.3594,518.5469 Q1643.5469,518.4375 1643.7656,518.4375 Q1644.1406,518.4375 1644.375,518.6953 Q1644.6094,518.9531 1644.6094,519.5625 L1644.6094,521.0156 Q1644.6094,521.625 1644.375,521.8906 Q1644.1406,522.1563 1643.7656,522.1563 Q1643.4219,522.1563 1643.2188,521.9531 Q1643.0156,521.7656 1642.9063,521.25 Q1642.8594,520.8906 1642.6719,520.7031 Q1642.3438,520.3281 1641.7344,520.1094 Q1641.125,519.8906 1640.5,519.8906 Q1639.7344,519.8906 1639.1016,520.2188 Q1638.4688,520.5469 1637.9766,521.2969 Q1637.4844,522.0469 1637.4844,523.0781 L1637.4844,524.1719 Q1637.4844,525.4063 1638.375,526.2266 Q1639.2656,527.0469 1640.8594,527.0469 Q1641.7969,527.0469 1642.4531,526.7969 Q1642.8438,526.6406 1643.2656,526.2031 Q1643.5313,525.9375 1643.6797,525.8594 Q1643.8281,525.7813 1644.0313,525.7813 Q1644.3594,525.7813 1644.6172,526.0391 Q1644.875,526.2969 1644.875,526.6406 Q1644.875,526.9844 1644.5313,527.3906 Q1644.0313,527.9688 1643.2344,528.2969 Q1642.1563,528.75 1640.8594,528.75 Q1639.3438,528.75 1638.1406,528.125 Q1637.1563,527.625 1636.4688,526.5547 Q1635.7813,525.4844 1635.7813,524.2031 L1635.7813,523.0469 Q1635.7813,521.7188 1636.3984,520.5703 Q1637.0156,519.4219 1638.1094,518.8047 Q1639.2031,518.1875 1640.4375,518.1875 Q1641.1719,518.1875 1641.8203,518.3516 Q1642.4688,518.5156 1643.0156,518.875 Z " fill="#000000"/><text fill="#000000" font-family="sans-serif" font-size="14" lengthAdjust="spacing" textLength="108" x="1660.75" y="528.7285">InternalCustomer</text><line style="stroke:#181818;stroke-width:0.5;" x1="1440.5" x2="1956.5" y1="539" y2="539"/><rect fill="none" height="6" style="stroke:#C82930;stroke-width:1.0;" width="6" x="1447.5" y="550.3047"/><text fill="#000000" font-family="sans-serif" font-size="14" lengthAdjust="spacing" textLength="164" x="1459.5" y="557.5332">InternalCustomerID: string</text><rect fill="none" height="6" style="stroke:#C82930;stroke-width:1.0;" width="6" x="1447.5" y="567.9141"/><text fill="#000000" font-family="sans-serif" font-size="14" lengthAdjust="spacing" textLength="131" x="1459.5" y="575.1426">Balance: decimal = 0</text><rect fill="none" height="6" style="stroke:#C82930;stroke-width:1.0;" width="6" x="1447.5" y="585.5234"/><text fill="#000000" font-family="sans-serif" font-size="14" lengthAdjust="spacing" textLength="153" x="1459.5" y="592.752">CardPIN: string = "0000"</text><rect fill="none" height="6" style="stroke:#C82930;stroke-width:1.0;" width="6" x="1447.5" y="603.1328"/><text fill="#000000" font-family="sans-serif" font-size="14" lengthAdjust="spacing" textLength="277" x="1459.5" y="610.3613">CardNumber: string = "0000000000000000"</text><rect fill="none" height="6" style="stroke:#C82930;stroke-width:1.0;" width="6" x="1447.5" y="620.7422"/><text fill="#000000" font-family="sans-serif" font-size="14" lengthAdjust="spacing" textLength="242" x="1459.5" y="627.9707">CardExpiryDate: string = "2034-01-01"</text><rect fill="none" height="6" style="stroke:#C82930;stroke-width:1.0;" width="6" x="1447.5" y="638.3516"/><text fill="#000000" font-family="sans-serif" font-size="14" lengthAdjust="spacing" textLength="189" x="1459.5" y="645.5801">CardStatus: string = "Passive"</text><line style="stroke:#181818;stroke-width:0.5;" x1="1440.5" x2="1956.5" y1="652.6563" y2="652.6563"/><ellipse cx="1450.5" cy="666.9609" fill="#84BE84" rx="3" ry="3" style="stroke:#038048;stroke-width:1.0;"/><text fill="#000000" font-family="sans-serif" font-size="14" lengthAdjust="spacing" textLength="492" x="1459.5" y="671.1895">InternalCustomer(firstName: string, lastName: string, NationalIDNumber: string,</text><text fill="#000000" font-family="sans-serif" font-size="14" lengthAdjust="spacing" textLength="344" x="1459.5" y="688.7988">PhoneNumber: string, internalCustomerID: string): void</text></g><!--class OptionHandler--><g id="elem_OptionHandler"><rect codeLine="38" fill="#F1F1F1" height="83.2188" id="OptionHandler" rx="2.5" ry="2.5" style="stroke:#181818;stroke-width:0.5;" width="731" x="7" y="7"/><ellipse cx="322.75" cy="23" fill="#ADD1B2" rx="11" ry="11" style="stroke:#181818;stroke-width:1.0;"/><path d="M325.5156,18.875 Q325.6719,18.6563 325.8594,18.5469 Q326.0469,18.4375 326.2656,18.4375 Q326.6406,18.4375 326.875,18.6953 Q327.1094,18.9531 327.1094,19.5625 L327.1094,21.0156 Q327.1094,21.625 326.875,21.8906 Q326.6406,22.1563 326.2656,22.1563 Q325.9219,22.1563 325.7188,21.9531 Q325.5156,21.7656 325.4063,21.25 Q325.3594,20.8906 325.1719,20.7031 Q324.8438,20.3281 324.2344,20.1094 Q323.625,19.8906 323,19.8906 Q322.2344,19.8906 321.6016,20.2188 Q320.9688,20.5469 320.4766,21.2969 Q319.9844,22.0469 319.9844,23.0781 L319.9844,24.1719 Q319.9844,25.4063 320.875,26.2266 Q321.7656,27.0469 323.3594,27.0469 Q324.2969,27.0469 324.9531,26.7969 Q325.3438,26.6406 325.7656,26.2031 Q326.0313,25.9375 326.1797,25.8594 Q326.3281,25.7813 326.5313,25.7813 Q326.8594,25.7813 327.1172,26.0391 Q327.375,26.2969 327.375,26.6406 Q327.375,26.9844 327.0313,27.3906 Q326.5313,27.9688 325.7344,28.2969 Q324.6563,28.75 323.3594,28.75 Q321.8438,28.75 320.6406,28.125 Q319.6563,27.625 318.9688,26.5547 Q318.2813,25.4844 318.2813,24.2031 L318.2813,23.0469 Q318.2813,21.7188 318.8984,20.5703 Q319.5156,19.4219 320.6094,18.8047 Q321.7031,18.1875 322.9375,18.1875 Q323.6719,18.1875 324.3203,18.3516 Q324.9688,18.5156 325.5156,18.875 Z " fill="#000000"/><text fill="#000000" font-family="sans-serif" font-size="14" lengthAdjust="spacing" textLength="91" x="343.25" y="28.7285">OptionHandler</text><line style="stroke:#181818;stroke-width:0.5;" x1="8" x2="737" y1="39" y2="39"/><line style="stroke:#181818;stroke-width:0.5;" x1="8" x2="737" y1="47" y2="47"/><ellipse cx="18" cy="61.3047" fill="#84BE84" rx="3" ry="3" style="stroke:#038048;stroke-width:1.0;"/><text fill="#000000" font-family="sans-serif" font-size="14" lengthAdjust="spacing" textLength="705" x="27" y="65.5332">GetMainScreenInput(externalCustomerHandler: ICustomerHandler, internalCustomerHandler: ICustomerHandler,</text><text fill="#000000" font-family="sans-serif" font-size="14" lengthAdjust="spacing" textLength="442" x="27" y="83.1426">exitATMHandler: ExitATMHandler, screenDisplay: ScreenDisplay): void</text></g><!--class ICustomerHandler--><g id="elem_ICustomerHandler"><rect codeLine="43" fill="#F1F1F1" height="65.6094" id="ICustomerHandler" rx="2.5" ry="2.5" style="stroke:#181818;stroke-width:0.5;" width="429" x="461" y="150"/><ellipse cx="613.75" cy="166" fill="#B4A7E5" rx="11" ry="11" style="stroke:#181818;stroke-width:1.0;"/><path d="M614.7031,162.6406 L614.7031,169.2969 L616.4219,169.2969 Q617.0313,169.2969 617.2969,169.5313 Q617.5625,169.7656 617.5625,170.1563 Q617.5625,170.5313 617.2969,170.7656 Q617.0313,171 616.4219,171 L611.2813,171 Q610.6719,171 610.4063,170.7656 Q610.1406,170.5313 610.1406,170.1406 Q610.1406,169.7656 610.4063,169.5313 Q610.6719,169.2969 611.2813,169.2969 L613,169.2969 L613,162.6406 L611.2813,162.6406 Q610.6719,162.6406 610.4063,162.4063 Q610.1406,162.1719 610.1406,161.7813 Q610.1406,161.4063 610.4063,161.1719 Q610.6719,160.9375 611.2813,160.9375 L616.4219,160.9375 Q617.0313,160.9375 617.2969,161.1719 Q617.5625,161.4063 617.5625,161.7813 Q617.5625,162.1719 617.2969,162.4063 Q617.0313,162.6406 616.4219,162.6406 L614.7031,162.6406 Z " fill="#000000"/><text fill="#000000" font-family="sans-serif" font-size="14" font-style="italic" lengthAdjust="spacing" textLength="115" x="634.25" y="171.7285">ICustomerHandler</text><line style="stroke:#181818;stroke-width:0.5;" x1="462" x2="889" y1="182" y2="182"/><line style="stroke:#181818;stroke-width:0.5;" x1="462" x2="889" y1="190" y2="190"/><ellipse cx="472" cy="204.3047" fill="#84BE84" rx="3" ry="3" style="stroke:#038048;stroke-width:1.0;"/><text fill="#000000" font-family="sans-serif" font-size="14" lengthAdjust="spacing" textLength="403" x="481" y="208.5332">DisplayCustomerScreen(exitATMHandler: ExitATMHandler): void</text></g><!--class ExternalCustomerHandler--><g id="elem_ExternalCustomerHandler"><rect codeLine="47" fill="#F1F1F1" height="65.6094" id="ExternalCustomerHandler" rx="2.5" ry="2.5" style="stroke:#181818;stroke-width:0.5;" width="429" x="497" y="328.5"/><ellipse cx="626.75" cy="344.5" fill="#ADD1B2" rx="11" ry="11" style="stroke:#181818;stroke-width:1.0;"/><path d="M629.5156,340.375 Q629.6719,340.1563 629.8594,340.0469 Q630.0469,339.9375 630.2656,339.9375 Q630.6406,339.9375 630.875,340.1953 Q631.1094,340.4531 631.1094,341.0625 L631.1094,342.5156 Q631.1094,343.125 630.875,343.3906 Q630.6406,343.6563 630.2656,343.6563 Q629.9219,343.6563 629.7188,343.4531 Q629.5156,343.2656 629.4063,342.75 Q629.3594,342.3906 629.1719,342.2031 Q628.8438,341.8281 628.2344,341.6094 Q627.625,341.3906 627,341.3906 Q626.2344,341.3906 625.6016,341.7188 Q624.9688,342.0469 624.4766,342.7969 Q623.9844,343.5469 623.9844,344.5781 L623.9844,345.6719 Q623.9844,346.9063 624.875,347.7266 Q625.7656,348.5469 627.3594,348.5469 Q628.2969,348.5469 628.9531,348.2969 Q629.3438,348.1406 629.7656,347.7031 Q630.0313,347.4375 630.1797,347.3594 Q630.3281,347.2813 630.5313,347.2813 Q630.8594,347.2813 631.1172,347.5391 Q631.375,347.7969 631.375,348.1406 Q631.375,348.4844 631.0313,348.8906 Q630.5313,349.4688 629.7344,349.7969 Q628.6563,350.25 627.3594,350.25 Q625.8438,350.25 624.6406,349.625 Q623.6563,349.125 622.9688,348.0547 Q622.2813,346.9844 622.2813,345.7031 L622.2813,344.5469 Q622.2813,343.2188 622.8984,342.0703 Q623.5156,340.9219 624.6094,340.3047 Q625.7031,339.6875 626.9375,339.6875 Q627.6719,339.6875 628.3203,339.8516 Q628.9688,340.0156 629.5156,340.375 Z " fill="#000000"/><text fill="#000000" font-family="sans-serif" font-size="14" lengthAdjust="spacing" textLength="161" x="647.25" y="350.2285">ExternalCustomerHandler</text><line style="stroke:#181818;stroke-width:0.5;" x1="498" x2="925" y1="360.5" y2="360.5"/><line style="stroke:#181818;stroke-width:0.5;" x1="498" x2="925" y1="368.5" y2="368.5"/><ellipse cx="508" cy="382.8047" fill="#84BE84" rx="3" ry="3" style="stroke:#038048;stroke-width:1.0;"/><text fill="#000000" font-family="sans-serif" font-size="14" lengthAdjust="spacing" textLength="403" x="517" y="387.0332">DisplayCustomerScreen(exitATMHandler: ExitATMHandler): void</text></g><!--class InternalCustomerHandler--><g id="elem_InternalCustomerHandler"><rect codeLine="51" fill="#F1F1F1" height="171.2656" id="InternalCustomerHandler" rx="2.5" ry="2.5" style="stroke:#181818;stroke-width:0.5;" width="780" x="961.5" y="276"/><ellipse cx="1268.75" cy="292" fill="#ADD1B2" rx="11" ry="11" style="stroke:#181818;stroke-width:1.0;"/><path d="M1271.5156,287.875 Q1271.6719,287.6563 1271.8594,287.5469 Q1272.0469,287.4375 1272.2656,287.4375 Q1272.6406,287.4375 1272.875,287.6953 Q1273.1094,287.9531 1273.1094,288.5625 L1273.1094,290.0156 Q1273.1094,290.625 1272.875,290.8906 Q1272.6406,291.1563 1272.2656,291.1563 Q1271.9219,291.1563 1271.7188,290.9531 Q1271.5156,290.7656 1271.4063,290.25 Q1271.3594,289.8906 1271.1719,289.7031 Q1270.8438,289.3281 1270.2344,289.1094 Q1269.625,288.8906 1269,288.8906 Q1268.2344,288.8906 1267.6016,289.2188 Q1266.9688,289.5469 1266.4766,290.2969 Q1265.9844,291.0469 1265.9844,292.0781 L1265.9844,293.1719 Q1265.9844,294.4063 1266.875,295.2266 Q1267.7656,296.0469 1269.3594,296.0469 Q1270.2969,296.0469 1270.9531,295.7969 Q1271.3438,295.6406 1271.7656,295.2031 Q1272.0313,294.9375 1272.1797,294.8594 Q1272.3281,294.7813 1272.5313,294.7813 Q1272.8594,294.7813 1273.1172,295.0391 Q1273.375,295.2969 1273.375,295.6406 Q1273.375,295.9844 1273.0313,296.3906 Q1272.5313,296.9688 1271.7344,297.2969 Q1270.6563,297.75 1269.3594,297.75 Q1267.8438,297.75 1266.6406,297.125 Q1265.6563,296.625 1264.9688,295.5547 Q1264.2813,294.4844 1264.2813,293.2031 L1264.2813,292.0469 Q1264.2813,290.7188 1264.8984,289.5703 Q1265.5156,288.4219 1266.6094,287.8047 Q1267.7031,287.1875 1268.9375,287.1875 Q1269.6719,287.1875 1270.3203,287.3516 Q1270.9688,287.5156 1271.5156,287.875 Z " fill="#000000"/><text fill="#000000" font-family="sans-serif" font-size="14" lengthAdjust="spacing" textLength="157" x="1289.25" y="297.7285">InternalCustomerHandler</text><line style="stroke:#181818;stroke-width:0.5;" x1="962.5" x2="1740.5" y1="308" y2="308"/><line style="stroke:#181818;stroke-width:0.5;" x1="962.5" x2="1740.5" y1="316" y2="316"/><ellipse cx="972.5" cy="330.3047" fill="#84BE84" rx="3" ry="3" style="stroke:#038048;stroke-width:1.0;"/><text fill="#000000" font-family="sans-serif" font-size="14" lengthAdjust="spacing" textLength="403" x="981.5" y="334.5332">DisplayCustomerScreen(exitATMHandler: ExitATMHandler): void</text><ellipse cx="972.5" cy="347.9141" fill="#84BE84" rx="3" ry="3" style="stroke:#038048;stroke-width:1.0;"/><text fill="#000000" font-family="sans-serif" font-size="14" lengthAdjust="spacing" textLength="170" x="981.5" y="352.1426">DisplayLoginScreen(): void</text><text fill="#000000" font-family="sans-serif" font-size="14" lengthAdjust="spacing" textLength="4" x="981.5" y="369.752">&#160;</text><rect fill="#F24D5C" height="6" style="stroke:#C82930;stroke-width:1.0;" width="6" x="969.5" y="380.1328"/><text fill="#000000" font-family="sans-serif" font-size="14" lengthAdjust="spacing" textLength="366" x="981.5" y="387.3613">GetCustomerInput(exitATMHandler: ExitATMHandler): void</text><rect fill="#F24D5C" height="6" style="stroke:#C82930;stroke-width:1.0;" width="6" x="969.5" y="397.7422"/><text fill="#000000" font-family="sans-serif" font-size="14" lengthAdjust="spacing" textLength="665" x="981.5" y="404.9707">LoginWithCardNumber(exitATMHandler: ExitATMHandler, customerRepository: CustomerRepository): void</text><rect fill="#F24D5C" height="6" style="stroke:#C82930;stroke-width:1.0;" width="6" x="969.5" y="415.3516"/><text fill="#000000" font-family="sans-serif" font-size="14" lengthAdjust="spacing" textLength="754" x="981.5" y="422.5801">AuthenticateCustomer(customerRepository: CustomerRepository, cardDetailsToCheck: List&lt;string&gt;): InternalCustomer?</text><rect fill="#F24D5C" height="6" style="stroke:#C82930;stroke-width:1.0;" width="6" x="969.5" y="432.9609"/><text fill="#000000" font-family="sans-serif" font-size="14" lengthAdjust="spacing" textLength="479" x="981.5" y="440.1895">DisplayLoggedInCustomerScreen(internalCustomer: InternalCustomer): void</text></g><!--class CustomerRepository--><g id="elem_CustomerRepository"><rect codeLine="61" fill="#F1F1F1" height="136.0469" id="CustomerRepository" rx="2.5" ry="2.5" style="stroke:#181818;stroke-width:0.5;" width="270" x="1134.5" y="533.5"/><ellipse cx="1200.75" cy="549.5" fill="#ADD1B2" rx="11" ry="11" style="stroke:#181818;stroke-width:1.0;"/><path d="M1203.5156,545.375 Q1203.6719,545.1563 1203.8594,545.0469 Q1204.0469,544.9375 1204.2656,544.9375 Q1204.6406,544.9375 1204.875,545.1953 Q1205.1094,545.4531 1205.1094,546.0625 L1205.1094,547.5156 Q1205.1094,548.125 1204.875,548.3906 Q1204.6406,548.6563 1204.2656,548.6563 Q1203.9219,548.6563 1203.7188,548.4531 Q1203.5156,548.2656 1203.4063,547.75 Q1203.3594,547.3906 1203.1719,547.2031 Q1202.8438,546.8281 1202.2344,546.6094 Q1201.625,546.3906 1201,546.3906 Q1200.2344,546.3906 1199.6016,546.7188 Q1198.9688,547.0469 1198.4766,547.7969 Q1197.9844,548.5469 1197.9844,549.5781 L1197.9844,550.6719 Q1197.9844,551.9063 1198.875,552.7266 Q1199.7656,553.5469 1201.3594,553.5469 Q1202.2969,553.5469 1202.9531,553.2969 Q1203.3438,553.1406 1203.7656,552.7031 Q1204.0313,552.4375 1204.1797,552.3594 Q1204.3281,552.2813 1204.5313,552.2813 Q1204.8594,552.2813 1205.1172,552.5391 Q1205.375,552.7969 1205.375,553.1406 Q1205.375,553.4844 1205.0313,553.8906 Q1204.5313,554.4688 1203.7344,554.7969 Q1202.6563,555.25 1201.3594,555.25 Q1199.8438,555.25 1198.6406,554.625 Q1197.6563,554.125 1196.9688,553.0547 Q1196.2813,551.9844 1196.2813,550.7031 L1196.2813,549.5469 Q1196.2813,548.2188 1196.8984,547.0703 Q1197.5156,545.9219 1198.6094,545.3047 Q1199.7031,544.6875 1200.9375,544.6875 Q1201.6719,544.6875 1202.3203,544.8516 Q1202.9688,545.0156 1203.5156,545.375 Z " fill="#000000"/><text fill="#000000" font-family="sans-serif" font-size="14" lengthAdjust="spacing" textLength="129" x="1221.25" y="555.2285">CustomerRepository</text><line style="stroke:#181818;stroke-width:0.5;" x1="1135.5" x2="1403.5" y1="565.5" y2="565.5"/><rect fill="none" height="6" style="stroke:#C82930;stroke-width:1.0;" width="6" x="1142.5" y="576.8047"/><text fill="#000000" font-family="sans-serif" font-size="14" lengthAdjust="spacing" textLength="244" x="1154.5" y="584.0332">_instance: CustomerRepository? = null</text><ellipse cx="1145.5" cy="597.4141" fill="none" rx="3" ry="3" style="stroke:#038048;stroke-width:1.0;"/><text fill="#000000" font-family="sans-serif" font-size="14" lengthAdjust="spacing" textLength="190" x="1154.5" y="601.6426">Instance: CustomerRepository</text><ellipse cx="1145.5" cy="615.0234" fill="none" rx="3" ry="3" style="stroke:#038048;stroke-width:1.0;"/><text fill="#000000" font-family="sans-serif" font-size="14" lengthAdjust="spacing" textLength="172" x="1154.5" y="619.252">customers: List&lt;Customer&gt;</text><ellipse cx="1145.5" cy="632.6328" fill="none" rx="3" ry="3" style="stroke:#038048;stroke-width:1.0;"/><text fill="#000000" font-family="sans-serif" font-size="14" lengthAdjust="spacing" textLength="175" x="1154.5" y="636.8613">Customers: List&lt;Customer&gt;</text><line style="stroke:#181818;stroke-width:0.5;" x1="1135.5" x2="1403.5" y1="643.9375" y2="643.9375"/><rect fill="#F24D5C" height="6" style="stroke:#C82930;stroke-width:1.0;" width="6" x="1142.5" y="655.2422"/><text fill="#000000" font-family="sans-serif" font-size="14" lengthAdjust="spacing" textLength="139" x="1154.5" y="662.4707">CustomerRepository()</text></g><!--class ExitATMHandler--><g id="elem_ExitATMHandler"><rect codeLine="70" fill="#F1F1F1" height="65.6094" id="ExitATMHandler" rx="2.5" ry="2.5" style="stroke:#181818;stroke-width:0.5;" width="132" x="511.5" y="568.5"/><ellipse cx="526.5" cy="584.5" fill="#ADD1B2" rx="11" ry="11" style="stroke:#181818;stroke-width:1.0;"/><path d="M529.2656,580.375 Q529.4219,580.1563 529.6094,580.0469 Q529.7969,579.9375 530.0156,579.9375 Q530.3906,579.9375 530.625,580.1953 Q530.8594,580.4531 530.8594,581.0625 L530.8594,582.5156 Q530.8594,583.125 530.625,583.3906 Q530.3906,583.6563 530.0156,583.6563 Q529.6719,583.6563 529.4688,583.4531 Q529.2656,583.2656 529.1563,582.75 Q529.1094,582.3906 528.9219,582.2031 Q528.5938,581.8281 527.9844,581.6094 Q527.375,581.3906 526.75,581.3906 Q525.9844,581.3906 525.3516,581.7188 Q524.7188,582.0469 524.2266,582.7969 Q523.7344,583.5469 523.7344,584.5781 L523.7344,585.6719 Q523.7344,586.9063 524.625,587.7266 Q525.5156,588.5469 527.1094,588.5469 Q528.0469,588.5469 528.7031,588.2969 Q529.0938,588.1406 529.5156,587.7031 Q529.7813,587.4375 529.9297,587.3594 Q530.0781,587.2813 530.2813,587.2813 Q530.6094,587.2813 530.8672,587.5391 Q531.125,587.7969 531.125,588.1406 Q531.125,588.4844 530.7813,588.8906 Q530.2813,589.4688 529.4844,589.7969 Q528.4063,590.25 527.1094,590.25 Q525.5938,590.25 524.3906,589.625 Q523.4063,589.125 522.7188,588.0547 Q522.0313,586.9844 522.0313,585.7031 L522.0313,584.5469 Q522.0313,583.2188 522.6484,582.0703 Q523.2656,580.9219 524.3594,580.3047 Q525.4531,579.6875 526.6875,579.6875 Q527.4219,579.6875 528.0703,579.8516 Q528.7188,580.0156 529.2656,580.375 Z " fill="#000000"/><text fill="#000000" font-family="sans-serif" font-size="14" lengthAdjust="spacing" textLength="100" x="540.5" y="590.2285">ExitATMHandler</text><line style="stroke:#181818;stroke-width:0.5;" x1="512.5" x2="642.5" y1="600.5" y2="600.5"/><line style="stroke:#181818;stroke-width:0.5;" x1="512.5" x2="642.5" y1="608.5" y2="608.5"/><ellipse cx="522.5" cy="622.8047" fill="#84BE84" rx="3" ry="3" style="stroke:#038048;stroke-width:1.0;"/><text fill="#000000" font-family="sans-serif" font-size="14" lengthAdjust="spacing" textLength="95" x="531.5" y="627.0332">ExitATM(): void</text></g><!--reverse link Customer to ExternalCustomer--><g id="link_Customer_ExternalCustomer"><path codeLine="74" d="M2299.503,464.0984 C2309.263,492.4284 2314.14,506.58 2323.38,533.38 " fill="none" id="Customer-backto-ExternalCustomer" style="stroke:#181818;stroke-width:1.0;"/><polygon fill="none" points="2293.64,447.08,2293.8302,466.0527,2305.1758,462.144,2293.64,447.08" style="stroke:#181818;stroke-width:1.0;"/></g><!--reverse link Customer to InternalCustomer--><g id="link_Customer_InternalCustomer"><path codeLine="75" d="M2046.7664,454.0552 C2000.6864,473.4252 1968.04,487.16 1921.13,506.89 " fill="none" id="Customer-backto-InternalCustomer" style="stroke:#181818;stroke-width:1.0;"/><polygon fill="none" points="2063.36,447.08,2044.4414,448.524,2049.0915,459.5864,2063.36,447.08" style="stroke:#181818;stroke-width:1.0;"/></g><!--reverse link ICustomerHandler to ExternalCustomerHandler--><g id="link_ICustomerHandler_ExternalCustomerHandler"><path codeLine="77" d="M685.6993,234.0065 C692.1993,265.8565 698.46,296.56 704.94,328.33 " fill="none" id="ICustomerHandler-backto-ExternalCustomerHandler" style="stroke:#181818;stroke-width:1.0;"/><polygon fill="none" points="682.1,216.37,679.8205,235.2062,691.5781,232.8067,682.1,216.37" style="stroke:#181818;stroke-width:1.0;"/></g><!--reverse link ICustomerHandler to InternalCustomerHandler--><g id="link_ICustomerHandler_InternalCustomerHandler"><path codeLine="78" d="M815.7263,220.6169 C880.5363,237.5369 945.99,254.62 1027.75,275.97 " fill="none" id="ICustomerHandler-backto-InternalCustomerHandler" style="stroke:#181818;stroke-width:1.0;"/><polygon fill="none" points="798.31,216.07,814.2106,226.4223,817.2419,214.8115,798.31,216.07" style="stroke:#181818;stroke-width:1.0;"/></g><!--link OptionHandler to ICustomerHandler--><g id="link_OptionHandler_ICustomerHandler"><path codeLine="80" d="M465.47,90.15 C509.31,109.33 555.3727,129.466 596.4427,147.426 " fill="none" id="OptionHandler-to-ICustomerHandler" style="stroke:#181818;stroke-width:1.0;stroke-dasharray:7.0,7.0;"/><polygon fill="#181818" points="601.94,149.83,595.2967,142.5591,597.3589,147.8267,592.0913,149.8889,601.94,149.83" style="stroke:#181818;stroke-width:1.0;"/></g><!--link OptionHandler to ScreenDisplay--><g id="link_OptionHandler_ScreenDisplay"><path codeLine="81" d="M324.11,90.34 C301.41,109.5 279.325,128.1299 258.095,146.0499 " fill="none" id="OptionHandler-to-ScreenDisplay" style="stroke:#181818;stroke-width:1.0;stroke-dasharray:7.0,7.0;"/><polygon fill="#181818" points="253.51,149.92,262.9676,147.1715,257.3308,146.6949,257.8074,141.0581,253.51,149.92" style="stroke:#181818;stroke-width:1.0;"/></g><!--link ICustomerHandler to ExitATMHandler--><g id="link_ICustomerHandler_ExitATMHandler"><path codeLine="83" d="M553.16,216.09 C524.16,229.72 496.68,248.95 479.5,276 C438.75,340.15 458.2,374.05 479.5,447 C493.01,493.28 521.4159,534.2438 545.2359,563.5538 " fill="none" id="ICustomerHandler-to-ExitATMHandler" style="stroke:#181818;stroke-width:1.0;stroke-dasharray:7.0,7.0;"/><polygon fill="#181818" points="549.02,568.21,546.448,558.7029,545.8666,564.3298,540.2397,563.7484,549.02,568.21" style="stroke:#181818;stroke-width:1.0;"/></g><!--link ExternalCustomerHandler to ExitATMHandler--><g id="link_ExternalCustomerHandler_ExitATMHandler"><path codeLine="84" d="M693.43,394.6 C667.85,440.02 624.3144,517.3621 598.6544,562.9221 " fill="none" id="ExternalCustomerHandler-to-ExitATMHandler" style="stroke:#181818;stroke-width:1.0;stroke-dasharray:7.0,7.0;"/><polygon fill="#181818" points="595.71,568.15,603.6118,562.2711,598.1637,563.7935,596.6414,558.3453,595.71,568.15" style="stroke:#181818;stroke-width:1.0;"/></g><!--link InternalCustomerHandler to ExitATMHandler--><g id="link_InternalCustomerHandler_ExitATMHandler"><path codeLine="85" d="M1076.44,447.08 C920.88,494.91 744.665,549.0966 649.275,578.4266 " fill="none" id="InternalCustomerHandler-to-ExitATMHandler" style="stroke:#181818;stroke-width:1.0;stroke-dasharray:7.0,7.0;"/><polygon fill="#181818" points="643.54,580.19,653.3181,581.3683,648.3192,578.7205,650.967,573.7216,643.54,580.19" style="stroke:#181818;stroke-width:1.0;"/></g><!--link OptionHandler to ExitATMHandler--><g id="link_OptionHandler_ExitATMHandler"><path codeLine="86" d="M373.58,90.22 C376.96,164.61 390.94,325.97 448.5,447 C471.15,494.63 507.8626,535.4631 537.5826,564.2831 " fill="none" id="OptionHandler-to-ExitATMHandler" style="stroke:#181818;stroke-width:1.0;stroke-dasharray:7.0,7.0;"/><polygon fill="#181818" points="541.89,568.46,538.2136,559.323,538.3005,564.9792,532.6443,565.0662,541.89,568.46" style="stroke:#181818;stroke-width:1.0;"/></g><!--link InternalCustomerHandler to CustomerRepository--><g id="link_InternalCustomerHandler_CustomerRepository"><path codeLine="88" d="M1322.36,447.08 C1312.6,475.41 1303.8157,500.9077 1294.5757,527.7077 " fill="none" id="InternalCustomerHandler-to-CustomerRepository" style="stroke:#181818;stroke-width:1.0;stroke-dasharray:7.0,7.0;"/><polygon fill="#181818" points="1292.62,533.38,1299.3351,526.1753,1294.2497,528.6531,1291.772,523.5677,1292.62,533.38" style="stroke:#181818;stroke-width:1.0;"/></g><!--link InternalCustomerHandler to InternalCustomer--><g id="link_InternalCustomerHandler_InternalCustomer"><path codeLine="89" d="M1474.82,447.08 C1503.06,466.45 1528.3023,483.7658 1557.0623,503.4958 " fill="none" id="InternalCustomerHandler-to-InternalCustomer" style="stroke:#181818;stroke-width:1.0;stroke-dasharray:7.0,7.0;"/><polygon fill="#181818" points="1562.01,506.89,1556.8513,498.5002,1557.8869,504.0615,1552.3257,505.0971,1562.01,506.89" style="stroke:#181818;stroke-width:1.0;"/></g><!--SRC=[jLPRRzem57xFhx1u0ZLKT9iq3NLKtBf5eXIjdVOuUOu1gy69RAUYslRVPn8xEBumfAqHB_7vVBvpldC9A8ESWmV4CAOpmeiCle2V4P3FXNfz4929hqKDwVQ6u3adQVGxYb1rTLfoaUymKxVwjuHniOGxF0HSC48tzV42-awNK92SmYoPBSlT3ypQrjKsfzXdc461xzSJmiHM6y17qBdwy7xG7rp9NoUgKz31TTTsL378e7qIYYO6daYq41NFRPbb1r_dyFIQN1eDvtk1cIIsjRJFarbR1ssVGFhaYgkjOuJoaWhZSXsqxVqVHQgSUeIA0GwcSRJPASGW6BxJWWdrosUVs_9DO0OfafGfHcG7Czb3WzeoXInT9KkpkGRowHojxHmrm7mCy7nV4FPow5hpmfl1stUwNHked3PHSXEsaYcIPwnRsaxgrQf6Wkev1RWl3ju_GvfcZVeNdx2uWuJMUoEXHIcwTYEe6qEGM2SkUnXQiU4z4UF7kmOrRxt7W9iBRjZUTqOw5UiQ8kpGM4jHMzLMF4tlw3Ntw_1VEHBwQXocWqM-qJLklWrrDylwDwsZgd-kytxbzHiHs-EeTVzMOgJ8lk0YvqJaJDPvwforQCQbs68g29AJsSpJUNuadmnjXWKa6N_CfrkCdePWGRYuheTa99di6joeprSZtGQd2RLgO7U-woRu3Jw6frSW-4ue5_MMSr4tShzG-UcgAofvmb05qU9mbQi6ZfHz6hIhU5pFtPuv66PDTQ-gK_E_HxFght_r-yuyMMPRloXofjlhHXa3wC20HL5x6rvUZfnbue6qDf8dm0EchKuKsY8UQ6WPUA1kQ1RWf3DFuvo2EvNv0m00]--></g></svg>