<?xml version="1.0" encoding="us-ascii" standalone="no"?><svg xmlns="http://www.w3.org/2000/svg" xmlns:xlink="http://www.w3.org/1999/xlink" contentStyleType="text/css" height="1039px" preserveAspectRatio="none" style="width:1930px;height:1039px;background:#FFFFFF;" version="1.1" viewBox="0 0 1930 1039" width="1930px" zoomAndPan="magnify"><defs/><g><!--class ScreenDisplay--><g id="elem_ScreenDisplay"><rect codeLine="2" fill="#F1F1F1" height="65.6094" id="ScreenDisplay" rx="2.5" ry="2.5" style="stroke:#181818;stroke-width:0.5;" width="208" x="1070.21" y="150"/><ellipse cx="1124.46" cy="166" fill="#ADD1B2" rx="11" ry="11" style="stroke:#181818;stroke-width:1.0;"/><path d="M1127.2256,161.875 Q1127.3819,161.6563 1127.5694,161.5469 Q1127.7569,161.4375 1127.9756,161.4375 Q1128.3506,161.4375 1128.585,161.6953 Q1128.8194,161.9531 1128.8194,162.5625 L1128.8194,164.0156 Q1128.8194,164.625 1128.585,164.8906 Q1128.3506,165.1563 1127.9756,165.1563 Q1127.6319,165.1563 1127.4288,164.9531 Q1127.2256,164.7656 1127.1163,164.25 Q1127.0694,163.8906 1126.8819,163.7031 Q1126.5538,163.3281 1125.9444,163.1094 Q1125.335,162.8906 1124.71,162.8906 Q1123.9444,162.8906 1123.3116,163.2188 Q1122.6788,163.5469 1122.1866,164.2969 Q1121.6944,165.0469 1121.6944,166.0781 L1121.6944,167.1719 Q1121.6944,168.4063 1122.585,169.2266 Q1123.4756,170.0469 1125.0694,170.0469 Q1126.0069,170.0469 1126.6631,169.7969 Q1127.0538,169.6406 1127.4756,169.2031 Q1127.7413,168.9375 1127.8897,168.8594 Q1128.0381,168.7813 1128.2413,168.7813 Q1128.5694,168.7813 1128.8272,169.0391 Q1129.085,169.2969 1129.085,169.6406 Q1129.085,169.9844 1128.7413,170.3906 Q1128.2413,170.9688 1127.4444,171.2969 Q1126.3663,171.75 1125.0694,171.75 Q1123.5538,171.75 1122.3506,171.125 Q1121.3663,170.625 1120.6788,169.5547 Q1119.9913,168.4844 1119.9913,167.2031 L1119.9913,166.0469 Q1119.9913,164.7188 1120.6084,163.5703 Q1121.2256,162.4219 1122.3194,161.8047 Q1123.4131,161.1875 1124.6475,161.1875 Q1125.3819,161.1875 1126.0303,161.3516 Q1126.6788,161.5156 1127.2256,161.875 Z " fill="#000000"/><text fill="#000000" font-family="sans-serif" font-size="14" lengthAdjust="spacing" textLength="91" x="1144.96" y="171.7285">ScreenDisplay</text><line style="stroke:#181818;stroke-width:0.5;" x1="1071.21" x2="1277.21" y1="182" y2="182"/><line style="stroke:#181818;stroke-width:0.5;" x1="1071.21" x2="1277.21" y1="190" y2="190"/><ellipse cx="1081.21" cy="204.3047" fill="#84BE84" rx="3" ry="3" style="stroke:#038048;stroke-width:1.0;"/><text fill="#000000" font-family="sans-serif" font-size="14" lengthAdjust="spacing" textLength="182" x="1090.21" y="208.5332">DisplayStartUpScreen(): void</text></g><!--class Customer--><g id="elem_Customer"><rect codeLine="6" fill="#F1F1F1" height="118.4375" id="Customer" rx="2.5" ry="2.5" style="stroke:#181818;stroke-width:0.5;" width="349" x="41.71" y="302.5"/><ellipse cx="181.46" cy="318.5" fill="#ADD1B2" rx="11" ry="11" style="stroke:#181818;stroke-width:1.0;"/><path d="M184.2256,314.375 Q184.3819,314.1563 184.5694,314.0469 Q184.7569,313.9375 184.9756,313.9375 Q185.3506,313.9375 185.585,314.1953 Q185.8194,314.4531 185.8194,315.0625 L185.8194,316.5156 Q185.8194,317.125 185.585,317.3906 Q185.3506,317.6563 184.9756,317.6563 Q184.6319,317.6563 184.4288,317.4531 Q184.2256,317.2656 184.1163,316.75 Q184.0694,316.3906 183.8819,316.2031 Q183.5538,315.8281 182.9444,315.6094 Q182.335,315.3906 181.71,315.3906 Q180.9444,315.3906 180.3116,315.7188 Q179.6788,316.0469 179.1866,316.7969 Q178.6944,317.5469 178.6944,318.5781 L178.6944,319.6719 Q178.6944,320.9063 179.585,321.7266 Q180.4756,322.5469 182.0694,322.5469 Q183.0069,322.5469 183.6631,322.2969 Q184.0538,322.1406 184.4756,321.7031 Q184.7413,321.4375 184.8897,321.3594 Q185.0381,321.2813 185.2413,321.2813 Q185.5694,321.2813 185.8272,321.5391 Q186.085,321.7969 186.085,322.1406 Q186.085,322.4844 185.7413,322.8906 Q185.2413,323.4688 184.4444,323.7969 Q183.3663,324.25 182.0694,324.25 Q180.5538,324.25 179.3506,323.625 Q178.3663,323.125 177.6788,322.0547 Q176.9913,320.9844 176.9913,319.7031 L176.9913,318.5469 Q176.9913,317.2188 177.6084,316.0703 Q178.2256,314.9219 179.3194,314.3047 Q180.4131,313.6875 181.6475,313.6875 Q182.3819,313.6875 183.0303,313.8516 Q183.6788,314.0156 184.2256,314.375 Z " fill="#000000"/><text fill="#000000" font-family="sans-serif" font-size="14" lengthAdjust="spacing" textLength="61" x="201.96" y="324.2285">Customer</text><line style="stroke:#181818;stroke-width:0.5;" x1="42.71" x2="389.71" y1="334.5" y2="334.5"/><rect fill="none" height="6" style="stroke:#C82930;stroke-width:1.0;" width="6" x="49.71" y="345.8047"/><text fill="#000000" font-family="sans-serif" font-size="14" lengthAdjust="spacing" textLength="107" x="61.71" y="353.0332">FirstName: string</text><rect fill="none" height="6" style="stroke:#C82930;stroke-width:1.0;" width="6" x="49.71" y="363.4141"/><text fill="#000000" font-family="sans-serif" font-size="14" lengthAdjust="spacing" textLength="106" x="61.71" y="370.6426">LastName: string</text><line style="stroke:#181818;stroke-width:0.5;" x1="42.71" x2="389.71" y1="377.7188" y2="377.7188"/><ellipse cx="52.71" cy="392.0234" fill="#84BE84" rx="3" ry="3" style="stroke:#038048;stroke-width:1.0;"/><text fill="#000000" font-family="sans-serif" font-size="14" lengthAdjust="spacing" textLength="316" x="61.71" y="396.252">Customer(firstName: string, lastName: string): void</text><ellipse cx="52.71" cy="409.6328" fill="#84BE84" rx="3" ry="3" style="stroke:#038048;stroke-width:1.0;"/><text fill="#000000" font-family="sans-serif" font-size="14" lengthAdjust="spacing" textLength="323" x="61.71" y="413.8613">FullName(firstName: string, lastName: string): string</text></g><!--class ExternalCustomer--><g id="elem_ExternalCustomer"><rect codeLine="14" fill="#F1F1F1" height="83.2188" id="ExternalCustomer" rx="2.5" ry="2.5" style="stroke:#181818;stroke-width:0.5;" width="568" x="100.21" y="604"/><ellipse cx="323.96" cy="620" fill="#ADD1B2" rx="11" ry="11" style="stroke:#181818;stroke-width:1.0;"/><path d="M326.7256,615.875 Q326.8819,615.6563 327.0694,615.5469 Q327.2569,615.4375 327.4756,615.4375 Q327.8506,615.4375 328.085,615.6953 Q328.3194,615.9531 328.3194,616.5625 L328.3194,618.0156 Q328.3194,618.625 328.085,618.8906 Q327.8506,619.1563 327.4756,619.1563 Q327.1319,619.1563 326.9288,618.9531 Q326.7256,618.7656 326.6163,618.25 Q326.5694,617.8906 326.3819,617.7031 Q326.0538,617.3281 325.4444,617.1094 Q324.835,616.8906 324.21,616.8906 Q323.4444,616.8906 322.8116,617.2188 Q322.1788,617.5469 321.6866,618.2969 Q321.1944,619.0469 321.1944,620.0781 L321.1944,621.1719 Q321.1944,622.4063 322.085,623.2266 Q322.9756,624.0469 324.5694,624.0469 Q325.5069,624.0469 326.1631,623.7969 Q326.5538,623.6406 326.9756,623.2031 Q327.2413,622.9375 327.3897,622.8594 Q327.5381,622.7813 327.7413,622.7813 Q328.0694,622.7813 328.3272,623.0391 Q328.585,623.2969 328.585,623.6406 Q328.585,623.9844 328.2413,624.3906 Q327.7413,624.9688 326.9444,625.2969 Q325.8663,625.75 324.5694,625.75 Q323.0538,625.75 321.8506,625.125 Q320.8663,624.625 320.1788,623.5547 Q319.4913,622.4844 319.4913,621.2031 L319.4913,620.0469 Q319.4913,618.7188 320.1084,617.5703 Q320.7256,616.4219 321.8194,615.8047 Q322.9131,615.1875 324.1475,615.1875 Q324.8819,615.1875 325.5303,615.3516 Q326.1788,615.5156 326.7256,615.875 Z " fill="#000000"/><text fill="#000000" font-family="sans-serif" font-size="14" lengthAdjust="spacing" textLength="112" x="344.46" y="625.7285">ExternalCustomer</text><line style="stroke:#181818;stroke-width:0.5;" x1="101.21" x2="667.21" y1="636" y2="636"/><rect fill="none" height="6" style="stroke:#C82930;stroke-width:1.0;" width="6" x="108.21" y="647.3047"/><text fill="#000000" font-family="sans-serif" font-size="14" lengthAdjust="spacing" textLength="168" x="120.21" y="654.5332">ExternalCustomerID: string</text><line style="stroke:#181818;stroke-width:0.5;" x1="101.21" x2="667.21" y1="661.6094" y2="661.6094"/><ellipse cx="111.21" cy="675.9141" fill="#84BE84" rx="3" ry="3" style="stroke:#038048;stroke-width:1.0;"/><text fill="#000000" font-family="sans-serif" font-size="14" lengthAdjust="spacing" textLength="542" x="120.21" y="680.1426">ExternalCustomer(firstName: string, lastName: string, externalCustomerID: string): void</text></g><!--class InternalCustomer--><g id="elem_InternalCustomer"><rect codeLine="20" fill="#F1F1F1" height="188.875" id="InternalCustomer" rx="2.5" ry="2.5" style="stroke:#181818;stroke-width:0.5;" width="561" x="440.71" y="844"/><ellipse cx="662.96" cy="860" fill="#ADD1B2" rx="11" ry="11" style="stroke:#181818;stroke-width:1.0;"/><path d="M665.7256,855.875 Q665.8819,855.6563 666.0694,855.5469 Q666.2569,855.4375 666.4756,855.4375 Q666.8506,855.4375 667.085,855.6953 Q667.3194,855.9531 667.3194,856.5625 L667.3194,858.0156 Q667.3194,858.625 667.085,858.8906 Q666.8506,859.1563 666.4756,859.1563 Q666.1319,859.1563 665.9288,858.9531 Q665.7256,858.7656 665.6163,858.25 Q665.5694,857.8906 665.3819,857.7031 Q665.0538,857.3281 664.4444,857.1094 Q663.835,856.8906 663.21,856.8906 Q662.4444,856.8906 661.8116,857.2188 Q661.1788,857.5469 660.6866,858.2969 Q660.1944,859.0469 660.1944,860.0781 L660.1944,861.1719 Q660.1944,862.4063 661.085,863.2266 Q661.9756,864.0469 663.5694,864.0469 Q664.5069,864.0469 665.1631,863.7969 Q665.5538,863.6406 665.9756,863.2031 Q666.2413,862.9375 666.3897,862.8594 Q666.5381,862.7813 666.7413,862.7813 Q667.0694,862.7813 667.3272,863.0391 Q667.585,863.2969 667.585,863.6406 Q667.585,863.9844 667.2413,864.3906 Q666.7413,864.9688 665.9444,865.2969 Q664.8663,865.75 663.5694,865.75 Q662.0538,865.75 660.8506,865.125 Q659.8663,864.625 659.1788,863.5547 Q658.4913,862.4844 658.4913,861.2031 L658.4913,860.0469 Q658.4913,858.7188 659.1084,857.5703 Q659.7256,856.4219 660.8194,855.8047 Q661.9131,855.1875 663.1475,855.1875 Q663.8819,855.1875 664.5303,855.3516 Q665.1788,855.5156 665.7256,855.875 Z " fill="#000000"/><text fill="#000000" font-family="sans-serif" font-size="14" lengthAdjust="spacing" textLength="108" x="683.46" y="865.7285">InternalCustomer</text><line style="stroke:#181818;stroke-width:0.5;" x1="441.71" x2="1000.71" y1="876" y2="876"/><rect fill="none" height="6" style="stroke:#C82930;stroke-width:1.0;" width="6" x="448.71" y="887.3047"/><text fill="#000000" font-family="sans-serif" font-size="14" lengthAdjust="spacing" textLength="164" x="460.71" y="894.5332">InternalCustomerID: string</text><rect fill="none" height="6" style="stroke:#C82930;stroke-width:1.0;" width="6" x="448.71" y="904.9141"/><text fill="#000000" font-family="sans-serif" font-size="14" lengthAdjust="spacing" textLength="147" x="460.71" y="912.1426">Balance: decimal = 100</text><rect fill="none" height="6" style="stroke:#C82930;stroke-width:1.0;" width="6" x="448.71" y="922.5234"/><text fill="#000000" font-family="sans-serif" font-size="14" lengthAdjust="spacing" textLength="153" x="460.71" y="929.752">CardPIN: string = "0000"</text><rect fill="none" height="6" style="stroke:#C82930;stroke-width:1.0;" width="6" x="448.71" y="940.1328"/><text fill="#000000" font-family="sans-serif" font-size="14" lengthAdjust="spacing" textLength="277" x="460.71" y="947.3613">CardNumber: string = "0000000000000000"</text><line style="stroke:#181818;stroke-width:0.5;" x1="441.71" x2="1000.71" y1="954.4375" y2="954.4375"/><rect fill="#F24D5C" height="6" style="stroke:#C82930;stroke-width:1.0;" width="6" x="448.71" y="965.7422"/><text fill="#000000" font-family="sans-serif" font-size="14" lengthAdjust="spacing" textLength="451" x="460.71" y="972.9707">CardExpiryDate: string = DateTime.Now.AddYears(5).ToString("MM/yy")</text><text fill="#000000" font-family="sans-serif" font-size="14" lengthAdjust="spacing" textLength="4" x="460.71" y="990.5801">&#160;</text><ellipse cx="451.71" cy="1003.9609" fill="#84BE84" rx="3" ry="3" style="stroke:#038048;stroke-width:1.0;"/><text fill="#000000" font-family="sans-serif" font-size="14" lengthAdjust="spacing" textLength="535" x="460.71" y="1008.1895">InternalCustomer(firstName: string, lastName: string, internalCustomerID: string): void</text><ellipse cx="451.71" cy="1021.5703" fill="#84BE84" rx="3" ry="3" style="stroke:#038048;stroke-width:1.0;"/><text fill="#000000" font-family="sans-serif" font-size="14" lengthAdjust="spacing" textLength="365" x="460.71" y="1025.7988">SetBalance(balance: decimal, [isWithdraw: boolean]): void</text></g><!--class OptionHandler--><g id="elem_OptionHandler"><rect codeLine="31" fill="#F1F1F1" height="83.2188" id="OptionHandler" rx="2.5" ry="2.5" style="stroke:#181818;stroke-width:0.5;" width="731" x="1162.71" y="7"/><ellipse cx="1478.46" cy="23" fill="#ADD1B2" rx="11" ry="11" style="stroke:#181818;stroke-width:1.0;"/><path d="M1481.2256,18.875 Q1481.3819,18.6563 1481.5694,18.5469 Q1481.7569,18.4375 1481.9756,18.4375 Q1482.3506,18.4375 1482.585,18.6953 Q1482.8194,18.9531 1482.8194,19.5625 L1482.8194,21.0156 Q1482.8194,21.625 1482.585,21.8906 Q1482.3506,22.1563 1481.9756,22.1563 Q1481.6319,22.1563 1481.4288,21.9531 Q1481.2256,21.7656 1481.1163,21.25 Q1481.0694,20.8906 1480.8819,20.7031 Q1480.5538,20.3281 1479.9444,20.1094 Q1479.335,19.8906 1478.71,19.8906 Q1477.9444,19.8906 1477.3116,20.2188 Q1476.6788,20.5469 1476.1866,21.2969 Q1475.6944,22.0469 1475.6944,23.0781 L1475.6944,24.1719 Q1475.6944,25.4063 1476.585,26.2266 Q1477.4756,27.0469 1479.0694,27.0469 Q1480.0069,27.0469 1480.6631,26.7969 Q1481.0538,26.6406 1481.4756,26.2031 Q1481.7413,25.9375 1481.8897,25.8594 Q1482.0381,25.7813 1482.2413,25.7813 Q1482.5694,25.7813 1482.8272,26.0391 Q1483.085,26.2969 1483.085,26.6406 Q1483.085,26.9844 1482.7413,27.3906 Q1482.2413,27.9688 1481.4444,28.2969 Q1480.3663,28.75 1479.0694,28.75 Q1477.5538,28.75 1476.3506,28.125 Q1475.3663,27.625 1474.6788,26.5547 Q1473.9913,25.4844 1473.9913,24.2031 L1473.9913,23.0469 Q1473.9913,21.7188 1474.6084,20.5703 Q1475.2256,19.4219 1476.3194,18.8047 Q1477.4131,18.1875 1478.6475,18.1875 Q1479.3819,18.1875 1480.0303,18.3516 Q1480.6788,18.5156 1481.2256,18.875 Z " fill="#000000"/><text fill="#000000" font-family="sans-serif" font-size="14" lengthAdjust="spacing" textLength="91" x="1498.96" y="28.7285">OptionHandler</text><line style="stroke:#181818;stroke-width:0.5;" x1="1163.71" x2="1892.71" y1="39" y2="39"/><line style="stroke:#181818;stroke-width:0.5;" x1="1163.71" x2="1892.71" y1="47" y2="47"/><ellipse cx="1173.71" cy="61.3047" fill="#84BE84" rx="3" ry="3" style="stroke:#038048;stroke-width:1.0;"/><text fill="#000000" font-family="sans-serif" font-size="14" lengthAdjust="spacing" textLength="705" x="1182.71" y="65.5332">GetMainScreenInput(externalCustomerHandler: ICustomerHandler, internalCustomerHandler: ICustomerHandler,</text><text fill="#000000" font-family="sans-serif" font-size="14" lengthAdjust="spacing" textLength="442" x="1182.71" y="83.1426">exitATMHandler: ExitATMHandler, screenDisplay: ScreenDisplay): void</text></g><!--class ICustomerHandler--><g id="elem_ICustomerHandler"><rect codeLine="36" fill="#F1F1F1" height="65.6094" id="ICustomerHandler" rx="2.5" ry="2.5" style="stroke:#181818;stroke-width:0.5;" width="429" x="1313.71" y="150"/><ellipse cx="1466.46" cy="166" fill="#B4A7E5" rx="11" ry="11" style="stroke:#181818;stroke-width:1.0;"/><path d="M1467.4131,162.6406 L1467.4131,169.2969 L1469.1319,169.2969 Q1469.7413,169.2969 1470.0069,169.5313 Q1470.2725,169.7656 1470.2725,170.1563 Q1470.2725,170.5313 1470.0069,170.7656 Q1469.7413,171 1469.1319,171 L1463.9913,171 Q1463.3819,171 1463.1163,170.7656 Q1462.8506,170.5313 1462.8506,170.1406 Q1462.8506,169.7656 1463.1163,169.5313 Q1463.3819,169.2969 1463.9913,169.2969 L1465.71,169.2969 L1465.71,162.6406 L1463.9913,162.6406 Q1463.3819,162.6406 1463.1163,162.4063 Q1462.8506,162.1719 1462.8506,161.7813 Q1462.8506,161.4063 1463.1163,161.1719 Q1463.3819,160.9375 1463.9913,160.9375 L1469.1319,160.9375 Q1469.7413,160.9375 1470.0069,161.1719 Q1470.2725,161.4063 1470.2725,161.7813 Q1470.2725,162.1719 1470.0069,162.4063 Q1469.7413,162.6406 1469.1319,162.6406 L1467.4131,162.6406 Z " fill="#000000"/><text fill="#000000" font-family="sans-serif" font-size="14" font-style="italic" lengthAdjust="spacing" textLength="115" x="1486.96" y="171.7285">ICustomerHandler</text><line style="stroke:#181818;stroke-width:0.5;" x1="1314.71" x2="1741.71" y1="182" y2="182"/><line style="stroke:#181818;stroke-width:0.5;" x1="1314.71" x2="1741.71" y1="190" y2="190"/><ellipse cx="1324.71" cy="204.3047" fill="#84BE84" rx="3" ry="3" style="stroke:#038048;stroke-width:1.0;"/><text fill="#000000" font-family="sans-serif" font-size="14" lengthAdjust="spacing" textLength="403" x="1333.71" y="208.5332">DisplayCustomerScreen(exitATMHandler: ExitATMHandler): void</text></g><!--class ExternalCustomerHandler--><g id="elem_ExternalCustomerHandler"><rect codeLine="40" fill="#F1F1F1" height="171.2656" id="ExternalCustomerHandler" rx="2.5" ry="2.5" style="stroke:#181818;stroke-width:0.5;" width="429" x="807.71" y="276"/><ellipse cx="937.46" cy="292" fill="#ADD1B2" rx="11" ry="11" style="stroke:#181818;stroke-width:1.0;"/><path d="M940.2256,287.875 Q940.3819,287.6563 940.5694,287.5469 Q940.7569,287.4375 940.9756,287.4375 Q941.3506,287.4375 941.585,287.6953 Q941.8194,287.9531 941.8194,288.5625 L941.8194,290.0156 Q941.8194,290.625 941.585,290.8906 Q941.3506,291.1563 940.9756,291.1563 Q940.6319,291.1563 940.4288,290.9531 Q940.2256,290.7656 940.1163,290.25 Q940.0694,289.8906 939.8819,289.7031 Q939.5538,289.3281 938.9444,289.1094 Q938.335,288.8906 937.71,288.8906 Q936.9444,288.8906 936.3116,289.2188 Q935.6788,289.5469 935.1866,290.2969 Q934.6944,291.0469 934.6944,292.0781 L934.6944,293.1719 Q934.6944,294.4063 935.585,295.2266 Q936.4756,296.0469 938.0694,296.0469 Q939.0069,296.0469 939.6631,295.7969 Q940.0538,295.6406 940.4756,295.2031 Q940.7413,294.9375 940.8897,294.8594 Q941.0381,294.7813 941.2413,294.7813 Q941.5694,294.7813 941.8272,295.0391 Q942.085,295.2969 942.085,295.6406 Q942.085,295.9844 941.7413,296.3906 Q941.2413,296.9688 940.4444,297.2969 Q939.3663,297.75 938.0694,297.75 Q936.5538,297.75 935.3506,297.125 Q934.3663,296.625 933.6788,295.5547 Q932.9913,294.4844 932.9913,293.2031 L932.9913,292.0469 Q932.9913,290.7188 933.6084,289.5703 Q934.2256,288.4219 935.3194,287.8047 Q936.4131,287.1875 937.6475,287.1875 Q938.3819,287.1875 939.0303,287.3516 Q939.6788,287.5156 940.2256,287.875 Z " fill="#000000"/><text fill="#000000" font-family="sans-serif" font-size="14" lengthAdjust="spacing" textLength="161" x="957.96" y="297.7285">ExternalCustomerHandler</text><line style="stroke:#181818;stroke-width:0.5;" x1="808.71" x2="1235.71" y1="308" y2="308"/><line style="stroke:#181818;stroke-width:0.5;" x1="808.71" x2="1235.71" y1="316" y2="316"/><ellipse cx="818.71" cy="330.3047" fill="#84BE84" rx="3" ry="3" style="stroke:#038048;stroke-width:1.0;"/><text fill="#000000" font-family="sans-serif" font-size="14" lengthAdjust="spacing" textLength="403" x="827.71" y="334.5332">DisplayCustomerScreen(exitATMHandler: ExitATMHandler): void</text><text fill="#000000" font-family="sans-serif" font-size="14" lengthAdjust="spacing" textLength="4" x="827.71" y="352.1426">&#160;</text><rect fill="#F24D5C" height="6" style="stroke:#C82930;stroke-width:1.0;" width="6" x="815.71" y="362.5234"/><text fill="#000000" font-family="sans-serif" font-size="14" lengthAdjust="spacing" textLength="366" x="827.71" y="369.752">GetCustomerInput(exitATMHandler: ExitATMHandler): void</text><rect fill="#F24D5C" height="6" style="stroke:#C82930;stroke-width:1.0;" width="6" x="815.71" y="380.1328"/><text fill="#000000" font-family="sans-serif" font-size="14" lengthAdjust="spacing" textLength="139" x="827.71" y="387.3613">MakeCustomer(): void</text><rect fill="#F24D5C" height="6" style="stroke:#C82930;stroke-width:1.0;" width="6" x="815.71" y="397.7422"/><text fill="#000000" font-family="sans-serif" font-size="14" lengthAdjust="spacing" textLength="401" x="827.71" y="404.9707">CreateInternalCustomer(newCustomer: ExternalCustomer): void</text><rect fill="#F24D5C" height="6" style="stroke:#C82930;stroke-width:1.0;" width="6" x="815.71" y="415.3516"/><text fill="#000000" font-family="sans-serif" font-size="14" lengthAdjust="spacing" textLength="193" x="827.71" y="422.5801">GenerateCardNumber(): string</text><rect fill="#F24D5C" height="6" style="stroke:#C82930;stroke-width:1.0;" width="6" x="815.71" y="432.9609"/><text fill="#000000" font-family="sans-serif" font-size="14" lengthAdjust="spacing" textLength="166" x="827.71" y="440.1895">LoginNewCustomer(): void</text></g><!--class InternalCustomerHandler--><g id="elem_InternalCustomerHandler"><rect codeLine="50" fill="#F1F1F1" height="276.9219" id="InternalCustomerHandler" rx="2.5" ry="2.5" style="stroke:#181818;stroke-width:0.5;" width="780" x="845.21" y="507"/><ellipse cx="1152.46" cy="523" fill="#ADD1B2" rx="11" ry="11" style="stroke:#181818;stroke-width:1.0;"/><path d="M1155.2256,518.875 Q1155.3819,518.6563 1155.5694,518.5469 Q1155.7569,518.4375 1155.9756,518.4375 Q1156.3506,518.4375 1156.585,518.6953 Q1156.8194,518.9531 1156.8194,519.5625 L1156.8194,521.0156 Q1156.8194,521.625 1156.585,521.8906 Q1156.3506,522.1563 1155.9756,522.1563 Q1155.6319,522.1563 1155.4288,521.9531 Q1155.2256,521.7656 1155.1163,521.25 Q1155.0694,520.8906 1154.8819,520.7031 Q1154.5538,520.3281 1153.9444,520.1094 Q1153.335,519.8906 1152.71,519.8906 Q1151.9444,519.8906 1151.3116,520.2188 Q1150.6788,520.5469 1150.1866,521.2969 Q1149.6944,522.0469 1149.6944,523.0781 L1149.6944,524.1719 Q1149.6944,525.4063 1150.585,526.2266 Q1151.4756,527.0469 1153.0694,527.0469 Q1154.0069,527.0469 1154.6631,526.7969 Q1155.0538,526.6406 1155.4756,526.2031 Q1155.7413,525.9375 1155.8897,525.8594 Q1156.0381,525.7813 1156.2413,525.7813 Q1156.5694,525.7813 1156.8272,526.0391 Q1157.085,526.2969 1157.085,526.6406 Q1157.085,526.9844 1156.7413,527.3906 Q1156.2413,527.9688 1155.4444,528.2969 Q1154.3663,528.75 1153.0694,528.75 Q1151.5538,528.75 1150.3506,528.125 Q1149.3663,527.625 1148.6788,526.5547 Q1147.9913,525.4844 1147.9913,524.2031 L1147.9913,523.0469 Q1147.9913,521.7188 1148.6084,520.5703 Q1149.2256,519.4219 1150.3194,518.8047 Q1151.4131,518.1875 1152.6475,518.1875 Q1153.3819,518.1875 1154.0303,518.3516 Q1154.6788,518.5156 1155.2256,518.875 Z " fill="#000000"/><text fill="#000000" font-family="sans-serif" font-size="14" lengthAdjust="spacing" textLength="157" x="1172.96" y="528.7285">InternalCustomerHandler</text><line style="stroke:#181818;stroke-width:0.5;" x1="846.21" x2="1624.21" y1="539" y2="539"/><line style="stroke:#181818;stroke-width:0.5;" x1="846.21" x2="1624.21" y1="547" y2="547"/><ellipse cx="856.21" cy="561.3047" fill="#84BE84" rx="3" ry="3" style="stroke:#038048;stroke-width:1.0;"/><text fill="#000000" font-family="sans-serif" font-size="14" lengthAdjust="spacing" textLength="403" x="865.21" y="565.5332">DisplayCustomerScreen(exitATMHandler: ExitATMHandler): void</text><text fill="#000000" font-family="sans-serif" font-size="14" lengthAdjust="spacing" textLength="4" x="865.21" y="583.1426">&#160;</text><rect fill="#F24D5C" height="6" style="stroke:#C82930;stroke-width:1.0;" width="6" x="853.21" y="593.5234"/><text fill="#000000" font-family="sans-serif" font-size="14" lengthAdjust="spacing" textLength="170" x="865.21" y="600.752">DisplayLoginScreen(): void</text><rect fill="#F24D5C" height="6" style="stroke:#C82930;stroke-width:1.0;" width="6" x="853.21" y="611.1328"/><text fill="#000000" font-family="sans-serif" font-size="14" lengthAdjust="spacing" textLength="479" x="865.21" y="618.3613">DisplayLoggedInCustomerScreen(internalCustomer: InternalCustomer): void</text><rect fill="#F24D5C" height="6" style="stroke:#C82930;stroke-width:1.0;" width="6" x="853.21" y="628.7422"/><text fill="#000000" font-family="sans-serif" font-size="14" lengthAdjust="spacing" textLength="657" x="865.21" y="635.9707">GetLoggedInCustomerInput(exitATMHandler: ExitATMHandler, internalCustomer: InternalCustomer): void</text><rect fill="#F24D5C" height="6" style="stroke:#C82930;stroke-width:1.0;" width="6" x="853.21" y="646.3516"/><text fill="#000000" font-family="sans-serif" font-size="14" lengthAdjust="spacing" textLength="366" x="865.21" y="653.5801">GetCustomerInput(exitATMHandler: ExitATMHandler): void</text><rect fill="#F24D5C" height="6" style="stroke:#C82930;stroke-width:1.0;" width="6" x="853.21" y="663.9609"/><text fill="#000000" font-family="sans-serif" font-size="14" lengthAdjust="spacing" textLength="665" x="865.21" y="671.1895">LoginWithCardNumber(exitATMHandler: ExitATMHandler, customerRepository: CustomerRepository): void</text><rect fill="#F24D5C" height="6" style="stroke:#C82930;stroke-width:1.0;" width="6" x="853.21" y="681.5703"/><text fill="#000000" font-family="sans-serif" font-size="14" lengthAdjust="spacing" textLength="754" x="865.21" y="688.7988">AuthenticateCustomer(customerRepository: CustomerRepository, cardDetailsToCheck: List&lt;string&gt;): InternalCustomer?</text><rect fill="#F24D5C" height="6" style="stroke:#C82930;stroke-width:1.0;" width="6" x="853.21" y="699.1797"/><text fill="#000000" font-family="sans-serif" font-size="14" lengthAdjust="spacing" textLength="368" x="865.21" y="706.4082">WithdrawMoney(internalCustomer: InternalCustomer): void</text><rect fill="#F24D5C" height="6" style="stroke:#C82930;stroke-width:1.0;" width="6" x="853.21" y="716.7891"/><text fill="#000000" font-family="sans-serif" font-size="14" lengthAdjust="spacing" textLength="358" x="865.21" y="724.0176">DepositMoney(internalCustomer: InternalCustomer): void</text><rect fill="#F24D5C" height="6" style="stroke:#C82930;stroke-width:1.0;" width="6" x="853.21" y="734.3984"/><text fill="#000000" font-family="sans-serif" font-size="14" lengthAdjust="spacing" textLength="348" x="865.21" y="741.627">ViewBalance(internalCustomer: InternalCustomer): void</text><rect fill="#F24D5C" height="6" style="stroke:#C82930;stroke-width:1.0;" width="6" x="853.21" y="752.0078"/><text fill="#000000" font-family="sans-serif" font-size="14" lengthAdjust="spacing" textLength="635" x="865.21" y="759.2363">TransferMoney(internalCustomer: InternalCustomer, customerRepository: CustomerRepository): void</text><rect fill="#F24D5C" height="6" style="stroke:#C82930;stroke-width:1.0;" width="6" x="853.21" y="769.6172"/><text fill="#000000" font-family="sans-serif" font-size="14" lengthAdjust="spacing" textLength="586" x="865.21" y="776.8457">DoTransaction(sender: InternalCustomer, recipient: InternalCustomer, amount: decimal): void</text></g><!--class CustomerRepository--><g id="elem_CustomerRepository"><rect codeLine="66" fill="#F1F1F1" height="136.0469" id="CustomerRepository" rx="2.5" ry="2.5" style="stroke:#181818;stroke-width:0.5;" width="270" x="1069.21" y="870.5"/><ellipse cx="1135.46" cy="886.5" fill="#ADD1B2" rx="11" ry="11" style="stroke:#181818;stroke-width:1.0;"/><path d="M1138.2256,882.375 Q1138.3819,882.1563 1138.5694,882.0469 Q1138.7569,881.9375 1138.9756,881.9375 Q1139.3506,881.9375 1139.585,882.1953 Q1139.8194,882.4531 1139.8194,883.0625 L1139.8194,884.5156 Q1139.8194,885.125 1139.585,885.3906 Q1139.3506,885.6563 1138.9756,885.6563 Q1138.6319,885.6563 1138.4288,885.4531 Q1138.2256,885.2656 1138.1163,884.75 Q1138.0694,884.3906 1137.8819,884.2031 Q1137.5538,883.8281 1136.9444,883.6094 Q1136.335,883.3906 1135.71,883.3906 Q1134.9444,883.3906 1134.3116,883.7188 Q1133.6788,884.0469 1133.1866,884.7969 Q1132.6944,885.5469 1132.6944,886.5781 L1132.6944,887.6719 Q1132.6944,888.9063 1133.585,889.7266 Q1134.4756,890.5469 1136.0694,890.5469 Q1137.0069,890.5469 1137.6631,890.2969 Q1138.0538,890.1406 1138.4756,889.7031 Q1138.7413,889.4375 1138.8897,889.3594 Q1139.0381,889.2813 1139.2413,889.2813 Q1139.5694,889.2813 1139.8272,889.5391 Q1140.085,889.7969 1140.085,890.1406 Q1140.085,890.4844 1139.7413,890.8906 Q1139.2413,891.4688 1138.4444,891.7969 Q1137.3663,892.25 1136.0694,892.25 Q1134.5538,892.25 1133.3506,891.625 Q1132.3663,891.125 1131.6788,890.0547 Q1130.9913,888.9844 1130.9913,887.7031 L1130.9913,886.5469 Q1130.9913,885.2188 1131.6084,884.0703 Q1132.2256,882.9219 1133.3194,882.3047 Q1134.4131,881.6875 1135.6475,881.6875 Q1136.3819,881.6875 1137.0303,881.8516 Q1137.6788,882.0156 1138.2256,882.375 Z " fill="#000000"/><text fill="#000000" font-family="sans-serif" font-size="14" lengthAdjust="spacing" textLength="129" x="1155.96" y="892.2285">CustomerRepository</text><line style="stroke:#181818;stroke-width:0.5;" x1="1070.21" x2="1338.21" y1="902.5" y2="902.5"/><rect fill="none" height="6" style="stroke:#C82930;stroke-width:1.0;" width="6" x="1077.21" y="913.8047"/><text fill="#000000" font-family="sans-serif" font-size="14" lengthAdjust="spacing" textLength="244" x="1089.21" y="921.0332">_instance: CustomerRepository? = null</text><ellipse cx="1080.21" cy="934.4141" fill="none" rx="3" ry="3" style="stroke:#038048;stroke-width:1.0;"/><text fill="#000000" font-family="sans-serif" font-size="14" lengthAdjust="spacing" textLength="190" x="1089.21" y="938.6426">Instance: CustomerRepository</text><ellipse cx="1080.21" cy="952.0234" fill="none" rx="3" ry="3" style="stroke:#038048;stroke-width:1.0;"/><text fill="#000000" font-family="sans-serif" font-size="14" lengthAdjust="spacing" textLength="172" x="1089.21" y="956.252">customers: List&lt;Customer&gt;</text><ellipse cx="1080.21" cy="969.6328" fill="none" rx="3" ry="3" style="stroke:#038048;stroke-width:1.0;"/><text fill="#000000" font-family="sans-serif" font-size="14" lengthAdjust="spacing" textLength="175" x="1089.21" y="973.8613">Customers: List&lt;Customer&gt;</text><line style="stroke:#181818;stroke-width:0.5;" x1="1070.21" x2="1338.21" y1="980.9375" y2="980.9375"/><rect fill="#F24D5C" height="6" style="stroke:#C82930;stroke-width:1.0;" width="6" x="1077.21" y="992.2422"/><text fill="#000000" font-family="sans-serif" font-size="14" lengthAdjust="spacing" textLength="139" x="1089.21" y="999.4707">CustomerRepository()</text></g><!--class ExitATMHandler--><g id="elem_ExitATMHandler"><rect codeLine="75" fill="#F1F1F1" height="65.6094" id="ExitATMHandler" rx="2.5" ry="2.5" style="stroke:#181818;stroke-width:0.5;" width="132" x="1647.21" y="905.5"/><ellipse cx="1662.21" cy="921.5" fill="#ADD1B2" rx="11" ry="11" style="stroke:#181818;stroke-width:1.0;"/><path d="M1664.9756,917.375 Q1665.1319,917.1563 1665.3194,917.0469 Q1665.5069,916.9375 1665.7256,916.9375 Q1666.1006,916.9375 1666.335,917.1953 Q1666.5694,917.4531 1666.5694,918.0625 L1666.5694,919.5156 Q1666.5694,920.125 1666.335,920.3906 Q1666.1006,920.6563 1665.7256,920.6563 Q1665.3819,920.6563 1665.1788,920.4531 Q1664.9756,920.2656 1664.8663,919.75 Q1664.8194,919.3906 1664.6319,919.2031 Q1664.3038,918.8281 1663.6944,918.6094 Q1663.085,918.3906 1662.46,918.3906 Q1661.6944,918.3906 1661.0616,918.7188 Q1660.4288,919.0469 1659.9366,919.7969 Q1659.4444,920.5469 1659.4444,921.5781 L1659.4444,922.6719 Q1659.4444,923.9063 1660.335,924.7266 Q1661.2256,925.5469 1662.8194,925.5469 Q1663.7569,925.5469 1664.4131,925.2969 Q1664.8038,925.1406 1665.2256,924.7031 Q1665.4913,924.4375 1665.6397,924.3594 Q1665.7881,924.2813 1665.9913,924.2813 Q1666.3194,924.2813 1666.5772,924.5391 Q1666.835,924.7969 1666.835,925.1406 Q1666.835,925.4844 1666.4913,925.8906 Q1665.9913,926.4688 1665.1944,926.7969 Q1664.1163,927.25 1662.8194,927.25 Q1661.3038,927.25 1660.1006,926.625 Q1659.1163,926.125 1658.4288,925.0547 Q1657.7413,923.9844 1657.7413,922.7031 L1657.7413,921.5469 Q1657.7413,920.2188 1658.3584,919.0703 Q1658.9756,917.9219 1660.0694,917.3047 Q1661.1631,916.6875 1662.3975,916.6875 Q1663.1319,916.6875 1663.7803,916.8516 Q1664.4288,917.0156 1664.9756,917.375 Z " fill="#000000"/><text fill="#000000" font-family="sans-serif" font-size="14" lengthAdjust="spacing" textLength="100" x="1676.21" y="927.2285">ExitATMHandler</text><line style="stroke:#181818;stroke-width:0.5;" x1="1648.21" x2="1778.21" y1="937.5" y2="937.5"/><line style="stroke:#181818;stroke-width:0.5;" x1="1648.21" x2="1778.21" y1="945.5" y2="945.5"/><ellipse cx="1658.21" cy="959.8047" fill="#84BE84" rx="3" ry="3" style="stroke:#038048;stroke-width:1.0;"/><text fill="#000000" font-family="sans-serif" font-size="14" lengthAdjust="spacing" textLength="95" x="1667.21" y="964.0332">ExitATM(): void</text></g><!--reverse link Customer to ExternalCustomer--><g id="link_Customer_ExternalCustomer"><path codeLine="79" d="M260.0218,436.0543 C292.5818,490.7143 331.3,555.69 359.96,603.8 " fill="none" id="Customer-backto-ExternalCustomer" style="stroke:#181818;stroke-width:1.0;"/><polygon fill="none" points="250.81,420.59,254.867,439.1248,265.1765,432.9837,250.81,420.59" style="stroke:#181818;stroke-width:1.0;"/></g><!--reverse link Customer to InternalCustomer--><g id="link_Customer_InternalCustomer"><path codeLine="80" d="M130.4344,433.4695 C106.2244,457.3095 95.01,474.35 82.21,507 C37.24,621.61 6,687.31 82.21,784 C127.89,841.96 290.6,880.54 440.39,904.53 " fill="none" id="Customer-backto-InternalCustomer" style="stroke:#181818;stroke-width:1.0;"/><polygon fill="none" points="143.26,420.84,126.2246,429.1944,134.6443,437.7447,143.26,420.84" style="stroke:#181818;stroke-width:1.0;"/></g><!--reverse link ICustomerHandler to ExternalCustomerHandler--><g id="link_ICustomerHandler_ExternalCustomerHandler"><path codeLine="82" d="M1419.2832,221.9953 C1363.4332,241.4653 1306.67,261.28 1236.88,285.62 " fill="none" id="ICustomerHandler-backto-ExternalCustomerHandler" style="stroke:#181818;stroke-width:1.0;"/><polygon fill="none" points="1436.28,216.07,1417.3081,216.3297,1421.2583,227.6609,1436.28,216.07" style="stroke:#181818;stroke-width:1.0;"/></g><!--reverse link ICustomerHandler to InternalCustomerHandler--><g id="link_ICustomerHandler_InternalCustomerHandler"><path codeLine="83" d="M1498.1756,231.2055 C1460.4356,290.5055 1387.31,405.45 1322.8,506.83 " fill="none" id="ICustomerHandler-backto-InternalCustomerHandler" style="stroke:#181818;stroke-width:1.0;"/><polygon fill="none" points="1507.84,216.02,1493.1138,227.984,1503.2374,234.427,1507.84,216.02" style="stroke:#181818;stroke-width:1.0;"/></g><!--link OptionHandler to ICustomerHandler--><g id="link_OptionHandler_ICustomerHandler"><path codeLine="85" d="M1528.21,90.34 C1528.21,109.5 1528.21,126 1528.21,143.92 " fill="none" id="OptionHandler-to-ICustomerHandler" style="stroke:#181818;stroke-width:1.0;stroke-dasharray:7.0,7.0;"/><polygon fill="#181818" points="1528.21,149.92,1532.21,140.92,1528.21,144.92,1524.21,140.92,1528.21,149.92" style="stroke:#181818;stroke-width:1.0;"/></g><!--link OptionHandler to ScreenDisplay--><g id="link_OptionHandler_ScreenDisplay"><path codeLine="86" d="M1419.59,90.15 C1368.27,109.36 1313.5092,129.8565 1265.4792,147.8365 " fill="none" id="OptionHandler-to-ScreenDisplay" style="stroke:#181818;stroke-width:1.0;stroke-dasharray:7.0,7.0;"/><polygon fill="#181818" points="1259.86,149.94,1269.6911,150.5308,1264.5426,148.1871,1266.8864,143.0386,1259.86,149.94" style="stroke:#181818;stroke-width:1.0;"/></g><!--link ICustomerHandler to ExitATMHandler--><g id="link_ICustomerHandler_ExitATMHandler"><path codeLine="88" d="M1551.99,216.27 C1591.56,272.12 1669.61,391.87 1700.21,507 C1738.62,651.53 1725.5829,827.0245 1717.7729,899.4945 " fill="none" id="ICustomerHandler-to-ExitATMHandler" style="stroke:#181818;stroke-width:1.0;stroke-dasharray:7.0,7.0;"/><polygon fill="#181818" points="1717.13,905.46,1722.0713,896.9404,1717.6657,900.4888,1714.1174,896.0832,1717.13,905.46" style="stroke:#181818;stroke-width:1.0;"/></g><!--link ExternalCustomerHandler to ExitATMHandler--><g id="link_ExternalCustomerHandler_ExitATMHandler"><path codeLine="89" d="M1237.08,386.91 C1393.8,409.27 1588.03,447.97 1643.21,507 C1697.31,564.88 1709.5468,809.7628 1712.2868,899.4628 " fill="none" id="ExternalCustomerHandler-to-ExitATMHandler" style="stroke:#181818;stroke-width:1.0;stroke-dasharray:7.0,7.0;"/><polygon fill="#181818" points="1712.47,905.46,1716.1933,896.3421,1712.3173,900.4623,1708.1971,896.5863,1712.47,905.46" style="stroke:#181818;stroke-width:1.0;"/></g><!--link InternalCustomerHandler to ExitATMHandler--><g id="link_InternalCustomerHandler_ExitATMHandler"><path codeLine="90" d="M1461.26,784.12 C1535.64,829.4 1606.5851,872.5899 1655.3851,902.2999 " fill="none" id="InternalCustomerHandler-to-ExitATMHandler" style="stroke:#181818;stroke-width:1.0;stroke-dasharray:7.0,7.0;"/><polygon fill="#181818" points="1660.51,905.42,1654.9027,897.3232,1656.2392,902.8199,1650.7425,904.1564,1660.51,905.42" style="stroke:#181818;stroke-width:1.0;"/></g><!--link OptionHandler to ExitATMHandler--><g id="link_OptionHandler_ExitATMHandler"><path codeLine="91" d="M1689.48,90.13 C1717.46,104.48 1743.04,123.86 1760.21,150 C1923.14,398.15 1778.8327,785.1105 1730.0227,899.6205 " fill="none" id="OptionHandler-to-ExitATMHandler" style="stroke:#181818;stroke-width:1.0;stroke-dasharray:7.0,7.0;"/><polygon fill="#181818" points="1727.67,905.14,1734.8787,898.4292,1729.6306,900.5404,1727.5194,895.2923,1727.67,905.14" style="stroke:#181818;stroke-width:1.0;"/></g><!--link InternalCustomerHandler to CustomerRepository--><g id="link_InternalCustomerHandler_CustomerRepository"><path codeLine="93" d="M1220.52,784.33 C1217.33,814.3 1214.7251,838.7337 1211.9851,864.4737 " fill="none" id="InternalCustomerHandler-to-CustomerRepository" style="stroke:#181818;stroke-width:1.0;stroke-dasharray:7.0,7.0;"/><polygon fill="#181818" points="1211.35,870.44,1216.2802,861.914,1211.8793,865.4681,1208.3251,861.0672,1211.35,870.44" style="stroke:#181818;stroke-width:1.0;"/></g><!--link InternalCustomerHandler to InternalCustomer--><g id="link_InternalCustomerHandler_InternalCustomer"><path codeLine="94" d="M992.13,784.12 C956.42,804.33 925.5711,821.7936 891.9111,840.8536 " fill="none" id="InternalCustomerHandler-to-InternalCustomer" style="stroke:#181818;stroke-width:1.0;stroke-dasharray:7.0,7.0;"/><polygon fill="#181818" points="886.69,843.81,896.4926,842.8561,891.0409,841.3463,892.5506,835.8946,886.69,843.81" style="stroke:#181818;stroke-width:1.0;"/></g><!--link ExternalCustomerHandler to CustomerRepository--><g id="link_ExternalCustomerHandler_CustomerRepository"><path codeLine="96" d="M874.32,447.2 C855.33,464.49 838.58,484.42 827.21,507 C771.83,616.95 754.28,684.81 827.21,784 C880.16,856.03 936.36,810.39 1019.21,844 C1038.63,851.88 1053.3831,858.4189 1072.9431,867.8289 " fill="none" id="ExternalCustomerHandler-to-CustomerRepository" style="stroke:#181818;stroke-width:1.0;stroke-dasharray:7.0,7.0;"/><polygon fill="#181818" points="1078.35,870.43,1071.9738,862.9237,1073.8443,868.2624,1068.5056,870.1328,1078.35,870.43" style="stroke:#181818;stroke-width:1.0;"/></g><!--link ExternalCustomerHandler to InternalCustomerHandler--><g id="link_ExternalCustomerHandler_InternalCustomerHandler"><path codeLine="97" d="M1086.11,447.11 C1100.39,466.01 1112.2743,481.7418 1127.6943,502.1618 " fill="none" id="ExternalCustomerHandler-to-InternalCustomerHandler" style="stroke:#181818;stroke-width:1.0;stroke-dasharray:7.0,7.0;"/><polygon fill="#181818" points="1131.31,506.95,1129.0785,497.3573,1128.2969,502.9599,1122.6943,502.1783,1131.31,506.95" style="stroke:#181818;stroke-width:1.0;"/></g><!--link ExternalCustomerHandler to ExternalCustomer--><g id="link_ExternalCustomerHandler_ExternalCustomer"><path codeLine="98" d="M830.7,447.12 C786.22,466.77 739.06,487.62 695.21,507 C621.5,539.58 543.4678,574.0843 481.5478,601.4543 " fill="none" id="ExternalCustomerHandler-to-ExternalCustomer" style="stroke:#181818;stroke-width:1.0;stroke-dasharray:7.0,7.0;"/><polygon fill="#181818" points="476.06,603.88,485.9088,603.8999,480.6332,601.8586,482.6745,596.5829,476.06,603.88" style="stroke:#181818;stroke-width:1.0;"/></g><!--link ExternalCustomerHandler to InternalCustomer--><g id="link_ExternalCustomerHandler_InternalCustomer"><path codeLine="99" d="M829.1,447.13 C806.66,464.05 786.41,483.9 771.21,507 C705.03,607.57 701.5858,744.6072 708.6558,837.7272 " fill="none" id="ExternalCustomerHandler-to-InternalCustomer" style="stroke:#181818;stroke-width:1.0;stroke-dasharray:7.0,7.0;"/><polygon fill="#181818" points="709.11,843.71,712.4172,834.433,708.7315,838.7243,704.4401,835.0387,709.11,843.71" style="stroke:#181818;stroke-width:1.0;"/></g><!--SRC=[hLRVRzem47xFNs7n55HWtSDUeguL0zeX5LODjccQfibDhgtLO4Us6KNR_lSvYGF9EO6qQfuIttVtdUzdmfWgHHQX1E1ZffAORiaVZvZdn7ukD9NwIv93_6v0VWiMUVyyBynKHskbnGgarUfVCgdqdAuW84fBnk_puskAJdEEGjk_msez4YELWZfJl5p7SIfigMX9TrvFdZH8JcFiFJwVZf736D26lqUWqQmJpoclzmoVbppBv1zeJ7beE2C8sOh6v3rvUtgQoqPKHZVJUQ5WH9rJytJsqlbwTGiI0yfF2JnvIfZSZgc6aaBwkMGh6Cp5PZ2Cekz0fVBVTGTBiSWmVcSsUxFTThesalX2xIB9-B58PiONe6r0_5iKc1xvmTGtfXyYIJS1kHKY1if_Eedub6Wc-4VAetYNXPChq3FAUDuCKvwijOzpQpK2CaKdhlFDq8mDdfWUBcSxrAJotIEgtBL1jObBrybOxsW83Wtgz49gM_qmlHElINqSNeCZBpqJ-rtMRUJRA6UwC_e8kqAhI4OIJEKwnSXXKxm7pjKg1gw0WpGczctaTz7i4_UCp_S6_QDD_-gninOoJz0aH_9xYAOSCU6w3Ho7KKGqDjGcOMv_7ETvSK5aaKYdG2bjnzmBBTbdI8HYMaZJT2Fdh48pNEi7u9g5QO4KwMzdn_0PryQWAOlLKemU87mCo3LJ-YmlhlEk6v-BdBOORpF1OVlSz8rp5rwa-vN1fXYyprHTIihL7SYsl2_AnrXaD3HCPxklW4VrfgNP5GapcQiJqfLOfnAxK1f_YVO-54kS_69SwNmTkQWBiqQv-Q_9czuGDqCjf8Y0ieLH0C-jVDGej_wublrkUQIN6w2OHlQqFCLsFojdV_jzPrmYCGwevpbxgTQC5JQW6qQevrNt-61mxgp16aXbbzOuc6AgqV6QzbyDj6dSrq1Trn3WeB6QmZa4TpDpw58rnW_1cn9qE6x8eUSGUFy1]--></g></svg>